<?xml version="1.0" encoding="utf-8"?><!DOCTYPE svg PUBLIC "-//W3C//DTD SVG 1.1//EN" "http://www.w3.org/Graphics/SVG/1.1/DTD/svg11.dtd"><svg version="1.1" id="图层_1" xmlns="http://www.w3.org/2000/svg" xmlns:xlink="http://www.w3.org/1999/xlink" x="0px" y="0px" width="320px" height="152px" viewBox="0 0 320 152" enable-background="new 0 0 320 152" xml:space="preserve"><path fill="#FFFFFF" stroke="none" d="M48.287,60.724l-6.514-18.272H19.017l-6.683,18.272h-8.46L26.63,1h8.29l21.741,59.724H48.287z M30.691,10.813 l-9.136,24.955h17.85L30.691,10.813z"/><path fill="#FFFFFF" stroke="none" d="M89.145,60.724L74.849,41.605l-4.822,5.076v14.042h-6.852V1h6.852v36.799L85.931,20.88h8.29L79.417,36.615l18.188,24.109 H89.145z"/><path fill="#FFFFFF" stroke="none" d="M97.519,60.724v-5.583l22.925-28.424H99.718V20.88h29.101v5.414L105.64,55.141h23.687v5.583H97.519z"/><path fill="#FFFFFF" stroke="none" d="M137.531,8.783V1h6.514v7.783H137.531z M137.531,60.724V20.88h6.514v39.844H137.531z"/><path fill="#FFFFFF" stroke="none" d="M184.565,60.724v-5.076c-2.03,2.369-5.753,6.345-13.62,6.345c-7.613,0-11.505-3.638-13.451-6.006 c-2.284-2.707-4.906-7.275-4.906-15.312c0-5.076,0.93-9.813,4.061-13.958c1.776-2.453,6.175-7.105,14.211-7.105 c5.668,0,9.645,2.622,11.336,3.976c1.016,0.846,1.607,1.523,2.369,2.538V1h6.768v59.724H184.565z M184.227,35.6 c-1.354-5.752-5.752-9.729-11.759-9.813c-1.776,0-6.006,0.253-9.221,4.145c-2.707,3.215-3.384,6.937-3.384,10.997 c0,1.523-0.084,6.599,3.045,10.744c3.215,4.145,7.445,4.314,9.391,4.314c2.368,0,4.568-0.507,6.429-1.692 c2.961-1.861,6.092-5.922,6.007-13.535C184.734,39.999,184.734,37.714,184.227,35.6z"/><path fill="#FFFFFF" stroke="none" d="M235.067,54.126c-2.031,3.045-6.43,7.867-15.396,7.867c-4.146,0-6.853-0.931-8.375-1.607 c-4.906-2.115-11.167-7.529-11.167-19.964c0-7.36,2.454-11.505,4.483-13.958c3.638-4.399,9.137-6.852,14.805-6.852 c2.03,0,4.398,0.423,6.26,1.1c2.453,0.846,7.359,3.214,10.066,9.475c1.101,2.622,1.946,5.837,1.946,11.843h-30.285 c-0.085,7.106,3.3,11.167,5.753,12.858c2.03,1.354,4.652,2.03,7.19,2.03c3.638,0,5.498-1.354,6.683-2.454 c0.423-0.338,1.438-1.354,2.199-2.622c1.016-1.776,1.438-3.722,1.607-4.23l6.853,0.931 C237.351,49.389,236.59,51.757,235.067,54.126z M229.737,33.231c-1.354-4.907-5.583-8.375-10.828-8.375 c-7.19,0-10.743,5.921-11.336,12.266h22.756C230.16,35.092,229.991,34.161,229.737,33.231z"/><path fill="#FFFFFF" stroke="none" d="M272.711,60.724V35.346c0-1.185,0.339-5.076-3.046-7.613c-1.015-0.762-2.876-1.777-6.006-1.777 c-2.961,0-5.329,0.931-7.444,2.961c-0.508,0.507-1.691,1.776-2.368,3.638c-0.762,1.861-0.762,3.553-0.762,5.499v22.671h-6.768 V20.88h6.768v5.837c0.846-1.438,1.691-2.368,2.115-2.792c1.438-1.522,4.906-4.314,10.404-4.314c1.777,0,7.783,0.507,11.336,5.499 c2.623,3.637,2.453,7.529,2.453,11.843v23.771H272.711z"/><path fill="#FFFFFF" stroke="none" d="M286.076,60.724v-5.583l22.925-28.424h-20.726V20.88h29.101v5.414l-23.179,28.847h23.687v5.583H286.076z"/><path fill="#FFFFFF" stroke="none" d="M60.089,148.937v-9.283c-0.563,0.75-1.125,1.875-2.625,3.282c-3.282,3.282-10.221,7.689-21.566,7.689 c-5.345,0-10.314-0.938-15.096-3.188c-6.658-3.188-17.815-11.908-17.815-30.755c0-4.313,0.562-15.659,9.001-25.129 c3.844-4.22,11.158-10.502,25.129-10.502c1.969,0,6.938,0.094,12.189,1.969c3.375,1.125,10.408,4.219,15.752,12.283 c1.032,1.594,1.875,3.188,2.719,4.97l-9.189,2.344c-0.938-2.719-2.157-5.157-4.219-7.408c-5.72-6.563-14.534-6.845-16.972-6.845 c-10.033,0-15.284,4.594-17.909,7.595c-2.813,3.188-6.751,9.471-6.751,19.691c0,2.907,0.188,10.877,5.157,17.909 c2.719,3.75,7.97,9.376,19.315,9.376c2.438,0,8.72-0.281,14.627-4.313c8.158-5.626,8.345-13.784,8.251-17.253H37.023v-7.408h30.755 v34.975H60.089z"/><path fill="#FFFFFF" stroke="none" d="M97.595,112.274c-4.407,0.75-7.783,3.75-8.908,8.063c-0.656,2.25-0.656,3.845-0.656,8.158v20.441h-7.501v-44.164h7.501 v8.064c1.031-1.969,2.344-3.657,4.125-5.063c1.781-1.406,5.251-3.563,10.971-3.563v8.064 C100.408,111.899,98.907,111.993,97.595,112.274z"/><path fill="#FFFFFF" stroke="none" d="M145.695,142.936c-2.438,2.907-7.22,7.407-16.409,7.407c-2.625,0-9.939-0.281-15.284-5.813 c-2.813-2.813-6.47-8.158-6.47-17.44c0-5.72,1.5-11.439,5.063-16.034c4.313-5.532,10.033-7.688,16.972-7.688 c3,0,6.188,0.562,8.814,1.688c5.157,2.157,12.658,8.439,12.471,21.848C150.852,129.339,150.571,136.841,145.695,142.936z M140.538,115.556c-0.656-1.219-1.688-2.532-2.719-3.375c-3.188-2.719-6.657-2.813-8.063-2.813 c-14.159,0-14.065,15.471-14.065,18.003c0,2.157,0.281,3.844,0.375,4.5c0.469,3.188,2.719,12.564,13.221,12.471 c2.062,0,7.126-0.469,10.501-5.532c2.813-4.22,3-11.064,3-12.002C142.882,125.589,142.882,119.869,140.538,115.556z"/><path fill="#FFFFFF" stroke="none" d="M171.76,149.687c-4.219,0-6.376-1.031-7.501-2.719c-1.125-1.688-1.031-3.469-1.031-7.313v-28.692h-7.126v-6.188h7.126 V90.802h7.688v13.971h7.971v6.188h-7.971v25.317c0,3.094-0.188,4.875,0.562,6.188c0.562,1.031,1.501,1.312,2.72,1.312 c0.844,0,2.625-0.281,4.688-1.031v6.188C178.323,149.03,174.667,149.687,171.76,149.687z"/><path fill="#FFFFFF" stroke="none" d="M224.361,141.623c-2.25,3.375-7.126,8.72-17.065,8.72c-4.595,0-7.595-1.031-9.282-1.781 c-5.438-2.344-12.377-8.345-12.377-22.129c0-8.157,2.719-12.752,4.969-15.471c4.032-4.875,10.127-7.595,16.409-7.595 c2.251,0,4.876,0.469,6.938,1.219c2.72,0.938,8.158,3.563,11.158,10.502c1.219,2.907,2.157,6.47,2.157,13.127H193.7 c-0.094,7.876,3.657,12.377,6.376,14.252c2.25,1.5,5.157,2.25,7.97,2.25c4.032,0,6.095-1.5,7.408-2.719 c0.469-0.375,1.594-1.5,2.438-2.907c1.125-1.969,1.594-4.126,1.781-4.688l7.596,1.032 C226.893,136.372,226.049,138.998,224.361,141.623z M218.454,118.463c-1.5-5.438-6.188-9.283-12.002-9.283 c-7.97,0-11.908,6.563-12.564,13.596h25.223C218.923,120.526,218.735,119.494,218.454,118.463z"/><path fill="#FFFFFF" stroke="none" d="M270.775,143.029c-2.251,3.469-7.314,7.313-16.69,7.313c-1.312,0-8.252-0.094-13.127-3.188 c-0.75-0.469-1.876-1.219-3.188-2.813c-3.188-3.844-3.75-7.97-4.032-9.658l8.533-1.219c0,2.907,0.281,5.438,2.438,7.782 c2.626,2.907,6.188,3.376,9.846,3.376c0.938,0,5.345,0.094,8.251-2.532c1.97-1.782,2.063-3.845,2.063-4.876 c0-0.469-0.094-2.063-0.844-3.282c-1.595-2.532-5.907-3.282-8.346-3.75l-4.313-0.844c-5.532-1.125-8.063-2.062-10.407-3.469 c-3.563-2.156-5.345-5.157-5.345-9.376c0-1.312,0.188-4.313,2.344-7.22c4.501-5.907,13.221-5.907,14.815-5.907 c9.282,0,14.346,4.594,16.502,7.782c1.782,2.719,2.157,5.532,2.345,6.751l-8.064,0.938c-0.094-2.157-0.188-3.094-0.656-4.125 c-1.125-2.438-4.781-5.626-11.158-5.626c-6.095,0-8.72,3.657-8.72,6.47c0,0.562,0.094,1.312,0.656,2.344 c1.406,2.344,4.782,3.375,10.033,4.594l4.313,1.032c1.312,0.281,2.719,0.75,4.031,1.125c5.813,1.781,10.689,4.97,10.689,11.721 C272.744,137.497,272.557,140.31,270.775,143.029z"/><path fill="#FFFFFF" stroke="none" d="M310.624,148.937l-15.847-21.191l-5.345,5.626v15.565h-7.595V82.738h7.595v40.788l17.628-18.753h9.189l-16.409,17.44 L320,148.937H310.624z"/></svg>