<?xml version="1.0" encoding="utf-8"?><!DOCTYPE svg PUBLIC "-//W3C//DTD SVG 1.1//EN" "http://www.w3.org/Graphics/SVG/1.1/DTD/svg11.dtd"><svg version="1.1" id="图层_1" xmlns="http://www.w3.org/2000/svg" xmlns:xlink="http://www.w3.org/1999/xlink" x="0px" y="0px" width="320px" height="165px" viewBox="0 0 320 165" enable-background="new 0 0 320 165" xml:space="preserve"><path storke="none" fill="#FFFFFF" d="M7.853,60.263H2.018L23.85,4h6.647l21.755,56.263H46.34l-6.724-17.66h-25.04L7.853,60.263z M37.684,37.542L27.019,9.294 L16.508,37.542H37.684z"/><path storke="none" fill="#FFFFFF" d="M69.796,60.263h-4.985L48.195,17.756h5.758l13.602,34.276l13.718-34.276h5.912L69.796,60.263z"/><path storke="none" fill="#FFFFFF" d="M126.832,53.54c-1.7,2.448-4,4.366-6.898,5.757c-2.898,1.392-6.022,2.087-9.37,2.087c-6.235,0-11.425-2.131-15.573-6.396 c-4.148-4.263-6.221-9.525-6.221-15.785c0-6.362,2.119-11.683,6.356-15.959c4.237-4.276,9.538-6.415,15.902-6.415 c3.271,0,6.272,0.663,9.003,1.99s4.998,3.24,6.801,5.738v-6.801h5.333v42.507h-5.333V53.54z M126.832,38.739 c0-4.508-1.61-8.443-4.83-11.805c-3.221-3.362-6.931-5.043-11.129-5.043c-4.56,0-8.443,1.681-11.65,5.043 c-3.208,3.362-4.811,7.529-4.811,12.501c0,4.74,1.598,8.739,4.792,11.999c3.193,3.259,7.033,4.888,11.515,4.888 c4.328,0,8.096-1.72,11.303-5.159C125.229,47.724,126.832,43.583,126.832,38.739z"/><path storke="none" fill="#FFFFFF" d="M140.782,17.756h5.294v4.831c1.674-1.932,3.612-3.362,5.815-4.29c2.202-0.927,4.72-1.391,7.555-1.391 c3.116,0,5.893,0.58,8.327,1.739c2.435,1.159,4.36,2.821,5.776,4.985c0.979,1.521,1.682,3.304,2.107,5.352 c0.424,2.047,0.637,5.068,0.637,9.061v22.22h-5.372V36.459c0-5.024-0.959-8.669-2.878-10.936s-4.992-3.4-9.216-3.4 c-2.473,0-4.643,0.496-6.512,1.487c-1.868,0.992-3.342,2.415-4.424,4.27c-0.67,1.159-1.14,2.48-1.41,3.961 c-0.271,1.482-0.406,4.064-0.406,7.748v20.674h-5.294V17.756z"/><path storke="none" fill="#FFFFFF" d="M188.659,60.263v-37.02h-8.076v-5.487h8.076V4h5.448v13.756h8.076v5.487h-8.076v37.02H188.659z"/><path storke="none" fill="#FFFFFF" d="M33.283,124.671h48.977c-0.649,11.473-4.781,20.899-12.394,28.276c-7.612,7.379-16.958,11.067-28.032,11.067 c-11.365,0-20.882-3.968-28.547-11.905c-7.666-7.937-11.5-17.786-11.5-29.548c0-5.52,1.046-10.75,3.138-15.694 c2.092-4.943,5.16-9.397,9.201-13.367c3.896-3.86,8.207-6.729,12.934-8.605c4.727-1.875,9.976-2.813,15.748-2.813 c7.648,0,14.512,1.849,20.592,5.546c6.079,3.7,10.959,8.976,14.638,15.83h-9.524c-3.716-4.727-7.694-8.217-11.933-10.473 c-4.24-2.254-8.975-3.382-14.206-3.382c-9.056,0-16.714,3.239-22.972,9.714c-6.26,6.477-9.39,14.26-9.39,23.352 c0,9.669,3.12,17.732,9.362,24.19c6.242,6.458,13.943,9.687,23.108,9.687c7.215,0,13.682-2.309,19.4-6.927 c5.718-4.618,9.444-10.607,11.175-17.967H33.283V124.671z"/><path storke="none" fill="#FFFFFF" d="M142.113,153.029c-2.381,3.428-5.602,6.115-9.661,8.063c-4.059,1.948-8.434,2.922-13.124,2.922 c-8.731,0-16-2.984-21.809-8.956c-5.809-5.971-8.713-13.34-8.713-22.107c0-8.911,2.967-16.362,8.903-22.35 c5.934-5.989,13.358-8.983,22.269-8.983c4.581,0,8.785,0.929,12.609,2.787c3.824,1.859,7,4.538,9.525,8.037v-9.525h7.467v59.529 h-7.467V153.029z M142.113,132.302c0-6.312-2.255-11.825-6.765-16.533c-4.511-4.708-9.706-7.062-15.586-7.062 c-6.385,0-11.824,2.354-16.316,7.062c-4.492,4.708-6.738,10.545-6.738,17.507c0,6.639,2.237,12.24,6.711,16.803 c4.473,4.565,9.849,6.846,16.127,6.846c6.061,0,11.337-2.408,15.829-7.224C139.866,144.884,142.113,139.085,142.113,132.302z"/><path storke="none" fill="#FFFFFF" d="M169.279,162.445h-7.739v-59.529h7.197v6.874c1.875-2.633,3.924-4.564,6.143-5.791c2.219-1.225,4.808-1.875,7.766-1.949 l0.055,8.28c-4.799,0.434-8.235,1.867-10.311,4.303c-2.074,2.435-3.11,6.394-3.11,11.878V162.445z"/><path storke="none" fill="#FFFFFF" d="M239.415,112.333V99.074V83.65h7.684v78.794h-7.684v-8.983c-2.67,3.32-5.989,5.908-9.958,7.766 c-3.971,1.857-8.171,2.787-12.609,2.787c-8.587,0-15.82-3.03-21.701-9.092c-5.88-6.061-8.821-13.493-8.821-22.295 c0-8.731,2.904-16.082,8.713-22.053c5.81-5.971,13.078-8.956,21.81-8.956c4.689,0,8.956,0.912,12.799,2.732 C233.489,106.172,236.745,108.834,239.415,112.333z M239.632,133.276c0-6.783-2.246-12.573-6.737-17.372 c-4.492-4.797-9.769-7.197-15.83-7.197c-6.276,0-11.654,2.282-16.127,6.846c-4.474,4.564-6.71,10.146-6.71,16.749 c0,6.963,2.245,12.808,6.737,17.533c4.491,4.728,9.929,7.09,16.316,7.09c5.879,0,11.074-2.362,15.585-7.09 C237.377,145.109,239.632,139.59,239.632,133.276z"/><path storke="none" fill="#FFFFFF" d="M317.559,135.116h-53.737c0.469,6.478,2.814,11.714,7.034,15.709c4.222,3.995,9.489,5.992,15.803,5.992 c4.474,0,8.497-1.158,12.068-3.477c3.571-2.316,6.332-5.542,8.28-9.674h8.658c-2.742,6.585-6.594,11.642-11.555,15.168 c-4.96,3.525-10.705,5.289-17.235,5.289c-8.659,0-15.982-3.084-21.972-9.254c-5.988-6.169-8.982-13.583-8.982-22.241 c0-9.056,2.931-16.542,8.793-22.459c5.863-5.917,13.357-8.875,22.485-8.875c8.947,0,16.245,3.079,21.892,9.236 c5.646,6.158,8.468,14.167,8.468,24.026V135.116z M309.117,128.459c-1.443-6.622-4.095-11.604-7.955-14.95 c-3.861-3.347-8.895-5.02-15.1-5.02c-5.771,0-10.66,1.799-14.665,5.395c-4.005,3.597-6.458,8.455-7.36,14.575H309.117z"/></svg>