<?xml version="1.0" encoding="utf-8"?><!DOCTYPE svg PUBLIC "-//W3C//DTD SVG 1.1//EN" "http://www.w3.org/Graphics/SVG/1.1/DTD/svg11.dtd"><svg version="1.1" id="图层_1" xmlns="http://www.w3.org/2000/svg" xmlns:xlink="http://www.w3.org/1999/xlink" x="0px" y="0px" width="320px" height="205px" viewBox="0 0 320 205" enable-background="new 0 0 320 205" xml:space="preserve"><path fill="#FFFFFF" storke="none" vector-effect="non-scaling-stroke" d="M115.78,37.276c0-18.475-2.269-28.201-24.958-28.201H79.476V2.918c9.075-0.325,31.443-1.622,40.843-1.947 C138.146,0.325,162.782,0,168.939,0c28.525,0,53.486,4.213,65.154,12.641c13.29,9.399,19.774,20.421,19.774,35.98 c0,18.477-15.237,35.655-36.953,39.546v0.649c30.469,9.075,48.296,28.85,48.296,54.133c0,25.607-17.827,61.587-70.016,61.587 H76.558v-6.159h7.455c26.581,0,31.767-6.157,31.767-26.579V37.276z M142.686,87.195h35.331c31.119,0,46.678-12.317,46.678-37.6 c0-22.692-13.615-43.438-53.486-43.438c-7.13,0-20.42,0.649-28.522,0.974V87.195z M142.686,162.397 c0,24.637,9.724,33.387,36.951,33.387c42.789,0,55.105-26.578,55.105-51.864c0-24.959-19.126-50.566-57.05-50.566h-35.007V162.397z "/><path fill="#FFFFFF" storke="none" opacity="0.62" vector-effect="non-scaling-stroke" d="M78.148,178.225c1.095,0.147,2.116,0.292,3.064,0.292c7.59,0,12.699-5.326,12.699-11.091c0-3.649-1.459-6.495-4.744-9.267 l0.875-0.803c3.869,3.064,7.516,7.661,7.516,12.99c0,7.15-6.493,12.697-14.958,12.697c-7.736,0-15.616-5.181-15.616-14.084 c0-9.851,7.079-9.632,9.486-12.04h1.678V178.225z M76.251,163.047c-4.744,0.803-7.882,3.722-7.882,7.224 c0,2.409,1.095,6.057,7.882,7.735V163.047z"/><path fill="#FFFFFF" storke="none" opacity="0.62" vector-effect="non-scaling-stroke" d="M90.772,142.979c3.795,0,4.524-1.021,4.524-5.107h1.386v15.177h-1.386c0-4.232-1.897-5.181-5.62-5.181H75.375 c-2.846,0-3.503,0.438-3.721,2.117l-0.365,2.846h-1.24l-3.065-8.756v-1.096h5.838c-3.722-5.254-5.838-10.069-5.838-12.989 c0-3.575,2.263-6.203,5.838-6.932c-3.065-4.89-5.838-9.34-5.838-12.917c0-5.253,4.013-7.296,11.019-7.296 c4.67,0,9.56,0,14.011,0.219c1.532,0,3.284-0.876,3.284-3.868v-2.335h1.386v16.419h-1.386v-0.657c0-2.117-0.365-3.064-1.021-3.722 c-1.095-1.094-5.327-1.167-10.362-1.167h-5.691c-5.62,0-8.319,1.897-8.319,5.474c0,2.261,1.094,5.181,4.086,9.704h16.784 c3.649,0,4.524-0.875,4.524-4.523h1.386v14.958h-1.386c0-4.086-1.46-5.546-5.62-5.546h-13.5c-4.596,0-6.275,2.846-6.275,5.401 c0,2.043,0.948,4.815,4.232,9.777H90.772z"/><path fill="#FFFFFF" storke="none" opacity="0.62" vector-effect="non-scaling-stroke" d="M72.092,86.423c-3.723-5.181-5.108-8.319-5.108-11.018c0-6.495,6.422-11.968,14.084-11.968 c9.34,0,16.491,7.369,16.491,17.075c0,3.283-0.511,6.129-1.386,10.799H56.621c-3.795,0-4.086,0.22-4.452,2.993l-0.292,2.043h-1.241 l-2.992-8.756v-1.168H72.092z M87.78,86.423c3.649,0,7.662-2.408,7.662-7.954c0-5.984-5.035-10.143-12.332-10.143 c-7.298,0-12.771,4.304-12.771,9.925c0,2.262,1.095,4.889,3.43,8.172H87.78z"/><path fill="#FFFFFF" storke="none" opacity="0.62" vector-effect="non-scaling-stroke" d="M66.983,41.253c0-8.903,6.64-15.69,15.324-15.69c8.61,0,15.25,6.786,15.25,15.47c0,9.048-6.567,15.982-15.105,15.982 C72.383,57.015,66.983,48.842,66.983,41.253z M95.807,40.23c0-4.306-4.378-9.194-11.675-9.194c-8.319,0-15.397,5.107-15.397,11.238 c0,4.815,4.962,9.267,11.238,9.267C88.802,51.542,95.807,46.506,95.807,40.23z"/></svg>