<?xml version="1.0" encoding="utf-8"?><!DOCTYPE svg PUBLIC "-//W3C//DTD SVG 1.1//EN" "http://www.w3.org/Graphics/SVG/1.1/DTD/svg11.dtd"><svg version="1.1" id="图层_1" xmlns="http://www.w3.org/2000/svg" xmlns:xlink="http://www.w3.org/1999/xlink" x="0px" y="0px" width="320px" height="205px" viewBox="0 0 320 205" enable-background="new 0 0 320 205" xml:space="preserve"><path fill="#FFFFFF" stroke="none" vector-effect="non-scaling-stroke" d="M77.392,203.033v-7.509h29.301V9.701H77.392V1.897h99.537c25.718,0,44.271,3.731,55.659,11.19 c11.386,7.461,17.08,19.388,17.08,35.78c0,12.074-4.1,21.719-12.295,28.934c-8.197,7.215-22.406,13.473-42.627,18.774v3.092 c20.221,2.161,35.633,7.583,46.234,16.271c10.602,8.688,15.902,20.246,15.902,34.676c0,17.08-6.824,30.088-20.467,39.02 c-13.646,8.934-33.572,13.399-59.781,13.399H77.392z M144.683,95.397h17.228c16.981,0,28.957-3.239,35.928-9.718 c6.969-6.479,10.454-17.522,10.454-33.13c0-16.392-2.701-27.631-8.099-33.719c-5.399-6.085-15.952-9.129-31.657-9.129h-23.854 V95.397z M144.683,102.318v93.206h25.915c16.981,0,28.467-3.361,34.455-10.086c5.986-6.723,8.982-18.969,8.982-36.737 c0-16.786-3.829-28.713-11.485-35.781c-7.657-7.067-20.713-10.602-39.167-10.602H144.683z"/><path fill="#FFFFFF" stroke="none" opacity="0.62" d="M77.926,186.701c-3.96,0-7.452-1.5-10.476-4.5c-3.023-3-4.535-6.503-4.535-10.511c0-4.007,1.512-7.511,4.535-10.511 s6.516-4.5,10.476-4.5c3.96,0,7.452,1.5,10.475,4.5c3.024,3,4.536,6.503,4.536,10.511c0,4.008-1.512,7.512-4.536,10.511 C85.377,185.202,81.886,186.701,77.926,186.701z M73.408,178.093h8.964c3.178,0,5.442-0.498,6.794-1.494 c1.352-0.996,2.027-2.632,2.027-4.909s-0.676-3.913-2.027-4.909c-1.352-0.996-3.616-1.494-6.794-1.494h-8.964 c-3.201,0-5.472,0.498-6.812,1.494s-2.01,2.632-2.01,4.909s0.67,3.913,2.01,4.909S70.207,178.093,73.408,178.093z"/><path fill="#FFFFFF" stroke="none" opacity="0.62" d="M90.233,120.042v-4.66h1.672v4.66c0,0.901,0.059,2.04,0.178,3.415c0.119,1.375,0.272,2.834,0.462,4.375h-3.984v1.032 c1.471,1.115,2.567,2.383,3.291,3.806s1.085,3.036,1.085,4.837c0,3.676-1.435,6.782-4.304,9.319 c-2.869,2.538-6.438,3.806-10.707,3.806c-4.316,0-7.897-1.292-10.742-3.877c-2.846-2.584-4.269-5.81-4.269-9.675 c0-1.731,0.344-3.255,1.031-4.571c0.688-1.316,1.803-2.579,3.344-3.788v-0.89H44.845v4.66h-1.672v-4.589 c0-0.925-0.059-2.081-0.178-3.468c-0.119-1.387-0.272-2.851-0.462-4.393H90.233z M81.483,127.903h-7.719 c-2.347,0-4.487,0.889-6.42,2.668c-1.932,1.778-2.899,3.735-2.899,5.869c0,2.04,0.617,3.48,1.85,4.322 c1.233,0.842,3.534,1.263,6.901,1.263h10.173c2.775,0,4.785-0.403,6.029-1.209c1.245-0.806,1.868-2.099,1.868-3.877 c0-2.466-0.919-4.589-2.757-6.367c-1.837-1.779-4.132-2.668-6.883-2.668H81.483z"/><path fill="#FFFFFF" stroke="none" opacity="0.62" d="M77.926,110.332c-3.96,0-7.452-1.5-10.476-4.5c-3.023-3-4.535-6.503-4.535-10.511c0-4.007,1.512-7.511,4.535-10.511 s6.516-4.5,10.476-4.5c3.96,0,7.452,1.5,10.475,4.5c3.024,3,4.536,6.503,4.536,10.511c0,4.008-1.512,7.512-4.536,10.511 C85.377,108.832,81.886,110.332,77.926,110.332z M73.408,101.724h8.964c3.178,0,5.442-0.498,6.794-1.494 c1.352-0.996,2.027-2.632,2.027-4.909s-0.676-3.913-2.027-4.909c-1.352-0.996-3.616-1.494-6.794-1.494h-8.964 c-3.201,0-5.472,0.498-6.812,1.494s-2.01,2.632-2.01,4.909s0.67,3.913,2.01,4.909S70.207,101.724,73.408,101.724z"/><path fill="#FFFFFF" stroke="none" opacity="0.62" d="M91.905,58.221v17.287h-1.672v-4.944H65.227v4.944h-1.672v-4.66c0-0.925-0.053-2.075-0.16-3.451 c-0.106-1.375-0.267-2.845-0.48-4.411h6.545v-0.676c-2.252-1.375-3.907-2.893-4.962-4.553c-1.055-1.66-1.583-3.569-1.583-5.727 c0-2.964,0.706-5.199,2.116-6.705c1.411-1.505,3.516-2.259,6.314-2.259h1.245h17.643v-4.517h1.672v16.682h-1.672v-4.339H69.994 c-1.755,0-2.935,0.255-3.54,0.765c-0.604,0.51-0.907,1.417-0.907,2.721c0,2.111,1.132,4.043,3.397,5.798 c2.265,1.755,4.819,2.632,7.665,2.632h13.624v-4.588H91.905z"/><path fill="#FFFFFF" stroke="none" opacity="0.62" d="M49.007,31.188c-1.162,0-2.146-0.394-2.952-1.182c-0.806-0.788-1.209-1.769-1.209-2.944c0-1.152,0.403-2.134,1.209-2.945 c0.806-0.811,1.791-1.217,2.952-1.217c1.162,0,2.141,0.406,2.935,1.217c0.795,0.812,1.192,1.793,1.192,2.945 c0,1.175-0.397,2.157-1.192,2.944C51.147,30.794,50.169,31.188,49.007,31.188z M91.905,17.279v18.568h-1.672v-5.584H65.227v4.731 h-1.672v-4.599c0-0.924-0.053-2.078-0.16-3.464c-0.106-1.385-0.267-2.848-0.48-4.387l27.318-0.036v-5.229H91.905z"/></svg>