<?xml version="1.0" encoding="utf-8"?><!DOCTYPE svg PUBLIC "-//W3C//DTD SVG 1.1//EN" "http://www.w3.org/Graphics/SVG/1.1/DTD/svg11.dtd"><svg version="1.1" id="图层_1" xmlns="http://www.w3.org/2000/svg" xmlns:xlink="http://www.w3.org/1999/xlink" x="0px" y="0px" width="320px" height="152px" viewBox="0 0 320 152" enable-background="new 0 0 320 152" xml:space="preserve"><path fill="#FFFFFF" storke="none" vector-effect="non-scaling-effect" d="M247.625,23.139c12.931,12.931,19.848,31.876,19.848,54.129v73.376H53.36V77.269c0-22.253,6.917-41.199,19.848-54.129 c22.253-22.253,55.032-21.05,84.803-21.05C187.782,2.089,225.372,0.886,247.625,23.139z M89.447,39.077 C78.02,50.204,73.809,64.639,73.809,81.178v46.611h173.214V81.178c0-16.54-4.21-30.974-15.637-42.101 c-15.337-14.735-47.214-14.134-73.376-14.134C131.848,24.943,104.784,24.342,89.447,39.077z"/><path fill="#FFFFFF" storke="none" opacity="0.62" vector-effect="non-scaling-stroke" d="M142.417,69.957v-5.659h5.658v5.659H142.417z M142.696,114.105V79.736h5.029v34.369H142.696z"/><path fill="#FFFFFF" storke="none" opacity="0.62" vector-effect="non-scaling-stroke" d="M182.374,114.105V92.939c0-6.077-3.283-9.151-8.453-9.151c-5.169,0-8.521,3.144-8.521,9.151v21.166h-5.03V79.736h5.03 v3.772c2.444-2.794,5.798-4.191,9.64-4.191c3.702,0,6.706,1.118,8.802,3.213c2.444,2.375,3.562,5.588,3.562,9.57v22.004H182.374z"/></svg>