<?xml version="1.0" encoding="utf-8"?><!DOCTYPE svg PUBLIC "-//W3C//DTD SVG 1.1//EN" "http://www.w3.org/Graphics/SVG/1.1/DTD/svg11.dtd"><svg version="1.1" id="图层_1" xmlns="http://www.w3.org/2000/svg" xmlns:xlink="http://www.w3.org/1999/xlink" x="0px" y="0px" width="320px" height="178px" viewBox="0 0 320 178" enable-background="new 0 0 320 178" xml:space="preserve"><path fill="#FFFFFF" storke="none" vector-effect="non-scaling-stroke" d="M10.731,66.158H2.568V1h39.906v7.161H10.731v20.574h26.302v6.587H10.731V66.158z"/><path fill="#FFFFFF" storke="none" vector-effect="non-scaling-stroke" d="M55.697,66.158h-7.494V17.946h6.587v11.265c2.323-5.314,4.654-8.759,6.993-10.334c2.339-1.575,4.733-2.363,7.185-2.363 c0.763,0,1.749,0.064,2.959,0.191v7.16h-1.527c-4.137,0-7.574,1.544-10.311,4.63c-2.737,3.087-4.201,7.145-4.392,12.172V66.158z"/><path fill="#FFFFFF" storke="none" vector-effect="non-scaling-stroke" d="M118.134,66.158h-7.398c-0.287-1.528-0.574-4.423-0.859-8.688c-3.311,6.683-8.943,10.024-16.898,10.024 c-5.411,0-9.564-1.434-12.458-4.302c-2.896-2.869-4.344-6.312-4.344-10.326c0-4.877,2.068-8.885,6.205-12.024 c4.136-3.14,11.17-4.709,21.099-4.709c1.337,0,3.468,0.064,6.397,0.19c0-3.819-0.294-6.579-0.883-8.282 c-0.589-1.701-1.838-3.062-3.748-4.081c-1.909-1.019-4.423-1.527-7.542-1.527c-7.606,0-12.029,2.896-13.27,8.688l-6.921-1.193 c1.687-8.878,8.783-13.318,21.29-13.318c6.651,0,11.368,1.473,14.153,4.415c2.784,2.944,4.177,8.043,4.177,15.299v20.479 C117.131,60.208,117.465,63.325,118.134,66.158z M109.876,42.051c-3.055-0.191-5.378-0.286-6.97-0.286 c-5.918,0-10.518,0.973-13.795,2.918c-3.278,1.946-4.917,4.785-4.917,8.517c0,2.362,0.883,4.371,2.649,6.029 c1.767,1.659,4.32,2.489,7.662,2.489c4.518,0,8.234-1.643,11.146-4.929c2.913-3.286,4.368-7.145,4.368-11.58 C110.019,44.316,109.971,43.264,109.876,42.051z"/><path fill="#FFFFFF" storke="none" vector-effect="non-scaling-stroke" d="M170.117,66.158h-7.016v-30.98c0-4.456-0.972-7.59-2.913-9.404c-1.94-1.814-4.296-2.721-7.064-2.721 c-3.819,0-7.026,1.527-9.62,4.582c-2.593,3.055-3.89,7.082-3.89,12.077v26.445h-7.494V17.946h6.969v8.879 c3.915-6.81,8.991-10.215,15.228-10.215c3.596,0,6.657,0.931,9.188,2.792c2.529,1.862,4.264,3.955,5.203,6.277 c0.938,2.323,1.409,6.524,1.409,12.603V66.158z"/><path fill="#FFFFFF" storke="none" vector-effect="non-scaling-stroke" d="M224.917,66.158h-7.769L203.057,39.24l-10.456,12.024v14.894h-7.495V1h7.495v41.768l22.394-24.822h8.014l-15.062,16.928 L224.917,66.158z"/><path fill="#FFFFFF" storke="none" vector-effect="non-scaling-stroke" d="M241.576,66.158h-7.494V1h7.494V66.158z"/><path fill="#FFFFFF" storke="none" vector-effect="non-scaling-stroke" d="M264.298,1v8.354h-8.066V1H264.298z M264.061,17.946v48.212h-7.495V17.946H264.061z"/><path fill="#FFFFFF" storke="none" vector-effect="non-scaling-stroke" d="M316.998,66.158h-7.017v-30.98c0-4.456-0.971-7.59-2.912-9.404c-1.941-1.814-4.297-2.721-7.064-2.721 c-3.819,0-7.027,1.527-9.621,4.582c-2.593,3.055-3.889,7.082-3.889,12.077v26.445H279V17.946h6.97v8.879 c3.915-6.81,8.99-10.215,15.228-10.215c3.596,0,6.657,0.931,9.188,2.792c2.53,1.862,4.265,3.955,5.204,6.277 c0.938,2.323,1.409,6.524,1.409,12.603V66.158z"/><path fill="#FFFFFF" storke="none" vector-effect="non-scaling-stroke" d="M66.674,132.523V173.6h-6.072l-2.73-9.935c-4.883,6.972-12.149,10.458-21.799,10.458c-10.463,0-18.602-3.934-24.415-11.803 c-5.814-7.868-8.72-17.422-8.72-28.663c0-12.016,3.079-22.035,9.238-30.059s14.525-12.036,25.099-12.036 c14.603,0,24.131,7.669,28.585,23.007l-9.412,2.266c-1.356-5.887-3.893-10.167-7.611-12.84c-3.718-2.672-7.785-4.009-12.201-4.009 c-7.824,0-13.595,3.16-17.313,9.479c-3.718,6.319-5.578,14.247-5.578,23.784c0,10.274,2.082,18.309,6.246,24.104 c4.163,5.795,9.828,8.693,16.994,8.693c5.578,0,10.235-1.854,13.973-5.561c3.737-3.708,5.607-8.822,5.607-15.345 c0-1.204-0.039-2.64-0.116-4.31H36.81v-8.308H66.674z"/><path fill="#FFFFFF" storke="none" vector-effect="non-scaling-stroke" d="M105.136,174.123c-8.057,0-14.341-2.985-18.854-8.956c-4.513-5.971-6.769-13.376-6.769-22.215 c0-9.343,2.537-16.806,7.611-22.389c5.074-5.583,11.387-8.375,18.94-8.375c8.095,0,14.476,2.937,19.144,8.81 c4.667,5.874,7.001,13.211,7.001,22.012c0,9.15-2.519,16.623-7.553,22.418C119.622,171.225,113.115,174.123,105.136,174.123z M105.833,166.57c4.648,0,8.541-1.917,11.678-5.752c3.137-3.834,4.706-9.799,4.706-17.895c0-8.134-1.647-14.031-4.938-17.691 c-3.293-3.661-7.146-5.491-11.562-5.491c-4.532,0-8.366,1.85-11.504,5.549c-3.137,3.699-4.706,9.557-4.706,17.575 c0,8.482,1.569,14.554,4.706,18.214C97.351,164.74,101.223,166.57,105.833,166.57z"/><path fill="#FFFFFF" storke="none" vector-effect="non-scaling-stroke" d="M171.602,166.279v7.205c-3.215,0.426-6.004,0.639-8.365,0.639c-11.35,0-17.024-5.933-17.024-17.798v-35.364h-10.4v-7.146 h10.4l0.407-14.757l8.482-0.813v15.571h13.131v7.146h-13.131v36.882c0,6.05,3.138,9.075,9.412,9.075 C166.605,166.918,168.967,166.706,171.602,166.279z"/><path fill="#FFFFFF" storke="none" vector-effect="non-scaling-stroke" d="M227.61,172.496h-9.121v-35.615c0-4.183-0.262-7.321-0.785-9.412c-0.522-2.092-1.763-3.902-3.718-5.433 c-1.957-1.529-4.213-2.295-6.769-2.295c-4.688,0-8.609,1.917-11.766,5.752c-3.157,3.834-4.735,8.967-4.735,15.396v31.606h-9.121 V93.189h9.121v31.432c4.145-8.288,10.07-12.433,17.778-12.433c3.447,0,6.517,0.678,9.209,2.033 c2.692,1.356,4.755,3.138,6.188,5.345c1.433,2.208,2.412,4.387,2.935,6.537c0.522,2.149,0.784,5.743,0.784,10.777V172.496z"/><path fill="#FFFFFF" storke="none" vector-effect="non-scaling-stroke" d="M255.267,93.189v10.167h-9.819V93.189H255.267z M254.976,113.815v58.681h-9.121v-58.681H254.976z"/><path fill="#FFFFFF" storke="none" vector-effect="non-scaling-stroke" d="M307.847,151.929l8.25,1.453c-1.162,6.487-3.738,11.565-7.728,15.236c-3.989,3.671-8.967,5.506-14.932,5.506 c-8.096,0-14.264-2.985-18.505-8.956s-6.361-13.26-6.361-21.867c0-8.917,2.236-16.332,6.71-22.244 c4.474-5.912,10.564-8.868,18.272-8.868c6.392,0,11.513,1.908,15.367,5.723c3.854,3.815,6.246,8.744,7.176,14.787l-8.25,1.568 c-1.547-9.683-6.225-14.525-14.033-14.525c-5.025,0-8.892,2.141-11.598,6.42c-2.706,4.28-4.059,9.829-4.059,16.646 c0,7.515,1.343,13.354,4.03,17.517c2.687,4.164,6.465,6.246,11.336,6.246C301.062,166.57,305.837,161.689,307.847,151.929z"/></svg>