<?xml version="1.0" encoding="utf-8"?>
<!-- Generator: Adobe Illustrator 16.0.0, SVG Export Plug-In . SVG Version: 6.00 Build 0)  -->
<!DOCTYPE svg PUBLIC "-//W3C//DTD SVG 1.1//EN" "http://www.w3.org/Graphics/SVG/1.1/DTD/svg11.dtd">
<svg version="1.1" id="图层_1" xmlns="http://www.w3.org/2000/svg" xmlns:xlink="http://www.w3.org/1999/xlink" x="0px" y="0px"
	 width="320px" height="252px" viewBox="0 0 320 252" enable-background="new 0 0 320 252" xml:space="preserve">
<path vector-effect="non-scaling-stroke" fill="#FFFFFF" d="M174.907,33.416H78.58l-0.001,72.549h91.989v31.242H78.58v112.986
	L43,250.195V2h131.907V33.416z"/>
<path opacity="0.62" fill="#FFFFFF" enable-background="new    " d="M129.22,68.344c-0.777-0.311-1.701-0.467-2.772-0.467
	c-2.246,0-4.037,0.995-5.376,2.981c-1.339,1.987-2.009,4.673-2.009,8.058v12.308h-4.975V64.173h4.664v4.171l0.104,0.001
	c0.673-1.417,1.662-2.574,2.966-3.472c1.305-0.898,2.674-1.348,4.107-1.348c0.95,0,2.047,0.121,3.291,0.363V68.344z"/>
<path opacity="0.62" fill="#FFFFFF" enable-background="new    " d="M158.657,91.225h-4.82l-0.001-4.301h-0.104
	c-0.725,1.521-1.904,2.725-3.537,3.615c-1.631,0.891-3.407,1.335-5.324,1.335c-6.754,0-10.132-3.879-10.132-11.635l0.001-16.065
	h4.975v13.993c0,3.282,0.414,5.666,1.243,7.151c0.881,1.625,2.384,2.462,4.509,2.514c2.729,0.069,4.802-0.951,6.219-3.058
	c1.331-1.934,1.995-4.629,1.995-8.084V64.173h4.977L158.657,91.225L158.657,91.225z"/>
<path opacity="0.62" fill="#FFFFFF" enable-background="new    " d="M181.95,91.12c-1.729,0.501-3.146,0.752-4.249,0.752
	c-5.545,0-8.318-2.625-8.317-7.877V68.19l-6.116-0.001v-4.017h6.115v-6.27l4.977-1.606v7.876h7.178v4.016h-7.178V83.01
	c-0.002,1.502,0.414,2.695,1.242,3.576c0.778,0.829,1.764,1.244,2.955,1.244c1.276,0,2.408-0.32,3.395-0.959L181.95,91.12
	L181.95,91.12z"/>
<path opacity="0.62" fill="#FFFFFF" enable-background="new    " d="M193.468,57.923h-5.756v-5.756h5.756V57.923z M193.148,91.824
	h-5.119V64.13h5.119V91.824z"/>
<path opacity="0.62" fill="#FFFFFF" enable-background="new    " d="M226.466,90.058c0,8.637-4.647,12.956-13.938,12.957
	c-2.853-0.001-6.09-0.623-9.719-1.866l0.545-4.613c3.541,1.624,6.787,2.435,9.742,2.436c2.625,0,4.68-0.83,6.166-2.489
	c1.486-1.657,2.229-3.92,2.229-6.788l0.001-2.668h-0.104c-2.108,2.798-5.131,4.198-9.068,4.198c-3.697,0-6.6-1.348-8.706-4.042
	c-1.917-2.436-2.878-5.528-2.878-9.277c0.002-3.818,0.994-7.082,2.98-9.794c2.245-3.058,5.285-4.587,9.121-4.587
	c4.354,0.001,7.323,1.554,8.912,4.665h0.105l-0.002-4.017h4.612V90.058L226.466,90.058z M221.491,78.01
	c-0.001-2.989-0.656-5.433-1.97-7.333c-1.435-2.073-3.412-3.11-5.935-3.11c-2.351,0-4.241,1.098-5.676,3.29
	c-1.243,1.953-1.864,4.216-1.864,6.79c-0.001,2.643,0.674,4.87,2.021,6.685c1.416,1.899,3.255,2.85,5.519,2.85
	c2.298,0,4.197-0.898,5.701-2.695C220.757,82.743,221.491,80.584,221.491,78.01z"/>
<path opacity="0.62" fill="#FFFFFF" enable-background="new    " d="M257.768,78.812h-19.305c0,2.609,0.898,4.777,2.695,6.503
	c1.711,1.676,3.783,2.514,6.218,2.514c1.504,0,3.151-0.328,4.949-0.984c1.538-0.553,2.67-1.131,3.396-1.736v5.001
	c-3.248,1.175-6.099,1.762-8.552,1.762c-4.664,0-8.196-1.348-10.599-4.042c-2.278-2.522-3.42-6.063-3.42-10.624
	c0-4.024,1.166-7.312,3.498-9.859c2.332-2.548,5.396-3.823,9.199-3.822C253.794,63.525,257.768,68.621,257.768,78.812z
	 M252.48,75.082c0-2.143-0.586-3.912-1.763-5.312c-1.243-1.468-2.901-2.202-4.974-2.201c-2.247-0.001-4.026,0.811-5.34,2.436
	c-1.07,1.347-1.719,3.04-1.942,5.078L252.48,75.082L252.48,75.082z"/>
<path opacity="0.62" fill="#FFFFFF" enable-background="new    " d="M279.609,68.344c-0.775-0.311-1.701-0.467-2.771-0.466
	c-2.246,0-4.038,0.993-5.377,2.98c-1.339,1.987-2.007,4.673-2.007,8.058l-0.001,12.308h-4.975l-0.002-27.052h4.664v4.172h0.104
	c0.674-1.416,1.661-2.574,2.968-3.472c1.305-0.898,2.672-1.348,4.105-1.347c0.951,0,2.047,0.122,3.291,0.362V68.344L279.609,68.344z
	"/>
</svg>
