<?xml version="1.0" encoding="utf-8"?>
<!-- Generator: Adobe Illustrator 16.0.0, SVG Export Plug-In . SVG Version: 6.00 Build 0)  -->
<!DOCTYPE svg PUBLIC "-//W3C//DTD SVG 1.1//EN" "http://www.w3.org/Graphics/SVG/1.1/DTD/svg11.dtd">
<svg version="1.1" id="图层_1" xmlns="http://www.w3.org/2000/svg" xmlns:xlink="http://www.w3.org/1999/xlink" x="0px" y="0px"
	 width="320px" height="205px" viewBox="0 0 320 205" enable-background="new 0 0 320 205" xml:space="preserve">
<path vector-effect="non-scaling-stroke" fill="#FFFFFF" d="M244.839,30.045h-70.084v48.331h67.609v28.528h-67.609v95.75h-30.354
	V1.517h100.438V30.045z"/>
<path opacity="0.62" fill="#FFFFFF" enable-background="new    " d="M81.01,192.624h25.031c7.225,0,10.836-2.851,10.836-8.554
	c0-5.701-3.611-8.551-10.836-8.551H81.01v-10.076h25.255c3.492,0,6.508,0.434,9.045,1.299c2.269,0.836,4.314,2.283,6.135,4.344
	c2.956,3.403,4.433,7.732,4.433,12.984c0,5.226-1.478,9.539-4.433,12.941c-1.82,2.09-3.866,3.568-6.135,4.434
	c-2.03,0.836-5.044,1.254-9.045,1.254H81.01V192.624z"/>
<path opacity="0.62" fill="#FFFFFF" enable-background="new    " d="M90.413,142.336h34.211v10.076H90.413v4.299H81.01v-4.299
	H65.023v-10.076H81.01V134.5h9.403V142.336z"/>
<path opacity="0.62" fill="#FFFFFF" enable-background="new    " d="M81.01,117.575h25.031c7.225,0,10.836-2.851,10.836-8.554
	c0-5.701-3.611-8.553-10.836-8.553H81.01V90.394h25.255c3.492,0,6.508,0.433,9.045,1.298c2.269,0.836,4.314,2.284,6.135,4.344
	c2.956,3.403,4.433,7.731,4.433,12.985c0,5.226-1.478,9.539-4.433,12.941c-1.82,2.09-3.866,3.566-6.135,4.434
	c-2.03,0.836-5.044,1.252-9.045,1.252H81.01V117.575z"/>
<path opacity="0.62" fill="#FFFFFF" enable-background="new    " d="M81.01,77.677V67.602h3.895
	c-1.939-1.851-3.269-3.493-3.985-4.925c-0.746-1.462-1.12-3.194-1.12-5.195c0-2.656,0.866-5.433,2.597-8.328l9.225,4.612
	c-1.373,1.911-2.06,3.777-2.06,5.597c0,5.493,4.15,8.239,12.448,8.239h22.613v10.075H81.01z"/>
<path opacity="0.62" fill="#FFFFFF" enable-background="new    " d="M81.01,11.852V1.732h43.614v10.12h-4.567
	c3.881,4.15,5.821,8.614,5.821,13.389c0,6.03-2.179,11.016-6.538,14.956c-4.448,3.912-10,5.866-16.658,5.866
	c-6.538,0-11.985-1.955-16.344-5.866C81.98,36.287,79.8,31.391,79.8,25.51c0-5.075,2.09-9.628,6.269-13.658H81.01z M102.682,35.764
	c4.18,0,7.583-1.12,10.209-3.358c2.657-2.298,3.985-5.194,3.985-8.688c0-3.731-1.283-6.746-3.851-9.045
	c-2.657-2.298-6.029-3.448-10.119-3.448c-4.09,0-7.463,1.149-10.121,3.448c-2.597,2.299-3.896,5.284-3.896,8.956
	c0,3.463,1.314,6.359,3.94,8.687C95.488,34.615,98.771,35.764,102.682,35.764z"/>
</svg>
