<?xml version="1.0" encoding="utf-8"?>
<!-- Generator: Adobe Illustrator 16.0.0, SVG Export Plug-In . SVG Version: 6.00 Build 0)  -->
<!DOCTYPE svg PUBLIC "-//W3C//DTD SVG 1.1//EN" "http://www.w3.org/Graphics/SVG/1.1/DTD/svg11.dtd">
<svg version="1.1" id="图层_1" xmlns="http://www.w3.org/2000/svg" xmlns:xlink="http://www.w3.org/1999/xlink" x="0px" y="0px"
	 width="320px" height="205px" viewBox="0 0 320 205" enable-background="new 0 0 320 205" xml:space="preserve">
<path vector-effect="non-scaling-stroke" fill="#FFFFFF" d="M189.377,15.794l1.66,22.945c0.605,6.944,0.906,11.676,0.906,14.19
	l-4.228,0.754c-6.743-15.296-15.12-26.769-25.135-34.418c-10.016-7.646-22.266-11.473-36.758-11.473
	c-17.714,0-31.501,2.166-41.363,6.491c-14.292,6.14-26.519,16.808-36.683,32.003C37.613,61.484,32.532,79.8,32.532,101.236
	c0,12.379,1.861,23.5,5.585,33.362c3.722,9.864,8.982,19.047,15.775,27.551s14.817,15.875,24.078,22.115
	c6.039,4.127,13.232,7.245,21.587,9.358c4.729,1.108,11.775,1.661,21.134,1.661c6.039,0,12.73-0.854,20.078-2.566
	c7.345-1.71,12.881-4,16.606-6.869c3.721-2.867,6.264-6.113,7.623-9.736c1.357-3.623,2.037-10.666,2.037-21.135
	c0-17.41-1.158-27.55-3.473-30.418c-2.315-2.867-9.611-4.754-21.889-5.66l-6.039-0.453l-4.076,0.15
	c-0.604-0.099-1.411-0.25-2.416-0.453l-2.264-3.773c0-0.502,0.351-1.156,1.057-1.962c5.231-0.804,16.605-1.208,34.117-1.208
	c3.924,0,10.314,0.102,19.17,0.302l15.549,0.604l14.039-0.151c2.719,0,5.986,0.101,9.812,0.302c0.703,0.102,1.156,0.278,1.359,0.528
	c0.201,0.252,0.301,0.679,0.301,1.282c0,1.108-0.252,2.518-0.754,4.228c-4.228,0.906-7.498,1.358-9.812,1.358l-9.812-0.151
	c-3.319,0-5.987,1.158-8,3.472c-1.008,1.108-1.51,4.883-1.51,11.322l0.15,19.775c0,13.586-0.555,22.242-1.66,25.965
	c-0.604,2.215-1.863,4.203-3.773,5.963c-1.914,1.762-5.938,3.85-12.075,6.266c-8.757,3.523-16.707,5.887-23.852,7.094
	c-13.285,2.314-26.116,3.473-38.495,3.473c-19.927,0-36.256-2.542-48.986-7.624c-12.732-5.081-23.701-12.151-32.909-21.209
	s-15.775-18.214-19.7-27.474c-5.939-13.586-8.907-27.422-8.907-41.515c0-17.61,4.654-34.845,13.964-51.703
	c9.307-16.855,24.328-30.569,45.061-41.136C75.805,4.725,95.632,1,120.691,1C138,1,152.166,2.51,163.186,5.529
	C174.206,8.548,182.936,11.97,189.377,15.794z"/>
<path opacity="0.62" fill="#FFFFFF" enable-background="new    " d="M94.534,88.989c0.132,0.285,0.197,0.494,0.197,0.625
	c0,0.329-0.263,0.911-0.79,1.744c-0.68,1.097-1.437,1.897-2.27,2.401c-0.526,0.329-1.25,0.494-2.171,0.494
	c-1.58,0-2.764-0.482-3.554-1.448c-0.482-0.57-0.822-1.59-1.02-3.06l-3.685,2.566c-1.294,0.746-2.282,1.217-2.961,1.415
	c-1.097,0.285-2.413,0.428-3.948,0.428c-1.119,0-2.002-0.334-2.648-1.003c-0.647-0.669-0.971-1.53-0.971-2.583
	c0-1.513,0.928-3.323,2.786-5.428c1.858-2.106,4.38-3.828,7.568-5.166c2.243-0.943,3.616-1.546,4.122-1.81
	c0.043-0.724,0.065-1.514,0.065-2.369c0-2.785-0.391-4.672-1.171-5.659c-0.781-0.987-1.898-1.48-3.35-1.48
	c-1.519,0-2.938,0.592-4.258,1.776c-0.814,0.746-1.43,2.15-1.848,4.211c-0.131,0.571-0.384,1.185-0.756,1.842
	c-0.943,0.614-1.7,0.921-2.271,0.921c-0.482,0-0.921-0.143-1.316-0.428c-0.22-0.153-0.329-0.329-0.329-0.526
	c0-0.57,0.609-1.859,1.826-3.866c1.217-2.007,2.752-3.509,4.606-4.508c1.854-0.998,3.471-1.497,4.853-1.497
	c1.886,0,3.29,0.17,4.211,0.51c0.921,0.34,1.732,0.938,2.435,1.793c0.702,0.855,1.129,1.788,1.283,2.797
	c0.087,0.482,0.131,2.204,0.131,5.165l-0.099,5.231l0.033,3.816c0,0.505-0.012,0.933-0.033,1.283
	c-0.022,0.637-0.033,1.108-0.033,1.415c0,0.724,0.208,1.305,0.625,1.744s0.91,0.658,1.48,0.658c0.833,0,1.546-0.416,2.139-1.25
	l0.395-0.526C93.919,89.154,94.161,89.077,94.534,88.989z M84.893,88.035c0.154-2.785,0.231-4.749,0.231-5.889
	c0-0.592-0.033-1.393-0.099-2.402c-1.475,0.526-3.038,1.327-4.688,2.402c-1.651,1.075-2.96,2.314-3.929,3.718
	c-0.704,1.009-1.056,1.963-1.056,2.862c0,0.855,0.292,1.568,0.875,2.139c0.583,0.571,1.315,0.855,2.195,0.855
	c0.682,0,1.508-0.241,2.477-0.724C82.175,90.36,83.506,89.374,84.893,88.035z"/>
<path opacity="0.62" fill="#FFFFFF" enable-background="new    " d="M96.508,93.562l-0.132-0.428c0-0.153,0.099-0.383,0.296-0.691
	l1.941-0.394l2.731-0.493c0.219-0.109,0.373-0.263,0.46-0.46c0.132-0.284,0.197-1.127,0.197-2.529
	c0-7.445-0.044-11.743-0.131-12.892c-0.088-1.149-0.286-1.878-0.592-2.185c-0.308-0.306-1.097-0.547-2.369-0.723
	c-0.746-0.109-1.338-0.252-1.776-0.427l0.131-1.003c2.303-0.945,3.85-1.759,4.639-2.441c1.097-0.989,2.029-2.287,2.797-3.893
	l1.119,0.033c0.131,1.097,0.197,3.532,0.197,7.304l-0.033,0.56c0,0.131,0.022,0.34,0.066,0.625c0.833-1.514,1.875-2.906,3.125-4.178
	l0.757-0.757c0.307-0.351,0.603-0.625,0.888-0.823c1.535-0.921,2.676-1.382,3.422-1.382c0.965,0,1.754,0.324,2.369,0.971
	c0.614,0.647,0.921,1.442,0.921,2.385c0,0.746-0.219,1.328-0.658,1.744c-0.592,0.549-1.272,0.823-2.04,0.823
	c-0.351,0-1.042-0.186-2.073-0.56c-1.031-0.373-1.711-0.559-2.04-0.559c-0.614,0-1.042,0.099-1.283,0.296
	c-0.614,0.483-1.36,1.47-2.237,2.961c-0.68,1.119-1.02,2.15-1.02,3.092l0.165,5.441l0.065,6.529c0.066,0.747,0.153,1.23,0.263,1.451
	c0.087,0.154,0.307,0.341,0.658,0.56c2.369,0.198,3.772,0.341,4.211,0.429c0.307,0.022,0.537,0.044,0.691,0.066
	c0.943,0.022,1.601,0.154,1.974,0.396c0.197,0.11,0.296,0.274,0.296,0.494c0,0.131-0.088,0.307-0.263,0.526l-3.652-0.066
	l-1.382-0.033l-2.007,0.033h-3.356l-1.81,0.099L96.508,93.562z"/>
<path opacity="0.62" fill="#FFFFFF" enable-background="new    " d="M144.379,88.989c0.132,0.285,0.197,0.494,0.197,0.625
	c0,0.329-0.263,0.911-0.79,1.744c-0.68,1.097-1.437,1.897-2.27,2.401c-0.526,0.329-1.25,0.494-2.171,0.494
	c-1.58,0-2.764-0.482-3.554-1.448c-0.482-0.57-0.822-1.59-1.02-3.06l-3.685,2.566c-1.294,0.746-2.282,1.217-2.961,1.415
	c-1.097,0.285-2.413,0.428-3.948,0.428c-1.119,0-2.002-0.334-2.648-1.003c-0.647-0.669-0.971-1.53-0.971-2.583
	c0-1.513,0.928-3.323,2.786-5.428c1.858-2.106,4.38-3.828,7.568-5.166c2.243-0.943,3.616-1.546,4.122-1.81
	c0.043-0.724,0.065-1.514,0.065-2.369c0-2.785-0.391-4.672-1.171-5.659c-0.781-0.987-1.898-1.48-3.35-1.48
	c-1.519,0-2.938,0.592-4.258,1.776c-0.814,0.746-1.43,2.15-1.848,4.211c-0.131,0.571-0.384,1.185-0.756,1.842
	c-0.943,0.614-1.7,0.921-2.271,0.921c-0.482,0-0.921-0.143-1.316-0.428c-0.22-0.153-0.329-0.329-0.329-0.526
	c0-0.57,0.609-1.859,1.826-3.866s2.752-3.509,4.606-4.508c1.854-0.998,3.471-1.497,4.853-1.497c1.886,0,3.29,0.17,4.211,0.51
	c0.921,0.34,1.732,0.938,2.435,1.793c0.702,0.855,1.129,1.788,1.283,2.797c0.087,0.482,0.131,2.204,0.131,5.165l-0.099,5.231
	l0.033,3.816c0,0.505-0.012,0.933-0.033,1.283c-0.022,0.637-0.033,1.108-0.033,1.415c0,0.724,0.208,1.305,0.625,1.744
	s0.91,0.658,1.48,0.658c0.833,0,1.546-0.416,2.139-1.25l0.395-0.526C143.765,89.154,144.006,89.077,144.379,88.989z M134.738,88.035
	c0.154-2.785,0.231-4.749,0.231-5.889c0-0.592-0.033-1.393-0.099-2.402c-1.475,0.526-3.038,1.327-4.688,2.402
	c-1.651,1.075-2.96,2.314-3.929,3.718c-0.704,1.009-1.056,1.963-1.056,2.862c0,0.855,0.292,1.568,0.875,2.139
	c0.583,0.571,1.315,0.855,2.195,0.855c0.682,0,1.508-0.241,2.477-0.724C132.02,90.36,133.352,89.374,134.738,88.035z"/>
<path opacity="0.62" fill="#FFFFFF" enable-background="new    " d="M146.32,92.345c0.351-0.241,0.833-0.406,1.448-0.494
	c0.877-0.109,1.557-0.285,2.04-0.526c0.395-0.329,0.658-0.8,0.789-1.415c0.153-0.79,0.23-3.564,0.23-8.324
	c0-4.672-0.143-7.688-0.428-9.047c-0.482-0.307-1.107-0.548-1.875-0.724c-0.242-0.043-0.746-0.165-1.514-0.362v-1.102
	c1.3-0.375,2.352-0.858,3.155-1.453c0.805-0.594,1.922-1.782,3.354-3.565h0.197c0.133,0,0.342-0.011,0.628-0.033
	c0.177,0.022,0.319,0.077,0.43,0.165l-0.033,3.75c0,0.768,0.022,1.59,0.066,2.468c2.343-2.127,4.444-3.619,6.306-4.475
	c1.27-0.57,2.703-0.855,4.302-0.855c1.905,0,3.416,0.362,4.532,1.085c1.117,0.724,2.179,2.029,3.186,3.916
	c1.952-1.93,3.725-3.279,5.314-4.047s3.195-1.151,4.818-1.151c2.457,0,4.476,0.802,6.055,2.405c1.558,1.625,2.356,4.008,2.402,7.148
	v2.734l0.031,2.998l-0.031,7.709c-0.022,0.9,0.174,1.581,0.592,2.042c0.176,0.065,0.845,0.264,2.006,0.592
	c0.725,0.198,1.152,0.352,1.283,0.462c0.133,0.11,0.197,0.263,0.197,0.46c0,0.242-0.064,0.526-0.195,0.855h-0.23l-3.314-0.197
	c-0.394-0.021-1.018-0.033-1.871-0.033c-1.049,0-2.516,0.044-4.396,0.132h-1.674c-0.24,0-0.711,0.011-1.411,0.033
	c-0.021-0.197-0.032-0.373-0.032-0.526c0-0.175,0.076-0.395,0.23-0.658c0.592-0.263,1.402-0.478,2.435-0.642
	c1.03-0.165,1.673-0.461,1.925-0.89c0.252-0.428,0.379-2.136,0.379-5.123c0-6.479-0.078-10.236-0.23-11.268
	c-0.266-1.647-0.963-2.938-2.096-3.872c-1.131-0.934-2.555-1.4-4.271-1.4c-1.319,0-2.604,0.345-3.858,1.036
	c-1.254,0.691-2.483,1.728-3.692,3.109l-0.033,0.79v5.034l-0.131,3.916c0,3.992,0.038,6.262,0.115,6.811
	c0.075,0.548,0.263,0.949,0.559,1.201c0.298,0.252,1.157,0.477,2.583,0.674c0.637,0.088,1.131,0.176,1.48,0.263
	c0.264,0.22,0.395,0.505,0.395,0.855c0,0.286-0.099,0.483-0.296,0.592h-0.56l-1.646-0.033h-9.573l-2.633,0.033
	c-0.045-0.329-0.066-0.57-0.066-0.724l0.033-0.395c0.482-0.263,1.383-0.515,2.698-0.756c0.681-0.11,1.382-0.296,2.104-0.56
	c0.133-0.109,0.23-0.252,0.297-0.428c0.109-0.307,0.188-1.185,0.23-2.632l0.163-3.817l-0.065-4.31l0.033-2.401
	c0-2.698-0.547-4.667-1.642-5.906c-1.094-1.239-2.474-1.859-4.136-1.859c-1.555,0-3.113,0.384-4.678,1.151
	c-1.565,0.768-2.861,1.799-3.89,3.093c-0.022,0.614-0.033,1.173-0.033,1.678l0.132,11.055c0.021,2.413,0.158,3.79,0.411,4.129
	c0.252,0.34,0.816,0.576,1.694,0.707c1.403,0.198,2.313,0.439,2.73,0.724c0.197,0.131,0.296,0.329,0.296,0.592
	c0,0.176-0.011,0.384-0.032,0.625c-2.507-0.175-4.189-0.263-5.047-0.263c-0.879,0-1.671,0.011-2.374,0.033l-1.648,0.099h-1.023
	l-3.694,0.132c-0.044-0.153-0.065-0.28-0.065-0.38C146.188,92.888,146.232,92.674,146.32,92.345z"/>
<path opacity="0.62" fill="#FFFFFF" enable-background="new    " d="M199.355,80.238c0-1.492,0.312-3.087,0.938-4.787
	c0.625-1.7,1.573-3.225,2.846-4.573c1.271-1.349,2.621-2.353,4.047-3.011c1.996-0.921,4.431-1.382,7.305-1.382
	c4.102,0,7.527,1.404,10.281,4.211c2.752,2.808,4.129,6.186,4.129,10.134c0,3.509-1.442,6.641-4.326,9.393
	c-2.885,2.753-6.53,4.129-10.939,4.129c-2.72,0-5.285-0.713-7.697-2.138c-1.799-1.075-3.347-2.665-4.641-4.771
	S199.355,82.936,199.355,80.238z M213.914,93.069c1.67,0,3.279-0.449,4.828-1.349c1.549-0.9,2.785-2.341,3.708-4.327
	c0.923-1.985,1.384-4.282,1.384-6.893c0-1.711-0.357-3.696-1.07-5.955c-0.715-2.259-1.812-3.954-3.297-5.083
	c-1.482-1.129-3.224-1.694-5.224-1.694c-1.45,0-2.929,0.34-4.433,1.02c-1.506,0.68-2.779,1.985-3.822,3.915
	c-1.045,1.931-1.565,4.672-1.565,8.226c0,3.992,0.906,7.014,2.72,9.064C208.954,92.044,211.212,93.069,213.914,93.069z"/>
<path opacity="0.62" fill="#FFFFFF" enable-background="new    " d="M232.586,92.378c0.548-0.153,1.186-0.284,1.908-0.393
	c1.382-0.197,2.21-0.427,2.484-0.689c0.273-0.262,0.41-0.863,0.41-1.803l0.065-1.181c0.022-0.437,0.032-0.995,0.032-1.672
	l-0.064-10.067c0-1.355-0.176-2.229-0.525-2.624c-0.594-0.611-1.689-1.038-3.291-1.279v-1.2c1.602-0.44,2.83-1.012,3.686-1.716
	c1.25-0.989,2.303-2.331,3.158-4.025l1.119,0.033c0.064,1.034,0.099,1.771,0.099,2.211v2.179l0.033,0.594
	c0.263-0.176,0.569-0.396,0.921-0.661c1.316-0.99,2.665-1.799,4.047-2.426s2.609-1.062,3.686-1.304
	c0.68-0.176,1.447-0.264,2.304-0.264c1.798,0,3.344,0.483,4.639,1.45c1.294,0.966,2.134,2.103,2.517,3.409
	c0.385,1.306,0.576,3.904,0.576,7.791v4.974c0,0.132-0.017,0.571-0.05,1.317c-0.032,0.747-0.049,1.604-0.049,2.569
	c0,1.538,0.065,2.515,0.196,2.932c0.109,0.286,0.396,0.571,0.855,0.857c2.105,0.286,3.334,0.626,3.686,1.021v0.263
	c0,0.219-0.065,0.494-0.197,0.822h-0.625l-4.344-0.065l-4.276,0.099c-1.579,0.043-3.038,0.033-4.376-0.033l-0.197-0.691
	c0-0.131,0.076-0.307,0.23-0.526c0.592-0.263,1.426-0.439,2.5-0.527c0.637-0.044,1.074-0.11,1.316-0.198
	c0.24-0.087,0.537-0.263,0.889-0.527c0.263-0.527,0.395-0.966,0.395-1.318c0-0.154-0.021-0.461-0.064-0.923
	c-0.066-1.01-0.11-3.525-0.133-7.545v-1.713l0.065-2.636c0-2.833-0.569-4.788-1.711-5.865c-1.142-1.076-2.665-1.615-4.573-1.615
	c-1.47,0-2.906,0.324-4.31,0.971c-1.404,0.647-2.765,1.618-4.08,2.912c-0.044,1.053-0.065,1.953-0.065,2.698l0.1,7.271
	c0,3.795,0.055,6.12,0.164,6.975c0.043,0.351,0.119,0.592,0.229,0.724c0.177,0.176,0.526,0.318,1.054,0.428
	c0.525,0.11,1.135,0.263,1.825,0.46c0.691,0.198,1.146,0.318,1.365,0.362c0.438,0.11,0.733,0.329,0.89,0.658l-0.033,0.658h-3.455
	l-7.106-0.099c-1.646,0.022-2.687,0.033-3.125,0.033h-0.821l-0.066-0.428C232.486,92.883,232.521,92.664,232.586,92.378z"/>
<path opacity="0.62" fill="#FFFFFF" enable-background="new    " d="M289.734,69.578l0.033-0.954l-0.033-3.849l0.033-7.271
	c0-2.018-0.22-3.301-0.658-3.849c-0.438-0.548-1.721-1.107-3.85-1.678c-0.152-0.043-0.395-0.109-0.724-0.197v-0.362
	c0-0.219,0.021-0.461,0.065-0.724c2.982-0.307,5.549-0.822,7.698-1.546l1.679-0.033c0.088,1.492,0.131,3.159,0.131,5.001
	l-0.131,12.667l0.229,14.279l-0.099,7.6c0,1.558,0.108,2.435,0.328,2.632c0.438,0.439,1.403,0.669,2.896,0.691
	c0.307,0,0.725,0.022,1.25,0.066v0.592c0,0.154-0.012,0.318-0.033,0.494c-0.68,0.154-1.382,0.296-2.105,0.428l-4.771,0.921
	c-0.702,0.131-1.262,0.197-1.678,0.197v-3.158c-0.373,0.11-0.954,0.329-1.744,0.658c-3.422,1.448-6.569,2.171-9.442,2.171
	c-1.732,0-3.498-0.565-5.297-1.694s-3.181-2.703-4.146-4.721c-0.966-2.018-1.448-4.08-1.448-6.186c0-1.886,0.318-3.69,0.954-5.412
	c0.636-1.722,1.47-3.153,2.501-4.293c0.658-0.746,1.59-1.486,2.796-2.221c1.206-0.735,2.205-1.201,2.994-1.398
	c1.952-0.504,3.258-0.757,3.916-0.757c2.961,0,5.396,0.439,7.304,1.316C288.979,69.271,289.428,69.468,289.734,69.578z
	 M289.77,89.911c0.088-1.469,0.131-4.496,0.131-9.081c0-3.882-0.18-6.333-0.541-7.354c-0.36-1.02-1.262-1.985-2.703-2.896
	c-1.442-0.91-3.061-1.365-4.852-1.365c-2.513,0-4.644,0.976-6.392,2.928c-1.748,1.953-2.622,4.836-2.622,8.653
	c0,3.356,0.945,6.032,2.836,8.028c1.891,1.996,4.244,2.994,7.062,2.994c1.617,0,3.092-0.219,4.424-0.658
	C288.445,90.722,289.332,90.305,289.77,89.911z"/>
</svg>
