<?xml version="1.0" encoding="utf-8"?>
<!-- Generator: Adobe Illustrator 16.0.0, SVG Export Plug-In . SVG Version: 6.00 Build 0)  -->
<!DOCTYPE svg PUBLIC "-//W3C//DTD SVG 1.1//EN" "http://www.w3.org/Graphics/SVG/1.1/DTD/svg11.dtd">
<svg version="1.1" id="图层_1" xmlns="http://www.w3.org/2000/svg" xmlns:xlink="http://www.w3.org/1999/xlink" x="0px" y="0px"
	 width="320px" height="190px" viewBox="0 0 320 190" enable-background="new 0 0 320 190" xml:space="preserve">
<path vector-effect="non-scaling-stroke" fill="#FFFFFF" d="M107.043,95.866h61.199v77.25c-22.444,9.743-44.714,14.614-66.81,14.614
	c-30.187,0-54.306-8.808-72.357-26.424C11.024,143.691,2,121.963,2,96.127c0-27.228,9.351-49.89,28.055-67.985
	C48.758,10.049,72.203,1,100.388,1c10.263,0,20.009,1.109,29.23,3.328c9.22,2.219,20.877,6.287,34.971,12.201V43.15
	c-21.749-12.613-43.323-18.922-64.722-18.922c-19.922,0-36.713,6.785-50.369,20.356c-13.659,13.571-20.487,30.23-20.487,49.977
	c0,20.705,6.828,37.625,20.487,50.759c13.656,13.137,31.229,19.705,52.718,19.705c10.439,0,22.92-2.393,37.45-7.176l2.479-0.783
	v-37.974h-35.102V95.866z"/>
<path opacity="0.62" fill="#FFFFFF" enable-background="new    " d="M54.091,64.071c1.308,0,2.427,0.451,3.358,1.352
	c0.93,0.901,1.396,2.006,1.396,3.314c0,1.279-0.466,2.383-1.396,3.313c-0.931,0.931-2.05,1.396-3.358,1.396
	c-1.221,0-2.296-0.473-3.226-1.418c-0.931-0.943-1.396-2.041-1.396-3.291c0-1.221,0.465-2.304,1.396-3.249
	C51.795,64.543,52.87,64.071,54.091,64.071z M50.166,80.946h7.937v40.119h-7.937V80.946z"/>
<path opacity="0.62" fill="#FFFFFF" enable-background="new    " d="M69.746,60.146h7.937v60.918h-7.937V60.146z"/>
<path opacity="0.62" fill="#FFFFFF" enable-background="new    " d="M89.326,60.146h7.937v60.918h-7.937V60.146z"/>
<path opacity="0.62" fill="#FFFFFF" enable-background="new    " d="M210.947,96.341l-5.309-3.225
	c-3.332-2.034-5.699-4.035-7.107-6.004c-1.41-1.967-2.114-4.231-2.114-6.793c0-3.842,1.332-6.963,4.001-9.362
	c2.665-2.398,6.129-3.598,10.391-3.598c4.078,0,7.814,1.144,11.213,3.432v7.931c-3.515-3.383-7.301-5.074-11.353-5.074
	c-2.282,0-4.157,0.526-5.624,1.583c-1.469,1.056-2.199,2.407-2.199,4.054c0,1.462,0.539,2.831,1.619,4.105
	c1.081,1.276,2.818,2.615,5.217,4.019l5.334,3.159c5.953,3.555,8.931,8.081,8.931,13.577c0,3.912-1.31,7.092-3.931,9.537
	c-2.619,2.445-6.027,3.668-10.221,3.668c-4.82,0-9.21-1.481-13.169-4.445v-8.873c3.772,4.781,8.142,7.171,13.101,7.171
	c2.188,0,4.014-0.609,5.469-1.829c1.455-1.219,2.181-2.744,2.181-4.577C217.375,101.824,215.232,99.006,210.947,96.341z"/>
<path opacity="0.62" fill="#FFFFFF" enable-background="new    " d="M250.95,97.471v13.658c0,1.096,0.372,1.643,1.116,1.643
	c0.768,0,1.969-0.57,3.601-1.713v3.879c-1.446,0.931-2.604,1.566-3.478,1.904c-0.875,0.336-1.791,0.506-2.746,0.506
	c-2.725,0-4.328-1.07-4.818-3.214c-2.702,2.097-5.578,3.144-8.629,3.144c-2.236,0-4.098-0.737-5.589-2.217
	c-1.49-1.479-2.235-3.336-2.235-5.572c0-2.026,0.729-3.836,2.186-5.432c1.451-1.596,3.521-2.859,6.199-3.791l8.139-2.793V95.76
	c0-3.865-1.932-5.8-5.797-5.8c-3.473,0-6.849,1.793-10.133,5.381v-6.953c2.471-2.911,6.021-4.365,10.655-4.365
	c3.47,0,6.251,0.907,8.351,2.723c0.696,0.583,1.326,1.357,1.886,2.323c0.559,0.967,0.913,1.935,1.067,2.899
	C250.874,92.935,250.95,94.768,250.95,97.471z M244.695,110.432v-9.539l-4.264,1.644c-2.164,0.862-3.695,1.729-4.595,2.603
	c-0.896,0.873-1.344,1.963-1.344,3.266c0,1.328,0.426,2.412,1.278,3.25c0.849,0.838,1.944,1.257,3.297,1.257
	C241.094,112.911,242.973,112.085,244.695,110.432z"/>
<path opacity="0.62" fill="#FFFFFF" enable-background="new    " d="M267.646,84.65v4.086c2.844-3.143,6.067-4.714,9.679-4.714
	c2.002,0,3.864,0.518,5.589,1.553c1.723,1.036,3.031,2.458,3.931,4.262c0.896,1.804,1.343,4.664,1.343,8.576v18.376h-6.356V98.482
	c0-3.282-0.5-5.628-1.503-7.039c-1-1.41-2.676-2.115-5.026-2.115c-3.007,0-5.557,1.502-7.653,4.507v22.952h-6.498V84.65H267.646z"/>
<path opacity="0.62" fill="#FFFFFF" enable-background="new    " d="M295.488,114.482v-6.846c1.795,1.258,3.63,2.275,5.503,3.057
	c1.874,0.779,3.452,1.171,4.733,1.171c1.328,0,2.47-0.326,3.425-0.979c0.954-0.652,1.431-1.433,1.431-2.342
	c0-0.932-0.311-1.706-0.925-2.322c-0.618-0.617-1.952-1.508-4-2.673c-4.101-2.282-6.782-4.231-8.052-5.853
	c-1.271-1.617-1.905-3.381-1.905-5.292c0-2.468,0.962-4.483,2.882-6.043c1.924-1.561,4.396-2.34,7.426-2.34
	c3.145,0,6.37,0.885,9.676,2.653v6.288c-3.771-2.281-6.857-3.423-9.257-3.423c-1.233,0-2.231,0.263-2.991,0.788
	c-0.752,0.524-1.134,1.218-1.134,2.082c0,0.746,0.345,1.457,1.029,2.131c0.688,0.678,1.89,1.493,3.613,2.446l2.275,1.293
	c5.355,3.027,8.035,6.38,8.035,10.058c0,2.63-1.031,4.79-3.094,6.478c-2.059,1.688-4.708,2.531-7.944,2.531
	c-1.908,0-3.613-0.203-5.104-0.611C299.622,116.329,297.746,115.578,295.488,114.482z"/>
</svg>
