<?xml version="1.0" encoding="utf-8"?>
<!-- Generator: Adobe Illustrator 16.0.0, SVG Export Plug-In . SVG Version: 6.00 Build 0)  -->
<!DOCTYPE svg PUBLIC "-//W3C//DTD SVG 1.1//EN" "http://www.w3.org/Graphics/SVG/1.1/DTD/svg11.dtd">
<svg version="1.1" id="图层_1" xmlns="http://www.w3.org/2000/svg" xmlns:xlink="http://www.w3.org/1999/xlink" x="0px" y="0px"
	 width="320px" height="205px" viewBox="0 0 320 205" enable-background="new 0 0 320 205" xml:space="preserve">
<path vector-effect="non-scaling-stroke" fill="#FFFFFF" d="M0,0h27.968v84.462h105.058V0h27.968v204.41h-27.968v-95.596H27.968
	v95.596H0V0z"/>
<path opacity="0.62" fill="#FFFFFF" enable-background="new    " d="M189.73,88.53c1.508,0.759,2.656,1.74,3.443,2.945
	c0.762,1.148,1.27,2.487,1.521,4.019c0.227,1.048,0.339,2.722,0.339,5.017h-16.563c0.069,2.317,0.612,4.177,1.625,5.577
	c1.014,1.4,2.581,2.1,4.703,2.1c1.983,0,3.566-0.662,4.747-1.985c0.663-0.769,1.131-1.659,1.407-2.671h3.763
	c-0.1,0.838-0.43,1.77-0.989,2.796c-0.561,1.028-1.185,1.868-1.873,2.521c-1.153,1.135-2.584,1.9-4.283,2.297
	c-0.916,0.227-1.949,0.338-3.104,0.338c-2.818,0-5.206-1.03-7.162-3.092c-1.959-2.062-2.938-4.951-2.938-8.666
	c0-3.656,0.987-6.626,2.959-8.909c1.973-2.282,4.551-3.422,7.733-3.422C186.667,87.393,188.223,87.771,189.73,88.53z M191.102,97.47
	c-0.154-1.657-0.513-2.982-1.074-3.975c-1.041-1.843-2.776-2.765-5.209-2.765c-1.743,0-3.205,0.635-4.385,1.903
	c-1.183,1.268-1.809,2.88-1.877,4.836h12.545V97.47z"/>
<path opacity="0.62" fill="#FFFFFF" enable-background="new    " d="M199.988,79.44h3.828v31.234h-3.828V79.44z"/>
<path opacity="0.62" fill="#FFFFFF" enable-background="new    " d="M211.439,87.902l6.08,18.542l6.338-18.542h4.189l-8.574,22.773
	h-4.08l-8.396-22.773H211.439z"/>
<path opacity="0.62" fill="#FFFFFF" enable-background="new    " d="M245.396,88.53c1.508,0.759,2.655,1.74,3.442,2.945
	c0.765,1.148,1.269,2.487,1.522,4.019c0.225,1.048,0.34,2.722,0.34,5.017h-16.565c0.071,2.317,0.612,4.177,1.624,5.577
	c1.014,1.4,2.583,2.1,4.706,2.1c1.984,0,3.567-0.662,4.747-1.985c0.66-0.769,1.13-1.659,1.404-2.671h3.765
	c-0.101,0.838-0.43,1.77-0.989,2.796c-0.56,1.028-1.184,1.868-1.873,2.521c-1.154,1.135-2.582,1.9-4.283,2.297
	c-0.916,0.227-1.948,0.338-3.103,0.338c-2.817,0-5.207-1.03-7.164-3.092c-1.956-2.062-2.938-4.951-2.938-8.666
	c0-3.656,0.988-6.626,2.96-8.909c1.972-2.282,4.55-3.422,7.735-3.422C242.333,87.393,243.889,87.771,245.396,88.53z M246.768,97.47
	c-0.154-1.657-0.514-2.982-1.074-3.975c-1.041-1.843-2.776-2.765-5.209-2.765c-1.74,0-3.203,0.635-4.385,1.903
	c-1.182,1.268-1.808,2.88-1.877,4.836h12.545V97.47z"/>
<path opacity="0.62" fill="#FFFFFF" enable-background="new    " d="M256.314,81.544h3.869v6.357h3.637v3.127h-3.637v14.861
	c0,0.795,0.27,1.326,0.81,1.596c0.297,0.156,0.794,0.232,1.489,0.232c0.183,0,0.381-0.004,0.595-0.013
	c0.212-0.009,0.459-0.034,0.743-0.07v3.04c-0.438,0.128-0.896,0.221-1.372,0.276c-0.476,0.057-0.987,0.085-1.544,0.085
	c-1.783,0-2.994-0.458-3.633-1.371c-0.639-0.914-0.957-2.102-0.957-3.562V91.029h-3.084v-3.127h3.084V81.544z"/>
<path opacity="0.62" fill="#FFFFFF" enable-background="new    " d="M267.646,79.44h3.892v4.336h-3.892V79.44z M267.646,88.009
	h3.892v22.666h-3.892V88.009z"/>
<path opacity="0.62" fill="#FFFFFF" enable-background="new    " d="M292.367,89.115c1.605,1.247,2.574,3.395,2.9,6.442h-3.721
	c-0.229-1.402-0.744-2.569-1.552-3.497c-0.81-0.928-2.106-1.393-3.892-1.393c-2.438,0-4.183,1.189-5.232,3.567
	c-0.68,1.543-1.021,3.448-1.021,5.714c0,2.28,0.483,4.198,1.447,5.755c0.965,1.558,2.48,2.335,4.551,2.335
	c1.586,0,2.846-0.483,3.774-1.451c0.926-0.967,1.567-2.291,1.924-3.972h3.72c-0.427,3.021-1.488,5.229-3.188,6.624
	c-1.704,1.396-3.88,2.095-6.529,2.095c-2.976,0-5.352-1.087-7.122-3.264c-1.772-2.176-2.659-4.894-2.659-8.153
	c0-3.998,0.974-7.109,2.914-9.335c1.941-2.225,4.414-3.339,7.422-3.339C288.669,87.243,290.759,87.868,292.367,89.115z"/>
<path opacity="0.62" fill="#FFFFFF" enable-background="new    " d="M311.299,96.894c0.878-0.113,1.467-0.481,1.766-1.104
	c0.172-0.342,0.255-0.833,0.255-1.474c0-1.309-0.462-2.259-1.392-2.849c-0.926-0.591-2.251-0.886-3.977-0.886
	c-1.996,0-3.41,0.541-4.246,1.623c-0.466,0.6-0.77,1.49-0.911,2.671h-3.571c0.07-2.813,0.979-4.772,2.729-5.874
	c1.748-1.101,3.777-1.653,6.085-1.653c2.676,0,4.849,0.51,6.521,1.531c1.655,1.021,2.484,2.608,2.484,4.764v13.119
	c0,0.398,0.081,0.717,0.245,0.959c0.162,0.239,0.508,0.358,1.03,0.358c0.169,0,0.362-0.009,0.571-0.031
	c0.216-0.021,0.442-0.052,0.684-0.096v2.827c-0.596,0.171-1.051,0.277-1.361,0.32c-0.312,0.043-0.735,0.062-1.274,0.062
	c-1.318,0-2.276-0.468-2.871-1.402c-0.312-0.495-0.53-1.198-0.66-2.104c-0.777,1.021-1.896,1.906-3.356,2.656
	c-1.462,0.752-3.071,1.129-4.829,1.129c-2.111,0-3.836-0.642-5.176-1.922c-1.341-1.281-2.01-2.885-2.01-4.81
	c0-2.111,0.658-3.745,1.979-4.907c1.317-1.16,3.049-1.875,5.188-2.144L311.299,96.894z M303.239,107.232
	c0.81,0.637,1.766,0.955,2.872,0.955c1.347,0,2.648-0.312,3.911-0.935c2.127-1.032,3.189-2.724,3.189-5.073v-3.077
	c-0.468,0.297-1.066,0.546-1.805,0.745c-0.735,0.2-1.455,0.341-2.164,0.426l-2.312,0.297c-1.388,0.183-2.43,0.475-3.128,0.87
	c-1.184,0.665-1.775,1.726-1.775,3.182C302.027,105.727,302.432,106.596,303.239,107.232z"/>
</svg>
