<?xml version="1.0" encoding="utf-8"?>
<!-- Generator: Adobe Illustrator 16.0.0, SVG Export Plug-In . SVG Version: 6.00 Build 0)  -->
<!DOCTYPE svg PUBLIC "-//W3C//DTD SVG 1.1//EN" "http://www.w3.org/Graphics/SVG/1.1/DTD/svg11.dtd">
<svg version="1.1" id="图层_1" xmlns="http://www.w3.org/2000/svg" xmlns:xlink="http://www.w3.org/1999/xlink" x="0px" y="0px"
	 width="320px" height="205px" viewBox="0 0 320 205" enable-background="new 0 0 320 205" xml:space="preserve">
<path vector-effect="non-scaling-stroke" fill="#FFFFFF" d="M117.63,202.666V1.937h30.111v200.729H117.63z"/>
<path vector-effect="non-scaling-stroke" opacity="0.62" fill="#FFFFFF" enable-background="new    " d="M174.625,17.068h14.307
	c2.567,0,4.366-0.459,5.395-1.376c1.027-0.917,1.541-2.197,1.541-3.838c0-1.674-0.562-2.961-1.686-3.862
	c-1.125-0.901-2.715-1.352-4.77-1.352h-14.787V1.668h25.314v4.973h-2.414c0.941,0.643,1.675,1.537,2.195,2.679
	s0.779,2.373,0.779,3.693c0,2.96-0.949,5.206-2.85,6.734c-1.897,1.528-4.729,2.293-8.496,2.293h-14.53L174.625,17.068
	L174.625,17.068z"/>
<path vector-effect="non-scaling-stroke" opacity="0.62" fill="#FFFFFF" enable-background="new    " d="M175.253,41.062
	c-0.354-0.611-0.636-1.327-0.845-2.148c-0.209-0.821-0.314-1.73-0.314-2.728c0-1.771,0.547-3.162,1.643-4.176
	c1.094-1.014,2.783-1.521,5.068-1.521h14.627v-3.621h4.539v3.621h7.241l2.606,4.876h-9.85v6.276h-4.537v-6.276h-13.759
	c-1.19,0-1.995,0.201-2.414,0.604c-0.419,0.402-0.628,1.069-0.628,2.003c0,0.644,0.104,1.303,0.312,1.979
	c0.209,0.676,0.443,1.239,0.701,1.69L175.253,41.062z"/>
<path vector-effect="non-scaling-stroke" opacity="0.62" fill="#FFFFFF" enable-background="new    " d="M187.805,67.952
	c-0.451,0-0.878-0.017-1.279-0.048c-0.402-0.032-0.731-0.065-0.989-0.097V51.055c-1.224,0.128-2.269,0.386-3.138,0.772
	c-0.869,0.386-1.586,0.869-2.148,1.448c-0.562,0.58-0.982,1.223-1.255,1.931c-0.274,0.708-0.41,1.448-0.41,2.221
	c0,1.062,0.176,2.035,0.53,2.921c0.354,0.885,0.853,1.746,1.496,2.583l-3.187,2.945c-1.062-1.127-1.883-2.382-2.462-3.765
	c-0.579-1.384-0.869-3.042-0.869-4.973c0-1.481,0.29-2.889,0.869-4.224c0.579-1.336,1.432-2.503,2.559-3.5
	c1.127-0.998,2.512-1.786,4.152-2.366c1.641-0.579,3.508-0.869,5.6-0.869c2.156,0,4.057,0.273,5.696,0.82
	c1.642,0.547,3.019,1.304,4.128,2.269c1.11,0.966,1.955,2.132,2.534,3.5c0.58,1.368,0.869,2.873,0.869,4.514
	c0,1.802-0.338,3.371-1.015,4.707c-0.676,1.336-1.592,2.446-2.752,3.331c-1.157,0.885-2.51,1.545-4.055,1.979
	C191.135,67.733,189.51,67.952,187.805,67.952z M189.639,62.979c0.869-0.065,1.69-0.217,2.463-0.458
	c0.771-0.241,1.448-0.604,2.027-1.086s1.038-1.086,1.376-1.81c0.339-0.724,0.507-1.602,0.507-2.631c0-1.674-0.556-3.001-1.666-3.982
	c-1.109-0.982-2.679-1.586-4.707-1.811V62.979L189.639,62.979z"/>
<path vector-effect="non-scaling-stroke" opacity="0.62" fill="#FFFFFF" enable-background="new    " d="M194.708,87.938
	c0.29-0.547,0.515-1.11,0.676-1.689c0.161-0.58,0.241-1.288,0.241-2.125c0-1.577-0.548-2.8-1.643-3.669
	c-1.094-0.869-2.719-1.303-4.875-1.303h-14.482v-4.973h25.346v4.973h-2.414c0.836,0.579,1.536,1.376,2.101,2.39
	c0.562,1.014,0.845,2.148,0.845,3.403c0,1.03-0.089,1.875-0.266,2.535c-0.178,0.659-0.442,1.247-0.797,1.762L194.708,87.938z"/>
<path vector-effect="non-scaling-stroke" opacity="0.62" fill="#FFFFFF" enable-background="new    " d="M181.577,111.159
	c-1.417,0-2.601-0.269-3.55-0.806c-0.948-0.535-1.713-1.242-2.293-2.121c-0.578-0.877-0.998-1.889-1.254-3.033
	c-0.258-1.145-0.388-2.344-0.388-3.6c0-1.738,0.308-3.468,0.917-5.19c0.611-1.722,1.385-3.227,2.317-4.514l3.766,2.269
	c-0.837,1.19-1.465,2.421-1.883,3.693c-0.418,1.271-0.627,2.502-0.627,3.693c0,3.091,0.933,4.636,2.8,4.636
	c0.967,0,1.738-0.523,2.317-1.569s1.223-2.486,1.931-4.32c0.516-1.352,1.038-2.503,1.569-3.452c0.53-0.95,1.103-1.722,1.714-2.317
	c0.609-0.596,1.295-1.022,2.052-1.279c0.757-0.258,1.634-0.386,2.632-0.386c1.125,0,2.123,0.207,2.992,0.622
	c0.869,0.414,1.594,1.004,2.172,1.769c0.58,0.765,1.016,1.676,1.305,2.734c0.289,1.058,0.435,2.214,0.435,3.469
	c0,1.608-0.258,3.162-0.772,4.659c-0.514,1.496-1.189,2.808-2.026,3.935l-3.813-2.172c0.739-1.03,1.286-2.076,1.642-3.138
	c0.354-1.062,0.53-2.205,0.53-3.428c0-1.224-0.217-2.108-0.65-2.655c-0.436-0.548-0.99-0.821-1.666-0.821
	c-0.322,0-0.62,0.065-0.893,0.195c-0.274,0.129-0.557,0.373-0.846,0.729c-0.29,0.356-0.588,0.834-0.895,1.434
	s-0.65,1.386-1.037,2.359c-0.549,1.426-1.07,2.676-1.568,3.745c-0.5,1.069-1.062,1.97-1.689,2.699s-1.359,1.272-2.196,1.629
	C183.781,110.98,182.768,111.159,181.577,111.159z"/>
<path vector-effect="non-scaling-stroke" opacity="0.62" fill="#FFFFFF" enable-background="new    " d="M175.253,129.118
	c-0.354-0.611-0.636-1.327-0.845-2.147c-0.209-0.822-0.314-1.73-0.314-2.729c0-1.771,0.547-3.162,1.643-4.176
	c1.094-1.015,2.783-1.521,5.068-1.521h14.627v-3.621h4.539v3.621h7.241l2.606,4.876h-9.85v6.276h-4.537v-6.276h-13.759
	c-1.19,0-1.995,0.201-2.414,0.604c-0.419,0.401-0.628,1.068-0.628,2.002c0,0.645,0.104,1.304,0.312,1.979
	c0.209,0.677,0.443,1.239,0.701,1.69L175.253,129.118z"/>
<path vector-effect="non-scaling-stroke" opacity="0.62" fill="#FFFFFF" enable-background="new    " d="M174.625,150.264h2.512
	c-0.869-0.869-1.595-1.899-2.174-3.091c-0.579-1.19-0.869-2.479-0.869-3.862c0-1.031,0.153-2.067,0.459-3.113
	c0.307-1.047,0.797-1.988,1.473-2.824c0.677-0.837,1.562-1.521,2.656-2.053c1.094-0.53,2.412-0.797,3.957-0.797
	c1.416,0,2.639,0.258,3.67,0.772c1.029,0.515,1.883,1.224,2.559,2.125c0.676,0.899,1.175,1.962,1.496,3.187
	c0.322,1.223,0.482,2.559,0.482,4.007c0,2.317-0.322,4.2-0.966,5.647h1.884c1.383,0,2.445-0.41,3.187-1.23
	c0.741-0.821,1.11-2.004,1.11-3.549c0-1.319-0.129-2.502-0.387-3.547c-0.259-1.047-0.66-2.068-1.207-3.065l3.766-1.931
	c0.74,1.223,1.304,2.525,1.689,3.91c0.387,1.383,0.579,2.977,0.579,4.778c0,2.832-0.7,5.125-2.101,6.879
	c-1.399,1.754-3.532,2.632-6.396,2.632h-17.38V150.264L174.625,150.264z M185.438,150.264c0.354-0.677,0.629-1.474,0.821-2.391
	c0.193-0.917,0.289-2.053,0.289-3.402c0-1.611-0.338-2.882-1.014-3.814c-0.677-0.934-1.593-1.4-2.751-1.4
	c-1.256,0-2.27,0.402-3.042,1.207s-1.158,2.028-1.158,3.669c0,1.353,0.338,2.566,1.015,3.646c0.676,1.078,1.416,1.906,2.221,2.486
	H185.438L185.438,150.264z"/>
<path vector-effect="non-scaling-stroke" opacity="0.62" fill="#FFFFFF" enable-background="new    " d="M175.253,174.4
	c-0.354-0.611-0.636-1.327-0.845-2.148c-0.209-0.82-0.314-1.73-0.314-2.729c0-1.771,0.547-3.162,1.643-4.176
	c1.094-1.014,2.783-1.521,5.068-1.521h14.627v-3.621h4.539v3.621h7.241l2.606,4.876h-9.85v6.275h-4.537v-6.275h-13.759
	c-1.19,0-1.995,0.201-2.414,0.604s-0.628,1.069-0.628,2.004c0,0.644,0.104,1.303,0.312,1.979s0.443,1.238,0.701,1.689L175.253,174.4
	z"/>
<path vector-effect="non-scaling-stroke" opacity="0.62" fill="#FFFFFF" enable-background="new    " d="M187.805,201.291
	c-0.451,0-0.878-0.018-1.279-0.048c-0.402-0.032-0.731-0.065-0.989-0.097v-16.752c-1.224,0.127-2.269,0.385-3.138,0.771
	c-0.869,0.386-1.586,0.869-2.148,1.448s-0.982,1.223-1.255,1.931c-0.274,0.708-0.41,1.448-0.41,2.221
	c0,1.062,0.176,2.035,0.53,2.922c0.354,0.885,0.853,1.746,1.496,2.582l-3.187,2.945c-1.062-1.127-1.883-2.382-2.462-3.765
	c-0.579-1.384-0.869-3.042-0.869-4.974c0-1.48,0.29-2.889,0.869-4.224c0.579-1.336,1.432-2.503,2.559-3.5
	c1.127-0.998,2.512-1.786,4.152-2.366c1.641-0.578,3.508-0.869,5.6-0.869c2.156,0,4.057,0.273,5.696,0.82
	c1.642,0.547,3.019,1.305,4.128,2.27c1.11,0.966,1.955,2.132,2.534,3.5c0.58,1.367,0.869,2.873,0.869,4.514
	c0,1.802-0.338,3.371-1.015,4.707c-0.676,1.336-1.592,2.445-2.752,3.331c-1.157,0.885-2.51,1.545-4.055,1.979
	C191.135,201.072,189.51,201.291,187.805,201.291z M189.639,196.318c0.869-0.065,1.69-0.217,2.463-0.459
	c0.771-0.24,1.448-0.604,2.027-1.086c0.579-0.481,1.038-1.086,1.376-1.81c0.339-0.724,0.507-1.603,0.507-2.631
	c0-1.674-0.556-3.001-1.666-3.981c-1.109-0.982-2.679-1.586-4.707-1.812V196.318L189.639,196.318z"/>
</svg>
