<?xml version="1.0" encoding="utf-8"?>
<!-- Generator: Adobe Illustrator 16.0.0, SVG Export Plug-In . SVG Version: 6.00 Build 0)  -->
<!DOCTYPE svg PUBLIC "-//W3C//DTD SVG 1.1//EN" "http://www.w3.org/Graphics/SVG/1.1/DTD/svg11.dtd">
<svg version="1.1" id="图层_1" xmlns="http://www.w3.org/2000/svg" xmlns:xlink="http://www.w3.org/1999/xlink" x="0px" y="0px"
	 width="320px" height="205px" viewBox="0 0 320 205" enable-background="new 0 0 320 205" xml:space="preserve">
<path vector-effect="non-scaling-stroke" fill="#FFFFFF" d="M190.887,203H44.26v-8.504l2.606-0.139
	c11.062-0.73,17.625-2.309,19.683-4.73c2.058-2.421,3.086-9.807,3.086-22.152V35.525c0-12.372-1.028-19.74-3.086-22.105
	c-2.058-2.367-8.621-3.914-19.683-4.643L44.26,8.504V0h79.555v8.504l-2.607,0.272c-11.158,0.729-17.741,2.276-19.75,4.643
	c-2.012,2.366-3.018,9.733-3.018,22.105v131.951c0,12.161,0.923,19.156,2.774,20.984c1.853,1.832,8.884,2.744,21.101,2.744h20.958
	c16.564,0,26.054-0.938,28.461-2.812c2.408-1.873,3.945-9.621,4.607-23.248l0.143-2.744h14.402V203L190.887,203z"/>
<path opacity="0.62" fill="#FFFFFF" enable-background="new    " d="M148.006,137.792v-5.978c-1.465,2.228-3.149,3.902-5.054,5.025
	c-1.905,1.123-4.039,1.684-6.401,1.684c-2.734,0-4.883-0.907-6.445-2.725c-1.562-1.797-2.344-4.267-2.344-7.412v-14.824
	c0-2.637-0.22-4.207-0.659-4.717c-0.439-0.508-1.841-0.85-4.204-1.025l-0.557-0.028v-1.815h11.191v21.502
	c0,2.442,0.435,4.273,1.304,5.494c0.868,1.221,2.173,1.83,3.911,1.83c1.601,0,3.174-0.41,4.717-1.229
	c1.542-0.82,3.057-2.052,4.541-3.691v-16.317c-0.137-2.91-0.362-4.551-0.674-4.922s-1.719-0.646-4.219-0.82l-0.527-0.029v-1.816
	h11.191v24.229c0.136,2.911,0.359,4.552,0.67,4.922c0.312,0.371,1.71,0.645,4.196,0.82l0.554,0.029v1.815H148.006z"/>
<path opacity="0.62" fill="#FFFFFF" enable-background="new    " d="M187.762,136.708c-3.047,1.211-6.025,1.815-8.936,1.815
	c-4.648,0-8.419-1.554-11.309-4.662c-2.892-3.106-4.336-7.153-4.336-12.139c0-4.984,1.391-8.978,4.174-11.979
	c2.783-3,6.49-4.501,11.119-4.501c2.361,0,5.459,0.479,9.286,1.437v7.588h-3.604l-0.029-0.527c0-4.375-1.924-6.562-5.771-6.562
	c-2.795,0-5.016,1.271-6.666,3.812c-1.649,2.541-2.476,5.982-2.476,10.324c0,4.438,0.978,7.938,2.931,10.498
	c1.951,2.562,4.608,3.842,7.969,3.842c2.89,0,5.438-0.487,7.646-1.465L187.762,136.708L187.762,136.708z"/>
<path opacity="0.62" fill="#FFFFFF" enable-background="new    " d="M203.084,105.977v24.229c0,2.656,0.214,4.238,0.641,4.746
	c0.428,0.509,1.838,0.84,4.227,0.996l0.554,0.029v1.815h-16.61v-1.815l0.557-0.029c2.361-0.156,3.765-0.492,4.203-1.01
	c0.439-0.519,0.66-2.097,0.66-4.732v-16.641c0-2.637-0.221-4.207-0.66-4.717c-0.438-0.508-1.842-0.85-4.203-1.024l-0.557-0.029
	v-1.815h11.189V105.977z M197.312,100.205v-5.771h5.771v5.771H197.312z"/>
<path opacity="0.62" fill="#FFFFFF" enable-background="new    " d="M235.457,137.792v-5.953c-1.408,2.22-3.046,3.89-4.914,5.009
	c-1.867,1.117-3.954,1.678-6.264,1.678c-3.598,0-6.463-1.422-8.594-4.267c-2.133-2.844-3.197-6.661-3.197-11.45
	c0-5.316,1.222-9.574,3.666-12.771c2.445-3.196,5.689-4.794,9.738-4.794c1.857,0,3.584,0.361,5.178,1.084
	c1.595,0.723,3.057,1.808,4.387,3.254V99.121c0-2.676-0.21-4.263-0.63-4.761s-1.831-0.825-4.233-0.981l-0.557-0.029v-1.816h11.191
	v38.671c0,2.656,0.209,4.238,0.629,4.746c0.42,0.509,1.832,0.84,4.233,0.996l0.558,0.029v1.815H235.457z M235.457,111.843
	c-1.507-1.135-2.994-1.981-4.461-2.54c-1.469-0.558-2.915-0.837-4.344-0.837c-2.682,0-4.69,1.062-6.03,3.187
	c-1.341,2.123-2.011,5.318-2.011,9.587c0,4.521,0.649,7.913,1.951,10.174c1.301,2.261,3.252,3.392,5.854,3.392
	c1.761,0,3.396-0.416,4.899-1.248c1.508-0.832,2.888-2.08,4.14-3.742L235.457,111.843L235.457,111.843z"/>
<path opacity="0.62" fill="#FFFFFF" enable-background="new    " d="M270.307,133.443c-3.44,3.389-6.842,5.082-10.203,5.082
	c-2.697,0-4.945-0.855-6.744-2.566c-1.797-1.712-2.696-3.859-2.696-6.439c0-3.014,1.172-5.459,3.517-7.336
	c2.676-2.151,7.206-3.229,13.594-3.229h1.201V115c0-5.02-1.904-7.529-5.714-7.529c-1.776,0-3.35,0.547-4.717,1.641
	c-0.801,0.664-1.31,2.021-1.522,4.072l-0.029,0.558h-3.926v-5.83c4.062-1.777,7.832-2.666,11.309-2.666
	c6.914,0,10.371,3.177,10.371,9.53v14.193c0,2.541,0.22,4.33,0.658,5.366c0.439,1.036,1.207,1.554,2.301,1.554
	c0.391,0,0.908-0.089,1.553-0.268l0.176,2.172c-1.387,0.488-2.627,0.732-3.721,0.732
	C272.866,138.525,271.064,136.832,270.307,133.443z M268.973,132.783v-12.041h-1.348c-3.398,0-6.055,0.707-7.969,2.119
	s-2.871,3.354-2.871,5.824c0,1.844,0.596,3.373,1.787,4.588c1.191,1.217,2.676,1.824,4.453,1.824
	C264.705,135.098,266.688,134.326,268.973,132.783z"/>
</svg>
