<?xml version="1.0" encoding="utf-8"?>
<!-- Generator: Adobe Illustrator 16.0.0, SVG Export Plug-In . SVG Version: 6.00 Build 0)  -->
<!DOCTYPE svg PUBLIC "-//W3C//DTD SVG 1.1//EN" "http://www.w3.org/Graphics/SVG/1.1/DTD/svg11.dtd">
<svg version="1.1" id="图层_1" xmlns="http://www.w3.org/2000/svg" xmlns:xlink="http://www.w3.org/1999/xlink" x="0px" y="0px"
	 width="320px" height="168px" viewBox="0 0 320 168" enable-background="new 0 0 320 168" xml:space="preserve">
<path vector-effect="non-scaling-stroke" fill="#FFFFFF" d="M4.293,167.473l12.797-13.076V16.41L4.293,3.335h35.053l49.52,84.017
	l49.241-84.017h30.603L155.911,16.41v137.986l12.798,13.074h-43.956l13.076-13.074V30.598l-52.58,88.745L31.835,29.485v124.912
	l13.075,13.074H4.293V167.473z"/>
<path opacity="0.62" fill="#FFFFFF" enable-background="new    " d="M189.777,77.339v-6.961c2.089-1.532,5.777-2.297,8.701-2.297
	c5.359,0,9.746,3.271,9.746,7.518V95.16l2.992,2.992H203.7V93.07l-9.188,5.291c-0.767,0.418-1.462,0.697-2.229,0.697
	c-3.201,0-5.986-3.621-5.986-8.424c0-5.847,5.151-10.372,10.999-10.372h6.404V75.32c0-2.785-2.437-4.734-5.222-4.734
	c-1.531,0-2.576,0.626-3.619,1.671L189.777,77.339z M191.17,90.634c0,3.759,1.602,4.873,2.993,4.873
	c0.627,0,1.739-0.278,2.437-0.696l7.102-4.246V82.49h-4.942C194.372,82.49,191.17,85.831,191.17,90.634z"/>
<path opacity="0.62" fill="#FFFFFF" enable-background="new    " d="M229.592,94.045l1.254,1.184
	c-0.628,1.67-2.785,3.897-5.779,3.897c-3.201,0-5.498-2.576-5.498-6.126V71.77h-5.291l9.814-9.815v7.309h6.961v2.506h-6.961v24.294
	c0,0,0.627,0.486,1.74,0.486C228.479,96.551,229.312,94.463,229.592,94.045z"/>
<path opacity="0.62" fill="#FFFFFF" enable-background="new    " d="M250.82,68.011c0.558,0,1.74,0.209,2.438,0.487v8.841
	l-5.708-5.778l-5.569,6.195v17.403l2.924,2.993h-10.44l2.993-2.993V74.276l-2.854-2.854l7.379-3.202v5.847l2.506-2.715
	C245.811,69.891,247.619,68.011,250.82,68.011z"/>
<path opacity="0.62" fill="#FFFFFF" enable-background="new    " d="M257.71,98.152l2.924-2.993V74.276l-2.854-2.854l7.379-3.202
	v26.939l2.994,2.993H257.71L257.71,98.152z M262.932,64.183c-1.393,0-2.576-1.114-2.576-2.506c0-1.392,1.185-2.576,2.576-2.576
	c1.393,0,2.506,1.184,2.506,2.576C265.438,63.069,264.323,64.183,262.932,64.183z"/>
<path opacity="0.62" fill="#FFFFFF" enable-background="new    " d="M271.839,69.264h11.276l-2.854,2.923l5.568,8.145l6.266-8.145
	l-2.854-2.923h9.536l-2.992,2.993l-8.215,10.65l8.492,12.251l2.994,2.992h-11.277l2.924-2.924l-5.917-8.562l-6.613,8.562
	l2.925,2.924h-9.537l2.994-2.992l8.422-11.068l-8.145-11.833L271.839,69.264z"/>
</svg>
