<?xml version="1.0" encoding="utf-8"?>
<!-- Generator: Adobe Illustrator 16.0.0, SVG Export Plug-In . SVG Version: 6.00 Build 0)  -->
<!DOCTYPE svg PUBLIC "-//W3C//DTD SVG 1.1//EN" "http://www.w3.org/Graphics/SVG/1.1/DTD/svg11.dtd">
<svg version="1.1" id="图层_1" xmlns="http://www.w3.org/2000/svg" xmlns:xlink="http://www.w3.org/1999/xlink" x="0px" y="0px"
	 width="320px" height="205px" viewBox="0 0 320 205" enable-background="new 0 0 320 205" xml:space="preserve">
<path vector-effect="non-scaling-stroke" fill="#FFFFFF" d="M97.896,43.961h27.843l29.003,103.947
	c3.016,11.137,4.176,15.546,6.265,27.843c2.552-13.458,3.712-17.866,5.802-25.987l29.93-105.804h28.076l13.688,159.169h-19.026
	l-9.279-116.708c-0.696-10.209-1.16-27.147-1.16-27.147c-1.624,7.889-4.409,18.794-6.266,25.059L168.663,203.13h-16.241
	L120.866,90.134c-3.248-12.065-5.568-19.954-7.889-31.091c0,0-1.16,21.114-1.856,30.859l-8.817,113.228h-18.33L97.896,43.961z"/>
<path vector-effect="non-scaling-stroke" opacity="0.62" fill="#FFFFFF" enable-background="new    " d="M145.355,33.294
	l1.841,3.068c-2.7,2.455-6.382,3.805-10.31,3.805c-8.469,0-13.563-6.137-13.563-16.264c0-5.155,1.043-8.53,3.682-11.538
	c2.455-2.884,5.462-4.296,9.144-4.296c3.314,0,6.26,1.166,8.285,3.375c2.639,2.7,3.375,5.584,3.498,12.888v0.675h-19.086v0.736
	c0,2.884,0.368,5.094,1.411,6.689c1.719,2.639,4.542,3.744,7.61,3.744C140.814,36.178,143.207,35.258,145.355,33.294z
	 M128.847,21.388h13.992c-0.061-3.314-0.491-5.339-1.411-6.812c-1.043-1.657-3.191-2.7-5.523-2.7
	C131.547,11.875,129.092,15.066,128.847,21.388z"/>
<path vector-effect="non-scaling-stroke" opacity="0.62" fill="#FFFFFF" enable-background="new    " d="M169.23,8.868l-1.474,3.744
	h-6.442V32.25c0,3.375,0.92,4.542,3.928,4.542c1.35,0,2.209-0.184,3.068-0.614l0.674,3.068c-1.533,0.798-3.252,1.228-5.399,1.228
	c-1.596,0-2.823-0.307-3.989-0.859c-2.148-1.043-2.946-3.007-2.946-6.076V12.612h-3.989V8.868h3.989V8.5
	c0-1.534,0.123-3.253,0.43-6.383l0.062-0.798l4.971-1.104c0,0-0.614,4.603-0.614,8.653H169.23z"/>
<path vector-effect="non-scaling-stroke" opacity="0.62" fill="#FFFFFF" enable-background="new    " d="M174.51,12.244
	c4.051-2.701,8.408-4.112,12.827-4.112c4.233,0,7.181,1.657,8.47,4.787c0.553,1.35,0.676,2.394,0.676,5.217c0,0.675,0,1.166,0,1.534
	l-0.246,10.065c-0.062,0.43-0.062,0.92-0.062,1.411c0,3.744,0.553,5.094,2.518,6.076l-2.455,3.437
	c-2.088-0.675-3.621-2.332-4.174-4.48c-2.945,2.946-5.34,4.112-8.838,4.112c-3.865,0-5.769-0.982-7.363-2.455
	c-1.719-1.595-2.455-4.296-2.455-6.26c0-6.935,5.953-10.985,16.201-10.985c0.736,0,1.104,0,2.148,0.062v-2.148
	c0-2.7-0.123-3.805-0.982-4.787c-0.98-1.104-2.209-1.657-4.11-1.657c-1.78,0-3.621,0.368-5.892,1.35
	c-1.842,0.736-2.455,1.166-3.867,2.271L174.51,12.244z M191.633,23.965c-1.043-0.062-1.533-0.123-2.395-0.123
	c-4.663,0-7.241,0.859-8.775,2.455c-1.166,1.228-1.718,2.762-1.718,4.848c0,3.621,1.778,5.585,5.276,5.585
	c3.131,0,6.016-1.902,7.426-4.787L191.633,23.965z"/>
</svg>
