<?xml version="1.0" encoding="utf-8"?>
<!-- Generator: Adobe Illustrator 16.0.0, SVG Export Plug-In . SVG Version: 6.00 Build 0)  -->
<!DOCTYPE svg PUBLIC "-//W3C//DTD SVG 1.1//EN" "http://www.w3.org/Graphics/SVG/1.1/DTD/svg11.dtd">
<svg version="1.1" id="图层_1" xmlns="http://www.w3.org/2000/svg" xmlns:xlink="http://www.w3.org/1999/xlink" x="0px" y="0px"
	 width="320px" height="205px" viewBox="0 0 320 205" enable-background="new 0 0 320 205" xml:space="preserve">
<path vector-effect="non-scaling-stroke" fill="#FFFFFF" d="M189.354,19.962l27.931,56.916c3.924,7.751,5.888,16.153,5.888,25.212
	c0,8.857-1.964,17.21-5.888,25.061l-27.931,56.312c-5.939,12.379-16.002,18.569-30.194,18.569c-6.744,0-12.808-1.761-18.191-5.284
	c-5.385-3.521-9.436-7.95-12.153-13.286l-28.081-56.312c-3.724-7.346-5.585-15.701-5.585-25.062c0-9.36,1.861-17.763,5.585-25.212
	l28.081-56.916c6.34-12.38,16.456-18.57,30.344-18.57C173.248,1.392,183.314,7.582,189.354,19.962z M150.704,32.643l-26.269,53.444
	c-2.416,5.336-3.623,10.568-3.623,15.701c0,5.537,1.208,10.819,3.623,15.853l27.024,54.047c1.408,3.321,3.975,4.981,7.698,4.981
	c3.221,0,5.686-1.661,7.397-4.981l27.174-54.047c2.518-5.334,3.775-10.619,3.775-15.853c0-5.534-1.259-10.769-3.775-15.701
	l-26.569-53.444c-1.711-3.925-4.38-5.888-8.002-5.888C155.534,26.755,152.717,28.718,150.704,32.643z"/>
<path opacity="0.62" fill="#FFFFFF" enable-background="new    " d="M249.373,201.348H233.34c-2.828,0-5.24-0.85-7.234-2.546
	l-7.279-6.342c-2.322-1.937-3.483-4.556-3.483-7.86v-9.781c-0.118-3.186,1.19-5.954,3.931-8.307l6.564-5.672
	c2.114-1.727,4.376-2.59,6.788-2.59h16.838c1.041,0,1.927,0.365,2.656,1.094c0.729,0.73,1.095,1.615,1.095,2.657
	c0,1.072-0.365,1.965-1.095,2.681c-0.729,0.715-1.615,1.071-2.656,1.071H233.34c-1.012,0-1.98,0.401-2.902,1.206l-6.028,5.136
	c-0.982,0.833-1.476,1.95-1.476,3.349v9.156c0,0.982,0.387,1.815,1.162,2.5l6.609,5.627c0.833,0.746,1.936,1.117,3.305,1.117h15.363
	c1.012,0,1.891,0.365,2.635,1.094c0.744,0.73,1.116,1.615,1.116,2.657s-0.365,1.929-1.095,2.657
	C251.301,200.982,250.415,201.348,249.373,201.348z"/>
<path opacity="0.62" fill="#FFFFFF" enable-background="new    " d="M270.497,197.596V162c0-1.042,0.364-1.941,1.095-2.702
	c0.729-0.759,1.614-1.139,2.657-1.139c1.042,0,1.927,0.373,2.657,1.116C277.635,160.02,278,160.928,278,162v4.689l6.119-5.226
	c2.529-2.144,5.001-3.215,7.413-3.215h5.493c3.097,0,5.746,1.103,7.949,3.306s3.306,4.854,3.306,7.949v2.01
	c0,1.071-0.365,1.98-1.096,2.725c-0.729,0.744-1.614,1.117-2.657,1.117c-1.041,0-1.928-0.365-2.655-1.095
	c-0.729-0.729-1.097-1.614-1.097-2.657v-2.1c0-1.042-0.363-1.928-1.092-2.658c-0.73-0.729-1.617-1.094-2.658-1.094h-4.868
	c-1.042,0-2.203,0.553-3.483,1.652L278,176.648v20.947c0,1.041-0.372,1.928-1.116,2.656c-0.745,0.73-1.622,1.094-2.635,1.094
	c-1.043,0-1.929-0.363-2.657-1.094C270.861,199.523,270.497,198.639,270.497,197.596z"/>
</svg>
