<?xml version="1.0" encoding="utf-8"?>
<!-- Generator: Adobe Illustrator 16.0.0, SVG Export Plug-In . SVG Version: 6.00 Build 0)  -->
<!DOCTYPE svg PUBLIC "-//W3C//DTD SVG 1.1//EN" "http://www.w3.org/Graphics/SVG/1.1/DTD/svg11.dtd">
<svg version="1.1" id="图层_1" xmlns="http://www.w3.org/2000/svg" xmlns:xlink="http://www.w3.org/1999/xlink" x="0px" y="0px"
	 width="320px" height="253px" viewBox="0 0 320 253" enable-background="new 0 0 320 253" xml:space="preserve">
<path vector-effect="non-scalling-stroke" fill="#FFFFFF" d="M240.357,125.77c0,48.048-9.32,82.554-27.949,103.515
	c-13.443,15.074-30.778,22.609-52.005,22.609c-21.935,0-39.391-7.418-52.36-22.256c-18.396-20.962-27.595-55.582-27.595-103.868
	c0-41.216,6.722-72.482,20.166-93.797C114.057,10.658,133.986,0,160.403,0c21.458,0,38.792,7.418,52.005,22.255
	C231.037,43.216,240.357,77.722,240.357,125.77z M208.518,125.77c0-40.498-4.068-67.627-12.205-81.403
	c-8.139-13.776-20.11-20.663-35.91-20.663c-21.227,0-35.378,12.951-42.454,38.85c-3.775,13.891-5.66,34.964-5.66,63.217
	c0,29.906,1.647,51.093,4.953,63.569c6.838,25.904,21.227,38.852,43.162,38.852c21.458,0,35.733-12.946,42.807-38.852
	C206.748,176.156,208.518,154.968,208.518,125.77z"/>
<path opacity="0.62" fill="#FFFFFF" enable-background="new    " d="M182.537,75.05l-2.213-0.917c-0.108-0.037-0.19-0.1-0.244-0.19
	c-0.055-0.09-0.082-0.153-0.082-0.188c0-0.144,0.018-0.271,0.054-0.378c0.038-0.109,0.146-0.397,0.326-0.864
	c0.179-0.468,0.351-1.008,0.511-1.62c0.163-0.612,0.244-1.224,0.244-1.835c0-0.647-0.098-1.188-0.297-1.619
	c-0.199-0.432-0.479-0.774-0.838-1.027c-0.359-0.251-0.864-0.414-1.512-0.486c-0.646-0.072-1.277-0.107-1.889-0.107h-5.022v7.774
	c0,0.503-0.252,0.684-0.755,0.541l-2.105-0.702c-0.218-0.073-0.344-0.163-0.379-0.27c-0.035-0.108-0.072-0.252-0.107-0.433v-6.91
	h-21.921c-0.432,0-0.647-0.217-0.647-0.649v-2.808c0-0.432,0.215-0.647,0.647-0.647h21.921v-3.509c0-0.432,0.217-0.648,0.647-0.648
	h2.054c0.43,0,0.646,0.216,0.646,0.648v3.509h4.213c1.329,0,2.481,0.089,3.454,0.27c0.974,0.18,1.871,0.548,2.699,1.106
	c0.828,0.557,1.459,1.25,1.889,2.079c0.613,1.116,0.921,2.465,0.921,4.05c0,0.971-0.127,1.943-0.379,2.915
	c-0.106,0.468-0.343,1.152-0.701,2.052c-0.215,0.468-0.414,0.747-0.596,0.837C182.895,75.113,182.718,75.123,182.537,75.05z"/>
<path opacity="0.62" fill="#FFFFFF" enable-background="new    " d="M182.537,92.058l-2.213-0.918
	c-0.108-0.036-0.19-0.099-0.244-0.188c-0.055-0.09-0.082-0.154-0.082-0.189c0-0.145,0.018-0.27,0.054-0.377
	c0.038-0.109,0.146-0.396,0.326-0.865c0.179-0.468,0.351-1.007,0.511-1.62c0.163-0.612,0.244-1.224,0.244-1.836
	c0-0.647-0.098-1.188-0.297-1.619c-0.199-0.431-0.479-0.774-0.838-1.026s-0.864-0.415-1.512-0.486
	c-0.646-0.073-1.277-0.108-1.889-0.108h-5.022v7.775c0,0.503-0.252,0.683-0.755,0.54l-2.105-0.701
	c-0.218-0.074-0.344-0.164-0.379-0.271c-0.035-0.108-0.072-0.252-0.107-0.432v-6.912h-21.921c-0.432,0-0.647-0.216-0.647-0.648
	V79.37c0-0.433,0.215-0.648,0.647-0.648h21.921v-3.51c0-0.432,0.217-0.647,0.647-0.647h2.054c0.43,0,0.646,0.215,0.646,0.647v3.51
	h4.213c1.329,0,2.481,0.089,3.454,0.27c0.974,0.18,1.871,0.548,2.699,1.107c0.828,0.558,1.459,1.25,1.889,2.079
	c0.613,1.116,0.921,2.465,0.921,4.05c0,0.972-0.127,1.943-0.379,2.916c-0.106,0.467-0.343,1.151-0.701,2.052
	c-0.215,0.468-0.414,0.747-0.596,0.837C182.895,92.12,182.718,92.13,182.537,92.058z"/>
<path opacity="0.62" fill="#FFFFFF" enable-background="new    " d="M146.307,100.48c-0.432,0-0.647-0.216-0.647-0.648v-2.808
	c0-0.432,0.215-0.648,0.647-0.648h21.921v-4.211c0-0.432,0.217-0.648,0.647-0.648h2.054c0.43,0,0.646,0.216,0.646,0.648v7.613
	c0,0.467-0.271,0.702-0.81,0.702H146.307z M181.133,101.505c-0.936,0-1.727-0.324-2.375-0.971c-0.648-0.649-0.972-1.44-0.972-2.376
	c0-0.936,0.321-1.728,0.972-2.375c0.648-0.649,1.439-0.972,2.375-0.972s1.729,0.323,2.377,0.972
	c0.646,0.647,0.971,1.439,0.971,2.375c0,0.936-0.323,1.728-0.971,2.376C182.859,101.182,182.068,101.505,181.133,101.505z"/>
<path opacity="0.62" fill="#FFFFFF" enable-background="new    " d="M147.685,126.883c-0.143,0-0.304-0.135-0.481-0.405
	c-0.179-0.271-0.473-0.838-0.882-1.701c-0.41-0.864-0.74-1.782-0.99-2.753c-0.25-0.971-0.374-2.052-0.374-3.24
	c0-2.952,0.862-5.328,2.587-7.127c2.19-2.269,5.71-3.401,10.561-3.401c4.599,0,8.19,1.115,10.777,3.347
	c2.301,1.979,3.45,4.462,3.45,7.451c0,2.519-0.757,4.841-2.269,6.966c-0.36,0.503-0.631,0.8-0.81,0.89
	c-0.183,0.09-0.36,0.082-0.54-0.026l-2.433-1.297l-0.214-0.27c0-0.108,0.125-0.324,0.377-0.647c0.757-0.937,1.324-1.819,1.701-2.646
	c0.379-0.829,0.567-1.71,0.567-2.646c0-2.196-0.853-3.86-2.56-4.994c-1.705-1.134-4.209-1.701-7.511-1.701
	c-2.872,0-5.044,0.305-6.516,0.917c-2.37,0.971-3.555,2.735-3.555,5.292c0,1.08,0.176,2.124,0.527,3.131
	c0.21,0.612,0.649,1.547,1.316,2.808l0.263,0.648c-0.107,0.251-0.196,0.378-0.267,0.378l-2.407,0.972L147.685,126.883z"/>
<path opacity="0.62" fill="#FFFFFF" enable-background="new    " d="M146.307,139.139c-0.432,0-0.647-0.216-0.647-0.647v-2.808
	c0-0.433,0.215-0.648,0.647-0.648h21.921v-4.212c0-0.433,0.217-0.648,0.647-0.648h2.054c0.43,0,0.646,0.216,0.646,0.648v7.612
	c0,0.467-0.271,0.701-0.81,0.701h-24.458V139.139z M181.133,140.165c-0.936,0-1.727-0.324-2.375-0.972
	c-0.648-0.648-0.972-1.439-0.972-2.375c0-0.938,0.321-1.729,0.972-2.377c0.648-0.646,1.439-0.972,2.375-0.972
	s1.729,0.324,2.377,0.972c0.646,0.648,0.971,1.44,0.971,2.377c0,0.936-0.323,1.727-0.971,2.375
	C182.859,139.84,182.068,140.165,181.133,140.165z"/>
<path opacity="0.62" fill="#FFFFFF" enable-background="new    " d="M146.307,167.484c-0.432,0-0.647-0.215-0.647-0.647v-2.808
	c0-0.432,0.215-0.648,0.647-0.648h18.035c1.223,0,2.141-0.162,2.751-0.484c1.082-0.541,1.622-1.549,1.622-3.024
	c0-1.261-0.359-2.591-1.078-3.995c-0.617-1.188-1.354-2.23-2.216-3.131h-19.114c-0.432,0-0.647-0.216-0.647-0.648v-2.807
	c0-0.434,0.215-0.648,0.647-0.648h19.384c1.045,0,1.771-0.045,2.186-0.136c0.417-0.09,0.893-0.261,1.432-0.513l0.324-0.163
	c0.252-0.144,0.44-0.224,0.567-0.242c0.125-0.021,0.206-0.026,0.241-0.026c0.108,0,0.182,0.035,0.218,0.107
	c0.034,0.072,0.071,0.125,0.108,0.161l1.402,2.539c0.252,0.433,0.055,0.812-0.595,1.134c-0.324,0.18-0.781,0.352-1.376,0.514
	c-0.596,0.162-1.107,0.277-1.538,0.351c1.006,1.151,1.834,2.43,2.481,3.833c0.791,1.691,1.188,3.4,1.188,5.129
	c0,2.699-0.974,4.499-2.915,5.4c-1.081,0.504-2.809,0.754-5.186,0.754H146.307L146.307,167.484z"/>
<path opacity="0.62" fill="#FFFFFF" enable-background="new    " d="M146.846,194.32c-0.215-0.146-0.341-0.252-0.377-0.324
	l-1.404-2.268c-0.108-0.186-0.162-0.369-0.162-0.553s0.342-0.479,1.025-0.883c0.396-0.258,0.729-0.441,1-0.552
	c0.27-0.11,0.747-0.275,1.43-0.497h0.162l-0.213-0.217c-0.958-0.971-1.667-1.854-2.127-2.645c-0.815-1.404-1.224-2.953-1.224-4.644
	c0-2.449,0.788-4.32,2.369-5.616c1.363-1.116,3.103-1.673,5.22-1.673c2.009,0,3.713,0.54,5.114,1.618
	c1.686,1.297,2.852,3.295,3.5,5.994c0.213,0.936,0.396,1.988,0.536,3.158c0.144,1.17,0.217,2.223,0.217,3.159v0.216h1.943
	c1.475,0,2.571-0.234,3.291-0.701c1.045-0.685,1.567-1.963,1.567-3.834c0-2.051-0.468-4.049-1.403-5.992l-0.324-0.811
	c0-0.144,0.033-0.253,0.105-0.324c0.073-0.072,0.126-0.106,0.163-0.106l2.161-0.812l0.432-0.054c0.18,0,0.34,0.117,0.485,0.351
	c0.144,0.234,0.288,0.515,0.433,0.838c1.041,2.375,1.565,4.841,1.565,7.397c0,5.435-2.466,8.153-7.396,8.153h-12.259
	c-1.548,0-2.843,0.216-3.888,0.648l-1.511,0.754L146.846,194.32z M151.634,188.598h6.93v-0.217c0-3.888-0.681-6.624-2.042-8.207
	c-0.966-1.117-2.237-1.674-3.813-1.674c-1.469,0-2.596,0.432-3.384,1.296c-0.681,0.72-1.02,1.601-1.02,2.646
	c0,1.043,0.393,2.214,1.182,3.51c0.501,0.826,1.109,1.601,1.825,2.322L151.634,188.598z"/>
</svg>
