<?xml version="1.0" encoding="utf-8"?>
<!-- Generator: Adobe Illustrator 16.0.0, SVG Export Plug-In . SVG Version: 6.00 Build 0)  -->
<!DOCTYPE svg PUBLIC "-//W3C//DTD SVG 1.1//EN" "http://www.w3.org/Graphics/SVG/1.1/DTD/svg11.dtd">
<svg version="1.1" id="图层_1" xmlns="http://www.w3.org/2000/svg" xmlns:xlink="http://www.w3.org/1999/xlink" x="0px" y="0px"
	 width="320px" height="240px" viewBox="0 0 320 240" enable-background="new 0 0 320 240" xml:space="preserve">
<path vector-effect="non-scaling-stroke" fill="#FFFFFF" d="M65.09,149.9c0-0.719,0-1.397,0-2.039c0-0.799,0.037-1.598,0.12-2.399
	c0.079-0.799,0.198-1.598,0.36-2.399c0.96-9.601,3.6-18.84,7.92-27.722c4.32-8.879,10.32-17.399,18-25.56
	c7.519-8.16,16.801-14.28,27.841-18.36s23.839-6.12,38.4-6.12c14.719,0.479,27.318,2.399,37.8,5.761
	c10.479,3.359,18.92,8.32,25.32,14.879c6.397,6.402,11.641,13.122,15.721,20.161c4.08,7.042,6.998,14.399,8.76,22.08
	c0.318,0.961,0.561,1.92,0.721,2.881c0.157,0.961,0.318,1.842,0.479,2.641c0.157,0.959,0.319,1.92,0.479,2.88
	c0.157,0.96,0.318,1.92,0.479,2.88c0.319,1.92,0.518,3.803,0.601,5.641c0.078,1.842,0.198,3.642,0.359,5.399c0,0.161,0,0.281,0,0.36
	c0,0.082,0,0.201,0,0.359c0,0.161,0,0.401,0,0.721c0,0.16,0,0.322,0,0.479c0,0.161,0,0.323,0,0.48c0,0.16,0,0.281,0,0.359
	c0,0.082,0,0.202,0,0.359c0,13.283-2.279,25.163-6.84,35.641c-4.561,10.481-11.482,19.481-20.76,27
	c-9.283,7.682-19.164,13.361-29.642,17.041c-10.481,3.68-21.563,5.521-33.24,5.521c-0.323,0-0.642,0-0.96,0c-0.323,0-0.642,0-0.96,0
	c-0.323,0-0.683,0-1.08,0c-0.401,0-0.762,0-1.08,0c-2.082,0-4.122-0.041-6.12-0.119c-2.003-0.083-4.043-0.281-6.12-0.601
	c-2.082-0.162-4.163-0.479-6.24-0.961c-2.081-0.479-4.163-0.959-6.24-1.438c-8.003-1.761-15.683-4.802-23.04-9.121
	c-7.361-4.319-14.4-9.758-21.121-16.319c-6.72-6.56-11.723-14.679-15-24.359c-3.281-9.68-4.92-20.84-4.92-33.481v-0.479
	C65.09,151.305,65.09,150.622,65.09,149.9z M94.49,185.062c3.12,9.601,7.879,17.761,14.28,24.479
	c6.397,6.72,13.681,11.761,21.841,15.12c8.16,3.359,17.197,5.04,27.12,5.04c8.958,0,17.238-1.681,24.839-5.04
	c7.599-3.359,14.359-8.4,20.281-15.12c6.078-6.72,10.879-14.88,14.399-24.479c3.519-9.602,5.76-20.479,6.72-32.642
	c0-0.317,0-0.679,0-1.079c0-0.398,0-0.68,0-0.841c0-0.319,0-0.638,0-0.96c0-0.318,0-0.637,0-0.96c0-10.399-1.56-19.999-4.68-28.8
	c-3.12-8.799-7.8-16.719-14.04-23.762c-6.401-7.038-13.722-12.318-21.961-15.84c-8.242-3.518-17.399-5.279-27.479-5.279
	c-9.12,0-17.16,1.439-24.12,4.32c-6.961,2.879-12.841,7.121-17.641,12.72c-4.8,5.76-8.843,11.76-12.12,18
	c-3.281,6.24-5.88,12.72-7.801,19.44c-0.479,2.081-0.96,4.08-1.439,6c-0.48,1.92-0.882,3.84-1.2,5.761
	c-0.322,1.92-0.6,3.84-0.84,5.76c-0.24,1.92-0.521,3.762-0.84,5.521v-0.479C89.811,164.422,91.37,175.461,94.49,185.062z"/>
<path opacity="0.62" fill="#FFFFFF" enable-background="new    " d="M59.765,47.322c0.181-0.056,0.365-0.125,0.551-0.209
	c0.186-0.083,0.36-0.183,0.523-0.3c0.162-0.116,0.325-0.232,0.488-0.349c0.163-0.116,0.333-0.238,0.513-0.366
	c0.179-0.127,0.338-0.266,0.478-0.415c0.065-0.046,0.132-0.106,0.202-0.182c0.069-0.074,0.142-0.162,0.216-0.265
	c0.042-0.079,0.098-0.155,0.167-0.23c0.069-0.074,0.125-0.15,0.167-0.23l3.488,4.882c-0.288-1.022-0.432-2.014-0.429-2.975
	c0.002-0.96,0.173-1.856,0.513-2.688c0.307-0.809,0.69-1.562,1.151-2.26c0.46-0.697,0.98-1.327,1.562-1.89
	c0.065-0.046,0.13-0.093,0.195-0.14c0.065-0.046,0.118-0.108,0.161-0.188c0.065-0.046,0.129-0.093,0.195-0.14
	c0.065-0.046,0.129-0.093,0.195-0.14c0.065-0.046,0.129-0.092,0.195-0.139c0.065-0.046,0.118-0.109,0.16-0.188
	c0.065-0.046,0.13-0.093,0.195-0.14c0.065-0.046,0.13-0.092,0.195-0.139c1.432-1.023,2.919-1.728,4.46-2.117
	c1.541-0.388,3.121-0.447,4.739-0.178c1.618,0.271,3.227,1.026,4.827,2.267c1.6,1.243,3.19,2.969,4.771,5.182
	c1.07,1.498,1.884,3.067,2.441,4.708c0.558,1.642,0.856,3.383,0.893,5.224c0.07,1.819-0.314,3.482-1.154,4.991
	c-0.84,1.508-2.122,2.879-3.847,4.112c-0.033,0.023-0.065,0.047-0.098,0.07c-0.033,0.023-0.065,0.047-0.098,0.069
	c-0.033,0.023-0.057,0.041-0.073,0.053c-0.017,0.012-0.041,0.029-0.073,0.052c-0.033,0.023-0.065,0.047-0.098,0.07
	c-0.033,0.023-0.065,0.047-0.098,0.069c-0.033,0.023-0.057,0.041-0.073,0.053c-0.017,0.012-0.041,0.029-0.073,0.052
	c-1.042,0.744-2.037,1.295-2.985,1.653c-0.949,0.359-1.874,0.491-2.776,0.398c-0.879-0.06-1.722-0.208-2.528-0.443
	c-0.807-0.234-1.55-0.552-2.229-0.952L88.81,80.807c-0.089,0.014-0.18,0.042-0.272,0.084c-0.093,0.042-0.184,0.069-0.272,0.083
	c-0.121,0.037-0.229,0.077-0.321,0.119c-0.094,0.042-0.172,0.086-0.237,0.133c-0.154,0.06-0.32,0.155-0.499,0.282
	c-0.179,0.128-0.35,0.25-0.513,0.366c-0.163,0.117-0.334,0.239-0.513,0.366c-0.179,0.128-0.338,0.266-0.478,0.415
	c-0.141,0.149-0.265,0.3-0.376,0.454c-0.112,0.153-0.238,0.304-0.377,0.453L59.144,47.434
	C59.376,47.416,59.583,47.378,59.765,47.322z M71.075,55.981c0.035,0.049,0.064,0.09,0.087,0.122
	c0.023,0.033,0.047,0.066,0.07,0.098c0.023,0.033,0.047,0.066,0.07,0.098c0.187,0.261,0.401,0.562,0.646,0.903
	c0.245,0.341,0.521,0.696,0.833,1.063c0.302,0.423,0.631,0.815,0.987,1.175c0.356,0.361,0.761,0.722,1.217,1.084
	c0.604,0.503,1.258,0.92,1.963,1.252c0.705,0.333,1.482,0.613,2.333,0.84c0.828,0.196,1.713,0.214,2.658,0.056
	c0.943-0.158,1.962-0.504,3.055-1.039c0.032-0.023,0.057-0.041,0.073-0.052c0.016-0.012,0.041-0.029,0.073-0.053
	c0.032-0.022,0.065-0.046,0.098-0.069c0.032-0.023,0.065-0.046,0.098-0.07c0.023,0.033,0.051,0.037,0.083,0.014
	c0.032-0.023,0.065-0.046,0.098-0.07c0.032-0.022,0.057-0.04,0.073-0.052c0.016-0.011,0.041-0.029,0.073-0.052
	c0.944-0.674,1.647-1.496,2.11-2.466c0.462-0.968,0.68-2.058,0.652-3.268c-0.051-1.241-0.354-2.561-0.911-3.958
	c-0.556-1.397-1.392-2.877-2.508-4.439c-0.092-0.13-0.18-0.252-0.261-0.366c-0.082-0.114-0.168-0.236-0.262-0.366
	c-0.046-0.065-0.093-0.13-0.14-0.195c-0.046-0.065-0.092-0.13-0.139-0.195c-0.079-0.042-0.142-0.095-0.188-0.161
	c-0.046-0.064-0.093-0.129-0.14-0.195c-0.823-1.083-1.723-2.051-2.699-2.902c-0.977-0.851-1.985-1.592-3.027-2.225
	c-1.097-0.641-2.183-0.922-3.257-0.844c-1.074,0.08-2.181,0.525-3.32,1.339c-0.033,0.023-0.057,0.041-0.073,0.052
	c-0.017,0.012-0.041,0.029-0.073,0.052c-0.033,0.023-0.065,0.047-0.098,0.07c-0.033,0.023-0.082,0.058-0.146,0.104
	c-0.033,0.023-0.057,0.041-0.073,0.052c-0.017,0.012-0.041,0.029-0.073,0.052c-0.847,0.605-1.5,1.342-1.96,2.211
	c-0.46,0.87-0.716,1.888-0.767,3.055c-0.074,1.135,0.117,2.486,0.572,4.053c0.456,1.567,1.169,3.306,2.142,5.217l-0.07-0.098
	C71,55.876,71.04,55.932,71.075,55.981z"/>
<path opacity="0.62" fill="#FFFFFF" enable-background="new    " d="M107.242,23.648l-3.653,0.972
	c0.077-0.021,0.117-0.062,0.122-0.125c0.003-0.063,0.015-0.138,0.033-0.226c0.018-0.087,0.023-0.182,0.018-0.284
	c-0.006-0.102-0.02-0.191-0.041-0.269c-0.021-0.077-0.056-0.171-0.106-0.282c-0.051-0.11-0.11-0.219-0.18-0.325
	c-0.07-0.105-0.129-0.214-0.179-0.325c-0.051-0.11-0.13-0.214-0.238-0.309l3.622-1.088l-1.465-5.508l4.103-3.016l1.944,7.306
	l6.378-1.697c0.002,0.166-0.01,0.313-0.037,0.444s-0.05,0.242-0.068,0.329c-0.018,0.088-0.014,0.18,0.012,0.276
	c0.026,0.097,0.049,0.184,0.069,0.261c0.021,0.078,0.044,0.165,0.069,0.261c0.026,0.097,0.068,0.179,0.127,0.246
	c0.01,0.039,0.032,0.084,0.067,0.137c0.035,0.053,0.077,0.094,0.125,0.122c0.059,0.068,0.104,0.118,0.133,0.151
	c0.03,0.034,0.074,0.084,0.133,0.151l-6.409,1.581l4.01,15.076c0.083,0.31,0.157,0.59,0.224,0.841
	c0.067,0.252,0.142,0.532,0.224,0.841c0.072,0.271,0.153,0.54,0.245,0.804c0.091,0.266,0.192,0.529,0.303,0.789
	c0.272,0.714,0.576,1.389,0.911,2.024c0.334,0.636,0.714,1.207,1.139,1.715c0.435,0.547,0.955,0.905,1.559,1.075
	c0.604,0.171,1.273,0.158,2.008-0.038c0.193-0.051,0.401-0.127,0.622-0.228c0.222-0.1,0.462-0.206,0.723-0.316
	c0.25-0.149,0.507-0.311,0.771-0.485c0.264-0.173,0.53-0.378,0.798-0.616l0.447,1.681c-0.431,0.405-0.882,0.731-1.353,0.981
	c-0.472,0.25-0.924,0.494-1.357,0.734c-0.433,0.239-0.845,0.442-1.235,0.608c-0.391,0.166-0.78,0.3-1.166,0.403
	c-1.083,0.288-2.064,0.373-2.943,0.255c-0.88-0.117-1.678-0.432-2.394-0.946c-0.716-0.513-1.333-1.197-1.85-2.053
	c-0.518-0.856-0.935-1.882-1.254-3.081l-0.031-0.116L107.242,23.648z"/>
<path opacity="0.62" fill="#FFFFFF" enable-background="new    " d="M141.689,2.985c0.142-0.406,0.368-0.756,0.676-1.05
	c0.308-0.293,0.638-0.518,0.992-0.673c0.354-0.155,0.73-0.242,1.13-0.259c0.439-0.019,0.862,0.034,1.268,0.156
	c0.405,0.124,0.794,0.317,1.166,0.581c0.372,0.265,0.657,0.603,0.854,1.014c0.198,0.412,0.309,0.898,0.333,1.457
	c-0.016,0.562-0.125,1.057-0.326,1.485c-0.202,0.429-0.457,0.791-0.765,1.084c-0.308,0.294-0.638,0.518-0.992,0.673
	c-0.354,0.156-0.731,0.241-1.13,0.259c-0.4,0.017-0.793-0.036-1.178-0.16c-0.386-0.124-0.745-0.318-1.076-0.584
	c-0.373-0.304-0.649-0.663-0.827-1.076c-0.178-0.413-0.278-0.878-0.3-1.398l-0.005-0.12C141.487,3.855,141.546,3.392,141.689,2.985z
	 M142.434,14.724c0.042,0.079,0.085,0.127,0.126,0.145c0.041,0.019,0.081,0.026,0.121,0.024c0.002,0.041,0.022,0.059,0.062,0.058
	c0.04-0.002,0.08-0.003,0.12-0.005c0.082,0.037,0.162,0.053,0.242,0.05s0.159-0.007,0.24-0.01c0.161,0.033,0.312,0.067,0.455,0.101
	c0.141,0.034,0.292,0.047,0.452,0.041c0.159-0.007,0.309-0.013,0.449-0.019c0.14-0.006,0.29-0.013,0.45-0.02
	c0.2-0.008,0.409-0.018,0.629-0.027c0.219-0.009,0.428-0.038,0.627-0.087c0.198-0.048,0.405-0.107,0.623-0.177
	c0.216-0.069,0.405-0.127,0.563-0.174l1.251,29.133c-0.16,0.007-0.33,0.005-0.511-0.008c-0.181-0.012-0.373-0.034-0.574-0.066
	c-0.202-0.03-0.413-0.051-0.633-0.062c-0.221-0.01-0.431-0.012-0.63-0.003c-0.12,0.005-0.24,0.01-0.36,0.015
	c-0.12,0.005-0.219,0.03-0.297,0.073c-0.12,0.005-0.24,0.021-0.358,0.045c-0.119,0.026-0.239,0.041-0.358,0.045
	c-0.238,0.051-0.477,0.091-0.716,0.121c-0.239,0.031-0.478,0.05-0.718,0.061L142.434,14.724z"/>
<path opacity="0.62" fill="#FFFFFF" enable-background="new    " d="M177.482,14.728c0.059,0.097,0.113,0.172,0.162,0.225
	c0.049,0.053,0.092,0.084,0.131,0.094c0.067,0.058,0.131,0.094,0.188,0.108c0.058,0.014,0.106,0.026,0.146,0.036
	c0.106,0.068,0.213,0.135,0.32,0.202c0.107,0.068,0.219,0.115,0.336,0.144c0.116,0.028,0.232,0.057,0.351,0.085
	c0.116,0.029,0.231,0.057,0.35,0.086c0.193,0.047,0.388,0.095,0.582,0.143c0.194,0.048,0.394,0.076,0.599,0.084
	c0.203,0.009,0.43,0.013,0.677,0.012c0.247-0.001,0.491,0.007,0.735,0.025l-1.101,4.487c0.047-0.029,0.108-0.066,0.183-0.11
	c0.071-0.044,0.137-0.1,0.194-0.168c0.097-0.058,0.185-0.119,0.261-0.183c0.077-0.063,0.146-0.128,0.202-0.197
	c0.513-0.409,1.089-0.784,1.728-1.121c0.639-0.338,1.34-0.639,2.105-0.905c0.766-0.265,1.545-0.424,2.342-0.477
	c0.795-0.052,1.601,0.022,2.416,0.222c1.01,0.248,1.889,0.525,2.639,0.832c0.748,0.307,1.391,0.629,1.926,0.966
	c0.533,0.337,1.02,0.796,1.453,1.375c0.435,0.581,0.824,1.263,1.167,2.046c0.079,0.185,0.159,0.4,0.243,0.646
	c0.084,0.248,0.174,0.506,0.272,0.777c0.06,0.262,0.138,0.528,0.236,0.799c0.098,0.271,0.19,0.562,0.28,0.872
	c0.675-0.905,1.426-1.659,2.252-2.259c0.826-0.6,1.725-1.029,2.693-1.286s1.922-0.404,2.857-0.443
	c0.936-0.038,1.869,0.057,2.803,0.286c1.477,0.361,2.734,0.897,3.775,1.604c1.041,0.709,1.881,1.614,2.516,2.717
	c0.645,1.064,1.085,2.13,1.318,3.196c0.231,1.066,0.259,2.133,0.08,3.201c-0.01,0.04-0.021,0.079-0.028,0.117
	c-0.011,0.039-0.021,0.079-0.028,0.117c-0.01,0.039-0.02,0.078-0.029,0.117s-0.02,0.078-0.027,0.116
	c-0.01,0.039-0.02,0.079-0.028,0.117c-0.01,0.039-0.021,0.078-0.028,0.117c-0.01,0.039-0.017,0.068-0.021,0.087
	c-0.004,0.02-0.012,0.049-0.021,0.087c-0.047,0.029-0.076,0.064-0.086,0.102c-0.01,0.039-0.02,0.079-0.028,0.117
	c-0.011,0.039-0.017,0.068-0.021,0.087c-0.004,0.02-0.012,0.049-0.021,0.087l-4.697,19.173c-0.078-0.02-0.166-0.041-0.264-0.064
	c-0.096-0.023-0.18-0.064-0.246-0.123c-0.117-0.028-0.223-0.064-0.314-0.107s-0.178-0.075-0.255-0.094
	c-0.187-0.086-0.382-0.165-0.591-0.237c-0.209-0.071-0.41-0.131-0.604-0.179c-0.117-0.028-0.233-0.057-0.351-0.085
	c-0.117-0.028-0.219-0.032-0.306-0.013c-0.116-0.028-0.235-0.047-0.356-0.057c-0.122-0.008-0.239-0.028-0.356-0.056
	c-0.242-0.018-0.482-0.046-0.721-0.084c-0.238-0.037-0.475-0.085-0.707-0.143l4.612-18.823c0.237-0.971,0.282-1.908,0.133-2.81
	c-0.149-0.901-0.479-1.744-0.987-2.527c-0.518-0.745-1.117-1.364-1.799-1.861c-0.682-0.497-1.43-0.845-2.246-1.045
	c-0.039-0.009-0.078-0.019-0.115-0.028l-0.059-0.014c-0.787-0.152-1.578-0.16-2.373-0.025s-1.599,0.432-2.41,0.892
	c-0.813,0.46-1.531,1.118-2.151,1.975c-0.623,0.857-1.134,1.937-1.535,3.238l-4.354,17.774c-0.078-0.019-0.166-0.041-0.263-0.064
	c-0.098-0.024-0.181-0.064-0.248-0.123c-0.116-0.029-0.223-0.064-0.313-0.108c-0.092-0.043-0.178-0.074-0.254-0.093
	c-0.146-0.077-0.324-0.151-0.533-0.223c-0.209-0.071-0.41-0.131-0.604-0.179c-0.195-0.047-0.402-0.087-0.619-0.121
	c-0.22-0.032-0.432-0.053-0.635-0.062c-0.203-0.009-0.396-0.024-0.574-0.048c-0.181-0.023-0.367-0.059-0.562-0.106l4.612-18.823
	c0.229-0.932,0.263-1.829,0.104-2.692c-0.16-0.863-0.518-1.671-1.074-2.425s-1.176-1.379-1.856-1.876
	c-0.683-0.496-1.425-0.864-2.229-1.103c-0.039-0.009-0.08-0.019-0.117-0.028l-0.06-0.014c-0.776-0.191-1.569-0.23-2.379-0.12
	c-0.812,0.11-1.617,0.376-2.42,0.797c-0.804,0.42-1.496,1.064-2.079,1.931c-0.583,0.867-1.062,1.974-1.434,3.324l-4.354,17.774
	c-0.078-0.019-0.166-0.041-0.262-0.064c-0.099-0.024-0.181-0.064-0.248-0.123c-0.117-0.028-0.224-0.064-0.313-0.107
	c-0.093-0.043-0.178-0.075-0.255-0.094c-0.187-0.086-0.383-0.165-0.591-0.237c-0.21-0.071-0.411-0.131-0.604-0.179
	c-0.117-0.029-0.233-0.057-0.351-0.086c-0.116-0.028-0.219-0.032-0.308-0.013c-0.114-0.028-0.233-0.047-0.354-0.057
	c-0.122-0.008-0.239-0.028-0.356-0.056c-0.242-0.018-0.482-0.046-0.721-0.084c-0.238-0.037-0.475-0.085-0.707-0.143L177.482,14.728z
	"/>
<path opacity="0.62" fill="#FFFFFF" enable-background="new    " d="M230.879,56.672c0.75-0.395,1.562-0.649,2.436-0.765
	c0.873-0.116,1.854-0.037,2.938,0.236c1.086,0.273,2.263,0.755,3.532,1.447l6.594,4.014c0.35,0.271,0.71,0.456,1.081,0.556
	c0.371,0.1,0.726,0.116,1.062,0.048c0.365-0.098,0.707-0.245,1.025-0.439c0.318-0.195,0.613-0.439,0.887-0.731
	c0.055-0.059,0.104-0.11,0.144-0.154c0.041-0.044,0.089-0.095,0.146-0.153c0.023-0.086,0.063-0.158,0.118-0.217
	c0.056-0.058,0.108-0.117,0.164-0.175c0.078-0.144,0.166-0.282,0.263-0.413c0.092-0.131,0.166-0.282,0.217-0.454
	c0.289-0.604,0.492-1.263,0.608-1.974c0.117-0.712,0.147-1.449,0.093-2.211c-0.027-0.792-0.203-1.528-0.522-2.21
	c-0.321-0.682-0.789-1.31-1.403-1.882c-0.029-0.028-0.051-0.048-0.066-0.062c-0.014-0.014-0.051-0.048-0.108-0.103
	c-0.028-0.027-0.06-0.055-0.088-0.082c-0.029-0.027-0.06-0.055-0.088-0.082c-0.351-0.327-0.701-0.598-1.048-0.812
	c-0.348-0.214-0.707-0.385-1.079-0.514c-0.372-0.128-0.759-0.242-1.158-0.341c-0.399-0.099-0.826-0.168-1.28-0.21
	c-0.256-0.021-0.523-0.024-0.808-0.014c-0.283,0.01-0.565,0.02-0.849,0.03c-0.283,0.01-0.586,0.027-0.91,0.053
	c-0.324,0.025-0.643,0.058-0.951,0.097l-0.577-0.701l2.25-2.414c0.06,0.054,0.151,0.101,0.28,0.139
	c0.13,0.038,0.25,0.083,0.365,0.136c0.144,0.023,0.285,0.047,0.429,0.07c0.143,0.024,0.284,0.047,0.427,0.07
	c0.628,0.147,1.257,0.338,1.889,0.57c0.631,0.232,1.305,0.492,2.022,0.778c0.688,0.315,1.366,0.688,2.032,1.117
	c0.666,0.43,1.322,0.944,1.966,1.544c1.286,1.2,2.284,2.389,2.991,3.567c0.705,1.179,1.106,2.332,1.203,3.46
	c0.097,1.129-0.139,2.304-0.703,3.527c-0.565,1.223-1.448,2.478-2.648,3.765l-10.229,10.972c-0.272,0.293-0.463,0.541-0.567,0.742
	c-0.106,0.202-0.142,0.401-0.106,0.598c0.034,0.196,0.104,0.385,0.211,0.566c0.104,0.18,0.246,0.352,0.422,0.516
	c0.088,0.082,0.176,0.164,0.264,0.246s0.203,0.163,0.348,0.243c0.117,0.108,0.24,0.196,0.371,0.263
	c0.129,0.066,0.266,0.139,0.41,0.219l-0.857,0.921c-0.312,0.039-0.596,0.035-0.851-0.013c-0.257-0.047-0.5-0.124-0.729-0.229
	c-0.114-0.052-0.217-0.12-0.305-0.202s-0.189-0.149-0.305-0.201c-0.145-0.081-0.266-0.154-0.368-0.221
	c-0.101-0.067-0.196-0.142-0.284-0.224c-0.029-0.027-0.051-0.048-0.064-0.062s-0.035-0.006-0.063,0.023
	c-0.028-0.027-0.051-0.048-0.063-0.061c-0.016-0.014-0.037-0.035-0.066-0.062c-0.029-0.027-0.059-0.055-0.088-0.082
	c-0.029-0.027-0.051-0.048-0.066-0.061c-0.015-0.014-0.037-0.035-0.064-0.062c-0.438-0.409-0.814-0.856-1.131-1.34
	c-0.313-0.484-0.551-0.992-0.711-1.525c-0.161-0.588-0.196-1.139-0.101-1.652c0.095-0.513,0.29-0.987,0.587-1.421
	c-0.17,0.006-0.318,0.004-0.445-0.006c-0.129-0.009-0.248-0.012-0.36-0.008c-0.144-0.023-0.278-0.04-0.406-0.05
	c-0.128-0.009-0.247-0.012-0.36-0.008c-0.908-0.081-1.748-0.207-2.519-0.378s-1.473-0.416-2.104-0.733
	c-0.662-0.289-1.273-0.613-1.838-0.976c-0.565-0.362-1.066-0.748-1.506-1.157c-0.879-0.818-1.56-1.687-2.045-2.603
	c-0.484-0.917-0.789-1.896-0.91-2.939c-0.064-1.045,0.062-2.033,0.385-2.964c0.32-0.932,0.836-1.777,1.546-2.538l0.081-0.087
	C229.453,57.585,230.129,57.066,230.879,56.672z M246.824,64.645c-1.801-1.295-3.408-2.357-4.824-3.185s-2.666-1.364-3.75-1.609
	c-1.057-0.274-2.027-0.304-2.91-0.089c-0.885,0.215-1.682,0.703-2.391,1.464c-0.109,0.117-0.211,0.227-0.307,0.329
	c-0.097,0.103-0.17,0.211-0.223,0.326c-0.081,0.088-0.163,0.189-0.243,0.306c-0.081,0.116-0.161,0.247-0.241,0.391
	c-0.027,0.029-0.047,0.051-0.062,0.066s-0.021,0.05-0.019,0.106c-0.026,0.03-0.049,0.052-0.062,0.066
	c-0.015,0.015-0.034,0.037-0.062,0.066c-0.027,0.029-0.049,0.051-0.062,0.066c-0.014,0.015-0.006,0.035,0.023,0.062
	c-0.027,0.029-0.041,0.058-0.039,0.086c0,0.029,0,0.071,0.005,0.127c-0.101,0.399-0.148,0.819-0.147,1.257
	c0.002,0.439,0.068,0.939,0.201,1.5c0.16,0.532,0.383,1.042,0.669,1.526c0.286,0.486,0.663,0.946,1.132,1.383
	c0.233,0.218,0.475,0.415,0.721,0.59c0.248,0.176,0.515,0.343,0.805,0.503c0.287,0.16,0.596,0.297,0.927,0.413
	c0.329,0.116,0.679,0.209,1.05,0.281c0.284,0.047,0.59,0.085,0.918,0.117c0.325,0.031,0.674,0.054,1.041,0.069
	c0.17-0.006,0.34-0.012,0.51-0.018c0.17-0.006,0.367-0.013,0.595-0.021c0.194-0.035,0.394-0.07,0.59-0.106
	c0.196-0.035,0.394-0.07,0.591-0.105l0.081-0.088L246.824,64.645z"/>
</svg>
