<?xml version="1.0" encoding="utf-8"?>
<!-- Generator: Adobe Illustrator 16.0.0, SVG Export Plug-In . SVG Version: 6.00 Build 0)  -->
<!DOCTYPE svg PUBLIC "-//W3C//DTD SVG 1.1//EN" "http://www.w3.org/Graphics/SVG/1.1/DTD/svg11.dtd">
<svg version="1.1" id="图层_1" xmlns="http://www.w3.org/2000/svg" xmlns:xlink="http://www.w3.org/1999/xlink" x="0px" y="0px"
	 width="320px" height="205px" viewBox="0 0 320 205" enable-background="new 0 0 320 205" xml:space="preserve">
<path vector-effect="non-scaling-stroke" fill="#FFFFFF" d="M26.744,179.576V42.668H1.672v-22.84h74.164
	c15.489,0,27.783,1.204,36.885,3.61c9.1,2.408,16.625,7.482,22.578,15.227c5.949,7.745,8.926,17.391,8.926,28.939
	c0,24.15-12.546,39.332-37.636,45.544l32.254,66.428h22.313v22.839H121.61l-41.573-85.321H54.31v62.481h23.364v22.839H1.672v-22.839
	L26.744,179.576L26.744,179.576z M54.31,94.255h21.526c10.414,0,18.093-0.677,23.038-2.035c4.943-1.356,8.992-4.112,12.141-8.27
	c3.151-4.155,4.727-9.733,4.727-16.735c0-5.95-1.598-10.981-4.793-15.096c-3.195-4.112-7.132-6.715-11.812-7.81
	c-4.682-1.093-11.836-1.641-21.462-1.641H54.31V94.255z"/>
<path vector-effect="non-scaling-stroke" opacity="0.62" fill="#FFFFFF" enable-background="new    " d="M170.025,5.461
	c3.488-1.837,6.955-2.191,10.401-1.065c3.445,1.126,6.046,3.348,7.79,6.664c1.715,3.253,2.085,6.626,1.113,10.122
	c-0.975,3.496-3.234,6.178-6.783,8.047s-7.041,2.223-10.479,1.061c-3.436-1.163-6.014-3.378-7.737-6.647
	c-1.771-3.362-2.138-6.774-1.097-10.234C164.273,9.948,166.539,7.297,170.025,5.461z M172.51,10.147
	c-2.229,1.175-3.691,2.835-4.382,4.979c-0.692,2.144-0.511,4.22,0.549,6.228c1.073,2.039,2.693,3.368,4.861,3.985
	c2.167,0.619,4.351,0.349,6.549-0.811c2.218-1.167,3.672-2.829,4.365-4.984c0.696-2.156,0.519-4.23-0.529-6.223
	c-1.101-2.086-2.737-3.419-4.916-4.002C176.829,8.738,174.663,9.014,172.51,10.147z"/>
<path vector-effect="non-scaling-stroke" opacity="0.62" fill="#FFFFFF" enable-background="new    " d="M206.986,48.211
	l-8.547,4.502l-2.092-3.97c1.528-1.063,2.43-2.388,2.709-3.975c0.274-1.589,0.021-3.13-0.767-4.625
	c-1.05-1.993-2.604-3.239-4.672-3.743c-2.063-0.502-4.241-0.152-6.528,1.054c-2.133,1.124-3.701,2.706-4.704,4.745
	c-1.004,2.04-0.915,4.181,0.267,6.422c1.641,3.113,4.309,4.591,8.005,4.434l0.202,4.575c-5.563,0.346-9.68-2.009-12.346-7.067
	c-1.886-3.581-2.146-7.042-0.787-10.384c1.361-3.341,3.639-5.853,6.83-7.534c3.408-1.796,6.812-2.157,10.211-1.084
	c3.398,1.072,5.869,3.072,7.41,5.998c1.32,2.506,1.696,5.013,1.129,7.52l1.588-0.837L206.986,48.211z"/>
<path vector-effect="non-scaling-stroke" opacity="0.62" fill="#FFFFFF" enable-background="new    " d="M192.033,65.066
	l24.585-12.952l-2.142-4.063l3.946-2.078l4.478,8.499l-20.289,10.689l11.201,4.897l-1.981-3.759l3.666-1.931l6.58,12.491
	l-3.665,1.931l-1.82-3.456l-11.516-4.761l-3.744,12.145l2.091,3.969l-3.944,2.079l-3.062-5.813l5.379-17.361l-7.423,3.912
	l2.053,3.899l-3.946,2.079l-6.531-12.397l3.947-2.079L192.033,65.066z"/>
<path vector-effect="non-scaling-stroke" opacity="0.62" fill="#FFFFFF" enable-background="new    " d="M204.004,98.264
	l15.838-16.081l-1.451-2.755l3.945-2.08l5.02,9.527l-3.945,2.078l-1.559-2.959l-11.357,11.509l15.91-2.864l-1.297-2.465l3.945-2.078
	l5.756,10.927l-3.944,2.079l-1.312-2.484l-11.357,11.503l15.919-2.849l-1.64-3.11l3.945-2.08l5.375,10.203l-3.945,2.079
	l-1.709-3.246l-22.224,3.964l-2.199-4.177l13.613-13.793l-19.123,3.334L204.004,98.264z"/>
<path vector-effect="non-scaling-stroke" opacity="0.62" fill="#FFFFFF" enable-background="new    " d="M242.252,145.275
	l-10.011-19.006c-1.939,1.379-3.193,3.094-3.765,5.144c-0.569,2.051-0.291,4.144,0.83,6.274c1.633,3.099,4.168,4.894,7.609,5.387
	l0.34,4.833c-2.648-0.235-4.988-1.12-7.021-2.655c-2.031-1.535-3.635-3.415-4.805-5.641c-1.824-3.455-2.301-6.977-1.437-10.563
	s3.124-6.345,6.782-8.272c3.472-1.828,6.957-2.137,10.457-0.928c3.5,1.207,6.065,3.359,7.697,6.457
	c1.603,3.035,1.954,6.364,1.068,9.982C249.113,139.907,246.529,142.9,242.252,145.275z M243.064,139.001
	c1.422-1.147,2.424-2.729,3.004-4.744c0.578-2.015,0.355-3.996-0.67-5.94c-0.936-1.774-2.313-2.986-4.137-3.637
	c-1.826-0.65-3.729-0.631-5.714,0.057L243.064,139.001z"/>
<path vector-effect="non-scaling-stroke" opacity="0.62" fill="#FFFFFF" enable-background="new    " d="M239.574,155.307
	l24.585-12.953l-2.115-4.016l3.945-2.079l4.452,8.452l-28.53,15.031l1.819,3.456l-3.943,2.079l-6.275-11.908l3.947-2.079
	L239.574,155.307z"/>
<path vector-effect="non-scaling-stroke" opacity="0.62" fill="#FFFFFF" enable-background="new    " d="M246.93,169.27
	l24.586-12.953l-2.115-4.016l3.945-2.078l4.452,8.451l-28.532,15.031l1.822,3.456l-3.947,2.08l-6.271-11.908l3.944-2.078
	L246.93,169.27z"/>
</svg>
