<?xml version="1.0" encoding="utf-8"?>
<!-- Generator: Adobe Illustrator 16.0.0, SVG Export Plug-In . SVG Version: 6.00 Build 0)  -->
<!DOCTYPE svg PUBLIC "-//W3C//DTD SVG 1.1//EN" "http://www.w3.org/Graphics/SVG/1.1/DTD/svg11.dtd">
<svg version="1.1" id="图层_1" xmlns="http://www.w3.org/2000/svg" xmlns:xlink="http://www.w3.org/1999/xlink" x="0px" y="0px"
	 width="320px" height="205px" viewBox="0 0 320 205" enable-background="new 0 0 320 205" xml:space="preserve">
<path vector-effect="non-scaling-stroke" fill="#FFFFFF" d="M103.757,152.982h6.425c4.75,20.951,20.395,41.344,43.582,41.344
	c21.511,0,38.273-15.085,38.273-37.154c0-51.962-82.692-36.598-82.692-102.527c0-36.039,25.701-54.757,59.784-54.757
	c11.455,0,22.908,2.515,34.083,4.19l4.47,35.759h-6.426c-3.072-19.556-15.923-31.009-36.037-31.009
	c-21.233,0-33.524,15.365-33.524,35.758c0,51.962,86.043,37.714,86.043,101.967c0,36.319-32.686,56.713-65.648,56.713
	c-14.528,0-29.614-3.353-42.744-9.5L103.757,152.982z"/>
<path opacity="0.62" fill="#FFFFFF" enable-background="new    " d="M207.677,90.885c-1.772,0.468-3.72,0.952-5.413,0.048
	c-1.736-0.927-1.683-2.966-0.951-4.536c-2.965,0.758-5.569,1.053-8.195-0.349c-2.71-1.448-3.579-4.306-2.381-6.55
	c1.979-3.298,4.056-3.006,14.875-1.254l1.492-2.795c1.268-2.372,0.549-4.388-2.162-5.836c-1.862-0.995-3.699-0.614-4.801,1.246
	c-0.634,1.186-2.307,1.055-3.322,0.513c-0.635-0.339-0.469-0.958-0.31-1.254c1.197-2.244,3.669-2.286,7.447-2.227
	c1.89,0.029,2.926-0.179,4.534,0.68c1.906,1.018,4.511,3.987,3.268,6.316l-6.265,11.73c-0.927,1.736-0.696,2.731,0.235,3.228
	c0.551,0.294,1.32,0.379,1.951,0.117L207.677,90.885z M204.955,79.471c-2.612-0.307-8.639-2.272-10.334,0.904
	c-0.883,1.651-0.273,3.772,1.379,4.655c1.988,1.062,3.917,0.513,5.971,0.032L204.955,79.471z"/>
<path opacity="0.62" fill="#FFFFFF" enable-background="new    " d="M225.148,84.32c2.51,0.225,5.627,0.794,7.478,2.677
	c3.903,3.97,2.802,9.764-0.929,13.432c-4.484,4.407-12.198,5.529-17.01,0.635c-2.49-2.533-2.98-4.675-3.479-5.935l-1.797-0.253
	l-0.329-1.089c2.321-1.677,4.476-3.458,6.562-5.51l14.719-14.467c2.225-2.188,1.789-2.768,0.887-4.439l0.548-0.538
	c1.791,0.932,3.819,1.764,4.937,2.079c0.576,0.174,1.018,0.28,1.117,0.383c0.203,0.206,0.063,0.476-0.209,0.745L225.148,84.32z
	 M215.84,93.471c-1.301,1.279-2.281,4.665-0.025,6.958c3.601,3.663,8.707,1.67,11.754-1.325c3.695-3.633,4.019-9.468,1.394-12.138
	c-1.244-1.266-3.108-1.52-4.805-1.67L215.84,93.471z"/>
<path opacity="0.62" fill="#FFFFFF" enable-background="new    " d="M247.9,110.893c2.48,6.193,0.236,12.469-6.092,15.002
	c-5.748,2.303-12.425-0.297-14.709-6.002c-2.373-5.926-0.219-12.425,6.109-14.957C238.958,102.633,245.51,104.92,247.9,110.893z
	 M228.241,119.385c1.784,4.456,7.649,4.124,11.481,2.59c3.653-1.464,8.928-5.852,7.037-10.574c-1.767-4.411-7.632-4.08-11.464-2.545
	C231.645,110.318,226.368,114.706,228.241,119.385z"/>
<path opacity="0.62" fill="#FFFFFF" enable-background="new    " d="M247.301,132.665c1.776,0.004,2.258-0.522,3.174-2.776
	l0.911,0.002c0.669,2.064,1.288,4.033,2.292,6.34c-0.001,0.144-0.098,0.287-0.48,0.287l-3.119-0.007
	c1.963,2.74,3.59,5.095,3.583,8.312c-0.009,4.08-2.987,5.514-6.729,5.506l-12.384-0.025c-1.584-0.003-1.586,1.053-1.588,2.396
	l-0.003,0.863l-1.248-0.002c0.003-1.681,0.104-3.359,0.105-5.088c0.004-1.728-0.039-3.455-0.086-5.184l1.248,0.002l-0.002,0.863
	c-0.002,1.345-0.004,2.305,1.58,2.308l12.432,0.024c2.734,0.006,4.082-1.672,4.088-4.407c0.004-1.536-1.239-3.986-2.292-5.572
	l-14.207-0.028c-1.584-0.002-1.587,1.054-1.589,2.396l-0.002,0.863l-1.248-0.002c0.004-1.68,0.103-3.359,0.105-5.088
	c0.004-1.728-0.041-3.455-0.085-5.184l1.247,0.002l-0.001,0.864c-0.003,1.344-0.005,2.304,1.579,2.307L247.301,132.665z"/>
</svg>
