<?xml version="1.0" encoding="utf-8"?>
<!-- Generator: Adobe Illustrator 16.0.0, SVG Export Plug-In . SVG Version: 6.00 Build 0)  -->
<!DOCTYPE svg PUBLIC "-//W3C//DTD SVG 1.1//EN" "http://www.w3.org/Graphics/SVG/1.1/DTD/svg11.dtd">
<svg version="1.1" id="图层_1" xmlns="http://www.w3.org/2000/svg" xmlns:xlink="http://www.w3.org/1999/xlink" x="0px" y="0px"
	 width="320px" height="150px" viewBox="0 0 320 150" enable-background="new 0 0 320 150" xml:space="preserve">
<path vector-effect="non-scaling-stroke" fill="#FFFFFF" d="M80.015,61.373h183.851v28.285H80.015v59.643H56.342V1.423h23.673
	V61.373z"/>
<path vector-effect="non-scaling-stroke" opacity="0.62" fill="#FFFFFF" enable-background="new    " d="M92.967,5.803v-3.18
	c3-0.36,7.14-0.6,10.62-0.42v14.1c0,1.92-0.12,4.38-0.48,5.94l0.06,0.06c1.74-4.08,5.46-6.72,10.439-6.72
	c6.78,0,8.94,4.26,8.94,9.54v20.879h-5.4v-19.26c0-4.2-1.14-6.66-5.04-6.66c-4.92,0-8.52,4.98-8.52,11.58v14.339h-5.4V6.402
	C96.747,6.163,94.707,5.923,92.967,5.803z"/>
<path vector-effect="non-scaling-stroke" opacity="0.62" fill="#FFFFFF" enable-background="new    " d="M164.785,30.762h-19.499
	c-0.24,7.979,3.06,11.399,9.42,11.399c3.06,0,6.3-0.72,8.698-1.86l0.48,4.38c-2.88,1.2-6.36,1.86-10.08,1.86
	c-9.179,0-14.099-4.8-14.099-15.299c0-8.94,4.86-15.6,13.319-15.6c8.4,0,11.939,5.7,11.939,12.54
	C164.965,28.902,164.904,29.742,164.785,30.762z M152.786,19.602c-3.9,0-6.66,2.94-7.26,7.32h13.919
	C159.565,22.542,156.986,19.602,152.786,19.602z"/>
<path vector-effect="non-scaling-stroke" opacity="0.62" fill="#FFFFFF" enable-background="new    " d="M187.105,46.541
	c-2.221,0-4.439-0.18-6.301-0.54l0.182-4.8c1.859,0.6,4.26,1.02,6.539,1.02c3.959,0,6.66-1.8,6.66-4.56
	c0-6.66-13.859-2.58-13.859-13.079c0-5.04,4.14-8.94,11.939-8.94c1.799,0,3.898,0.24,5.698,0.6l-0.118,4.5
	c-1.861-0.6-4.021-0.96-6-0.96c-3.961,0-5.939,1.68-5.939,4.26c0,6.54,13.919,3,13.919,13.02
	C199.825,42.461,195.025,46.541,187.105,46.541z"/>
<path vector-effect="non-scaling-stroke" opacity="0.62" fill="#FFFFFF" enable-background="new    " d="M224.484,46.001h-5.398
	V20.382c-1.439-0.24-3.48-0.48-5.221-0.6v-3.18c3-0.36,7.141-0.6,10.619-0.42V46.001z M221.785,11.262c-1.979,0-3.6-1.56-3.6-3.54
	c0-1.92,1.619-3.48,3.6-3.48s3.6,1.5,3.6,3.48C225.385,9.643,223.766,11.262,221.785,11.262z"/>
<path vector-effect="non-scaling-stroke" opacity="0.62" fill="#FFFFFF" enable-background="new    " d="M248.965,46.541
	c-2.22,0-4.439-0.18-6.3-0.54l0.181-4.8c1.859,0.6,4.26,1.02,6.539,1.02c3.961,0,6.66-1.8,6.66-4.56
	c0-6.66-13.859-2.58-13.859-13.079c0-5.04,4.141-8.94,11.939-8.94c1.8,0,3.898,0.24,5.699,0.6l-0.119,4.5
	c-1.859-0.6-4.021-0.96-6-0.96c-3.96,0-5.939,1.68-5.939,4.26c0,6.54,13.92,3,13.92,13.02
	C261.686,42.461,256.885,46.541,248.965,46.541z"/>
</svg>
