<?xml version="1.0" encoding="utf-8"?><!DOCTYPE svg PUBLIC "-//W3C//DTD SVG 1.1//EN" "http://www.w3.org/Graphics/SVG/1.1/DTD/svg11.dtd"><svg version="1.1" id="图层_1" xmlns="http://www.w3.org/2000/svg" xmlns:xlink="http://www.w3.org/1999/xlink" x="0px" y="0px" width="320px" height="265px" viewBox="0 0 320 265" enable-background="new 0 0 320 265" xml:space="preserve"><path fill="#FFFFFF" storke="none" vector-effect="non-scaling-stroke" d="M73.918,63.5h171.72l1.632,51.605h-7.267c-3.56-16.212-8.082-26.767-13.568-31.659c-5.487-4.894-17.03-7.341-34.625-7.341 h-16.906v155.408c0,11.701,1.83,18.953,5.486,21.754c3.658,2.804,11.664,4.647,24.022,5.531v5.635h-88.528v-5.635 c12.85-0.982,20.857-3.097,24.022-6.346c3.164-3.246,4.746-11.411,4.746-24.498V76.105H127.6c-16.809,0-28.25,2.424-34.33,7.266 c-6.08,4.845-10.653,15.422-13.717,31.734h-7.414L73.918,63.5z"/><path fill="#FFFFFF" storke="none" d="M75.637,48.403c2.996-0.215,4.938-0.662,5.826-1.341c0.886-0.68,1.33-2.438,1.33-5.276V9.026 c0-2.708-0.444-4.453-1.33-5.232c-0.887-0.778-2.83-1.241-5.826-1.384V1.044h21.792V2.41c-2.998,0.144-4.939,0.606-5.826,1.384 c-0.887,0.779-1.33,2.524-1.33,5.232v32.76c0,2.838,0.443,4.597,1.33,5.276c0.887,0.679,2.829,1.126,5.826,1.341v1.367H75.637 V48.403z"/><path fill="#FFFFFF" storke="none" d="M99.801,48.403c3.044-0.312,4.998-1,5.861-2.066c0.862-1.066,1.294-3.54,1.294-7.42V9.021c0-2.66-0.419-4.39-1.258-5.193 c-0.84-0.802-2.745-1.275-5.718-1.418V1.044h14.521l16.913,36.684l16.5-36.684h14.638V2.41c-2.734,0.192-4.496,0.689-5.287,1.491 c-0.791,0.802-1.186,2.509-1.186,5.121v32.734c0,2.684,0.395,4.403,1.186,5.157c0.792,0.754,2.553,1.251,5.287,1.491v1.367h-20.605 v-1.367c2.972-0.24,4.824-0.773,5.555-1.599c0.732-0.827,1.097-2.797,1.097-5.911V7.834L129.739,49.77h-1.008L110.194,9.56v29.357 c0,4.024,0.586,6.647,1.762,7.869c0.766,0.792,2.481,1.329,5.143,1.617v1.367H99.801V48.403z"/><path fill="#FFFFFF" storke="none" d="M165.286,48.403c2.707-0.287,4.463-0.77,5.268-1.449c0.803-0.679,1.205-2.402,1.205-5.168V9.026 c0-2.614-0.396-4.32-1.188-5.124c-0.792-0.803-2.553-1.3-5.285-1.493V1.044h39.124l0.252,10.535h-1.87 c-0.624-3.245-1.559-5.344-2.805-6.299c-1.246-0.955-4.028-1.432-8.342-1.432h-10.027c-1.082,0-1.748,0.174-2.002,0.523 c-0.252,0.346-0.378,1.001-0.378,1.958v16.434h11.362c3.143,0,5.143-0.464,6.006-1.396c0.862-0.93,1.559-2.813,2.086-5.652h1.725 v17.009h-1.725c-0.552-2.853-1.258-4.741-2.122-5.664c-0.861-0.923-2.853-1.385-5.97-1.385h-11.362v18.233 c0,1.462,0.462,2.325,1.387,2.589c0.924,0.263,3.69,0.395,8.3,0.395c4.995,0,8.681-0.545,11.059-1.636 c2.376-1.09,4.51-3.732,6.404-7.929h2.051l-3.345,12.443h-39.808V48.403z"/><path fill="#FFFFFF" storke="none" d="M214.191,34.955c1.245,3.308,2.704,5.945,4.381,7.911c2.919,3.428,6.547,5.142,10.879,5.142 c2.347,0,4.375-0.742,6.086-2.229c1.712-1.486,2.568-3.56,2.568-6.22c0-2.398-0.861-4.483-2.585-6.258 c-1.123-1.127-3.493-2.817-7.104-5.071l-6.284-3.919c-1.889-1.199-3.397-2.41-4.524-3.632c-2.086-2.326-3.129-4.891-3.129-7.696 c0-3.716,1.235-6.808,3.705-9.277C220.65,1.234,223.924,0,228.001,0c1.676,0,3.698,0.414,6.06,1.241 c2.36,0.827,3.708,1.241,4.045,1.241c0.911,0,1.541-0.216,1.887-0.648c0.348-0.431,0.618-1.042,0.81-1.834h1.511l1.617,15.678 h-1.762c-1.197-4.722-3.123-8.018-5.771-9.888c-2.65-1.871-5.269-2.806-7.857-2.806c-2.014,0-3.771,0.594-5.27,1.78 c-1.497,1.187-2.247,2.836-2.247,4.945c0,1.894,0.575,3.512,1.723,4.854c1.148,1.368,2.932,2.794,5.352,4.281l6.469,3.992 c4.048,2.492,6.901,4.781,8.564,6.867c1.635,2.11,2.455,4.604,2.455,7.48c0,3.859-1.458,7.084-4.371,9.673 c-2.911,2.589-6.634,3.884-11.166,3.884c-2.275,0-4.655-0.433-7.138-1.294c-2.482-0.863-3.902-1.294-4.262-1.294 c-0.862,0-1.442,0.263-1.743,0.79c-0.301,0.528-0.497,1.091-0.593,1.69h-1.618l-2.194-15.678H214.191z"/></svg>