<?xml version="1.0" encoding="utf-8"?>
<!-- Generator: Adobe Illustrator 16.0.0, SVG Export Plug-In . SVG Version: 6.00 Build 0)  -->
<!DOCTYPE svg PUBLIC "-//W3C//DTD SVG 1.1//EN" "http://www.w3.org/Graphics/SVG/1.1/DTD/svg11.dtd">
<svg version="1.1" id="图层_1" xmlns="http://www.w3.org/2000/svg" xmlns:xlink="http://www.w3.org/1999/xlink" x="0px" y="0px"
	 width="320px" height="248px" viewBox="0 0 320 248" enable-background="new 0 0 320 248" xml:space="preserve">
<path vector-effect="non-scaling-stroke" fill="#FFFFFF" d="M193.939,245.105l-7.678-0.641c-13.757-1.279-16.955-0.96-22.395-0.96
	c-4.479,0-10.237,0.32-17.596,0.64c-11.836,0.32-14.716,0.641-24.313,1.92l4.159-11.197c7.358-0.32,10.237-0.641,13.117-1.6
	c2.559-0.959,4.479-2.879,5.119-6.078c0.64-3.52,1.6-11.197,1.6-19.195l1.919-134.685h-23.673c-3.199,0-7.038,0.32-12.477,0.959
	c-2.239,0.32-4.159,0.32-5.758,0.64c-2.879,0.32-5.119,1.279-7.038,2.239c-3.839,2.879-5.438,7.678-5.438,15.676
	c0,1.28,0,2.239,0.32,4.479h-9.917c1.919-14.396,2.56-20.475,3.199-30.712c0.32-5.438,0.64-9.278,0.64-12.797v-3.519h0.96
	c0.64,2.56,0.959,2.879,2.239,3.839c2.24,1.6,3.839,1.92,7.038,2.56c6.079,0.64,12.797,0.96,21.435,0.96h80.62
	c22.395,0,26.873-0.32,31.672-3.52c1.279-0.959,1.918-1.6,2.56-3.199h1.601c-0.642,3.199-0.642,3.839-1.28,8.638l-0.96,9.277
	c-0.959,10.237-1.6,15.676-1.6,29.112h-9.598c0.641-3.519,0.959-5.438,0.959-8.958c0-6.398-1.279-9.917-3.839-11.837
	c-4.158-2.879-10.877-3.839-31.991-3.839h-5.759l-10.237,0.32l-2.238,156.119c0,2.879,0.959,3.52,5.119,3.52h4.157l15.036-0.32
	l4.799-0.641L193.939,245.105z"/>
<path vector-effect="non-scaling-stroke" opacity="0.62" fill="#FFFFFF" enable-background="new    " d="M109.69,41.951
	c-2.633-0.208-3.672-0.277-5.612-0.277c-0.901,0-2.287,0.069-4.088,0.139c-2.91,0.069-3.534,0.139-5.474,0.416l0.762-2.286h0.208
	c2.01,0,2.564-0.693,2.633-3.118l0.208-14.135v-0.624c0-2.564,0-3.049-0.277-3.534c-0.277-0.554-0.762-0.762-1.594-0.762
	c-0.762,0-1.386,0.138-2.425,0.485l0.485-2.148l2.979-0.901c3.534-1.04,4.019-1.247,6.236-2.148l-0.693,3.395
	c-0.277,1.524-0.346,1.802-0.624,2.979l0.139,0.069c1.455-3.049,5.335-5.405,8.869-5.405c1.594,0,2.494,0.555,2.494,1.524
	c0,1.663-1.871,3.326-3.88,3.326c-0.347,0-0.762-0.069-1.455-0.208l-0.832-0.208c-0.139,0-0.416-0.069-0.624-0.069
	c-0.347-0.069-0.624-0.069-0.832-0.069c-0.901,0-1.594,0.346-2.633,1.316c-0.346,0.277-0.485,0.485-0.554,0.762
	c-0.069,0.069-0.069,0.208-0.069,0.346c0,0.208-0.069,0.762-0.069,1.663l-0.208,16.353c0,0.762,0.208,0.832,2.495,0.832
	c2.217,0,3.257-0.069,5.266-0.277L109.69,41.951z"/>
<path vector-effect="non-scaling-stroke" opacity="0.62" fill="#FFFFFF" enable-background="new    " d="M129.785,41.951
	c-2.633-0.208-4.088-0.277-6.097-0.277c-0.901,0-1.732,0-2.633,0.069c-1.732,0.069-2.563,0.139-4.573,0.347l0.832-2.217
	c2.217-0.139,2.633-0.624,2.703-3.188l0.277-13.096c0-0.693,0.069-1.317,0.069-2.01c0-3.534-0.346-4.227-2.079-4.227
	c-0.762,0-1.386,0.139-2.217,0.416l0.624-2.148l1.871-0.416c3.187-0.693,4.365-1.178,7.76-2.287
	c-1.108,2.009-1.247,3.603-1.386,11.433l-0.208,14.551c0,0.554,0.139,0.624,0.901,0.624l1.732,0.069l2.287-0.069l0.9-0.069
	L129.785,41.951z M123.479,7.444c-1.732,0-3.188-1.456-3.188-3.188c0-1.802,1.455-3.257,3.188-3.257s3.188,1.455,3.188,3.257
	C126.667,5.989,125.212,7.444,123.479,7.444z"/>
<path vector-effect="non-scaling-stroke" opacity="0.62" fill="#FFFFFF" enable-background="new    " d="M162.907,41.951
	c-1.179,0-2.079-0.069-2.633-0.069c-0.762,0-2.425-0.069-5.058-0.069h-0.762c-2.425,0-2.841,0-4.573,0.277l0.693-2.287h0.277
	c0.97,0,1.593-0.208,2.009-0.762c0.346-0.416,0.485-0.97,0.554-1.802c0.208-1.94,0.347-5.959,0.347-9.908
	c0-4.92-0.139-6.375-0.762-7.622c-0.762-1.386-2.287-2.079-4.573-2.079c-2.564,0-5.335,0.832-6.929,2.148l-0.346,18.5v0.693
	c0,0.485,0.346,0.693,1.247,0.693c0.485,0,0.97,0,1.455-0.069l2.841-0.208l-0.901,2.564c-2.633-0.208-3.534-0.208-6.097-0.208
	c-3.396,0-4.365,0.069-6.86,0.416l0.762-2.356l0.485-0.069c0.277,0,0.624,0,0.832-0.069c0.554-0.069,0.693-0.139,1.04-0.554
	c0.485-0.624,0.554-1.317,0.624-3.603l0.277-13.928v-1.316c0-1.247-0.138-1.663-0.346-2.009c-0.277-0.485-0.762-0.624-1.732-0.624
	c-0.762,0-1.247,0.069-2.287,0.346l0.555-2.079c3.187-0.832,4.504-1.247,9.146-2.702l-1.247,5.543h0.069
	c2.217-2.841,6.86-4.989,10.67-4.989c1.524,0,3.049,0.416,4.088,1.04c2.079,1.386,2.91,3.672,2.91,7.968
	c0,0.901-0.069,2.771-0.277,7.899l-0.208,4.919c0,0.347-0.069,1.04-0.069,2.079v0.693c0,1.247,0.069,1.247,2.217,1.247h0.832
	l2.702-0.139L162.907,41.951z"/>
<path vector-effect="non-scaling-stroke" opacity="0.62" fill="#FFFFFF" enable-background="new    " d="M179.814,41.951
	c-2.633-0.208-4.088-0.277-6.098-0.277c-0.9,0-1.73,0-2.633,0.069c-1.732,0.069-2.562,0.139-4.572,0.347l0.831-2.217
	c2.218-0.139,2.634-0.624,2.702-3.188l0.277-13.096c0-0.693,0.068-1.317,0.068-2.01c0-3.534-0.347-4.227-2.078-4.227
	c-0.763,0-1.387,0.139-2.219,0.416l0.624-2.148l1.871-0.416c3.188-0.693,4.365-1.178,7.761-2.287
	c-1.108,2.009-1.248,3.603-1.387,11.433l-0.207,14.551c0,0.554,0.139,0.624,0.9,0.624l1.732,0.069l2.285-0.069l0.901-0.069
	L179.814,41.951z M173.51,7.444c-1.73,0-3.187-1.456-3.187-3.188c0-1.802,1.454-3.257,3.187-3.257s3.188,1.455,3.188,3.257
	C176.697,5.989,175.242,7.444,173.51,7.444z"/>
<path vector-effect="non-scaling-stroke" opacity="0.62" fill="#FFFFFF" enable-background="new    " d="M183.211,17.145
	c1.107-0.762,1.455-1.039,2.841-2.148c2.427-2.009,3.882-3.326,5.337-4.919h1.038l-0.97,5.058h0.831h2.287
	c1.87,0,3.396,0,5.058-0.139c1.108-0.069,1.455-0.139,2.355-0.485c-0.623,1.732-1.108,2.425-2.078,2.979
	c-1.178,0.762-2.494,0.97-6.236,0.97c-0.691,0-1.246-0.069-2.562-0.069c-0.069,0.554-0.069,0.9-0.069,1.178
	c-0.069,0.901-0.14,2.287-0.208,4.227c-0.068,3.88-0.068,6.167-0.068,7.068c0,3.326,0.207,4.919,0.969,6.236
	c0.625,0.97,2.148,1.594,4.09,1.594c2.078,0,4.156-0.624,5.82-1.801c-0.416,1.386-0.693,2.009-1.109,2.563
	c-1.316,1.732-4.503,2.91-7.829,2.91c-2.356,0-4.019-0.485-5.128-1.594c-1.107-1.108-1.523-2.702-1.523-6.305
	c0-1.524,0.139-5.266,0.207-7.968c0.139-2.772,0.277-4.296,0.555-8.176H186.4h-0.691h-0.208h-1.108l-0.971,0.069h-0.555
	L183.211,17.145z"/>
<path vector-effect="non-scaling-stroke" opacity="0.62" fill="#FFFFFF" enable-background="new    " d="M207.811,24.351
	c-0.207,1.178-0.275,1.593-0.275,2.633c0,6.86,3.88,11.364,9.77,11.364c2.633,0,5.404-0.97,7.691-2.772
	c-0.416,1.594-0.9,2.633-1.803,3.534c-1.87,1.94-5.195,3.187-8.799,3.187c-6.93,0-11.363-4.919-11.363-12.611
	c0-8.8,6.027-15.867,13.441-15.867c5.127,0,8.314,3.672,8.314,9.493v0.347L207.811,24.351z M218.896,18.808
	c-0.83-1.386-2.217-2.079-3.811-2.079c-2.911,0-5.544,2.148-6.999,5.751l11.918-0.416C219.659,20.332,219.452,19.57,218.896,18.808z
	"/>
</svg>
