<?xml version="1.0" encoding="utf-8"?>
<!-- Generator: Adobe Illustrator 16.0.0, SVG Export Plug-In . SVG Version: 6.00 Build 0)  -->
<!DOCTYPE svg PUBLIC "-//W3C//DTD SVG 1.1//EN" "http://www.w3.org/Graphics/SVG/1.1/DTD/svg11.dtd">
<svg version="1.1" id="图层_1" xmlns="http://www.w3.org/2000/svg" xmlns:xlink="http://www.w3.org/1999/xlink" x="0px" y="0px"
	 width="320px" height="320px" viewBox="0 0 320 320" enable-background="new 0 0 320 320" xml:space="preserve">
<g>
	<g>
		<polyline vector-effect="non-scaling-stroke" fill="none" stroke="#FFFFFF" stroke-width="2" stroke-miterlimit="10" points="112.786,46.23 159.589,-0.573 
			253,92.838 		"/>
		<polyline vector-effect="non-scaling-stroke" fill="none" stroke="#FFFFFF" stroke-width="2" stroke-miterlimit="10" points="45,204.262 -0.123,159.14 93.968,65.049 
					"/>
		<polyline vector-effect="non-scaling-stroke" fill="none" stroke="#FFFFFF" stroke-width="2" stroke-miterlimit="10" points="204.438,274 159.589,318.85 64,223.333 
					"/>
		<polyline vector-effect="non-scaling-stroke" fill="none" stroke="#FFFFFF" stroke-width="2" stroke-miterlimit="10" points="272,111.754 319.3,159.14 224.427,254 		
			"/>
		<polyline vector-effect="non-scaling-stroke" fill="none" stroke="#FFFFFF" stroke-width="2" stroke-miterlimit="10" points="138.964,46.23 159.589,25.604 
			253,119.016 		"/>
		<polyline vector-effect="non-scaling-stroke" fill="none" stroke="#FFFFFF" stroke-width="2" stroke-miterlimit="10" points="45,178.084 26.055,159.14 
			120.146,65.048 		"/>
		<polyline vector-effect="non-scaling-stroke" fill="none" stroke="#FFFFFF" stroke-width="2" stroke-miterlimit="10" points="178.262,274 159.589,292.673 64,197.07 
					"/>
		<polyline vector-effect="non-scaling-stroke" fill="none" stroke="#FFFFFF" stroke-width="2" stroke-miterlimit="10" points="272,137.998 293.123,159.14 198.371,254 
					"/>
	</g>
	<g>
		<polyline vector-effect="non-scaling-stroke" fill="none" stroke="#FFFFFF" stroke-width="2" stroke-miterlimit="10" points="45,114 45,46 180,46 		"/>
		<polyline vector-effect="non-scaling-stroke" fill="none" stroke="#FFFFFF" stroke-width="2" stroke-miterlimit="10" points="115,274 45,274 45,140 		"/>
		<polyline vector-effect="non-scaling-stroke" fill="none" stroke="#FFFFFF" stroke-width="2" stroke-miterlimit="10" points="272,206 272,274 141,274 		"/>
		<polyline vector-effect="non-scaling-stroke" fill="none" stroke="#FFFFFF" stroke-width="2" stroke-miterlimit="10" points="206,46 272,46 272,180 		"/>
		<polyline vector-effect="non-scaling-stroke" fill="none" stroke="#FFFFFF" stroke-width="2" stroke-miterlimit="10" points="64,95 64,65 199,65 		"/>
		<polyline vector-effect="non-scaling-stroke" fill="none" stroke="#FFFFFF" stroke-width="2" stroke-miterlimit="10" points="95,254 64,254 64,121 		"/>
		<polyline vector-effect="non-scaling-stroke" fill="none" stroke="#FFFFFF" stroke-width="2" stroke-miterlimit="10" points="253,225 253,254 121,254 		"/>
		<polyline vector-effect="non-scaling-stroke" fill="none" stroke="#FFFFFF" stroke-width="2" stroke-miterlimit="10" points="225,65 253,65 253,199 		"/>
	</g>
</g>
<g>
	<path fill="#FFFFFF" d="M111.944,200.075h12.647v-77.937h-6.609c-1.52,0-3.229,0.134-5.127,0.399
		c-1.9,0.267-3.817,1.008-5.754,2.222c-1.937,1.216-3.799,3.133-5.583,5.754c-1.786,2.621-3.324,6.249-4.615,10.881H95.65v-20.852
		h69.277v20.852h-1.254c-1.293-4.632-2.831-8.261-4.615-10.881c-1.786-2.621-3.646-4.538-5.583-5.754
		c-1.937-1.214-3.856-1.955-5.754-2.222c-1.899-0.265-3.609-0.399-5.127-0.399h-6.608v77.937h12.647v1.595h-36.689V200.075z"/>
</g>
<g>
	<path fill="#FFFFFF" d="M164.762,200.077h12.647v-77.937h-12.647v-1.595h65.175v19.712h-1.254
		c-0.987-2.962-2.051-5.563-3.189-7.805c-1.14-2.24-2.507-4.139-4.103-5.697c-1.595-1.556-3.494-2.715-5.697-3.475
		c-2.204-0.758-4.861-1.14-7.976-1.14h-18.914v36.917h7.406c2.507,0,4.632-0.228,6.381-0.684c1.746-0.456,3.247-1.311,4.5-2.563
		c1.254-1.253,2.316-2.962,3.19-5.127c0.873-2.165,1.728-4.957,2.564-8.375h1.253v35.436h-1.253
		c-0.533-2.202-1.083-4.33-1.652-6.381c-0.57-2.051-1.367-3.874-2.393-5.469c-1.026-1.596-2.394-2.866-4.103-3.817
		c-1.709-0.949-3.931-1.424-6.665-1.424h-9.229v39.424h12.647v1.595h-36.689V200.077z"/>
</g>
</svg>
