<?xml version="1.0" encoding="utf-8"?>
<!-- Generator: Adobe Illustrator 16.0.0, SVG Export Plug-In . SVG Version: 6.00 Build 0)  -->
<!DOCTYPE svg PUBLIC "-//W3C//DTD SVG 1.1//EN" "http://www.w3.org/Graphics/SVG/1.1/DTD/svg11.dtd">
<svg version="1.1" id="图层_1" xmlns="http://www.w3.org/2000/svg" xmlns:xlink="http://www.w3.org/1999/xlink" x="0px" y="0px"
	 width="320px" height="230px" viewBox="0 0 320 230" enable-background="new 0 0 320 230" xml:space="preserve">
<path vector-effect="non-scaling-stroke" fill="#FFFFFF" d="M113.024,47.089v109.774c0,4.75,0.246,8.841,0.736,12.279
	c0.492,3.438,1.105,6.385,1.842,8.84c0.736,2.457,1.554,4.543,2.456,6.263c0.897,1.719,1.841,3.233,2.824,4.543
	c2.782,3.769,5.894,6.753,9.332,8.963c3.439,2.21,6.958,3.972,10.561,5.28c3.6,1.312,7.16,2.172,10.682,2.578
	c3.519,0.41,6.834,0.613,9.947,0.613c11.949,0,21.158-2.002,27.627-6.017c6.466-4.011,11.213-8.798,14.244-14.366
	c3.027-5.562,4.789-11.131,5.281-16.699c0.49-5.563,0.734-9.983,0.734-13.261V47.089h23.82v109.283c0,2.456-0.084,5.444-0.245,8.964
	c-0.164,3.521-0.697,7.367-1.597,11.542c-0.902,4.175-2.334,8.558-4.297,13.14c-1.966,4.584-4.752,9.086-8.351,13.506
	c-4.421,5.403-9.251,9.744-14.488,13.017c-5.243,3.276-10.522,5.771-15.841,7.49c-5.322,1.719-10.355,2.823-15.104,3.315
	c-4.752,0.491-8.681,0.735-11.787,0.735c-4.26,0-9.129-0.368-14.613-1.104c-5.487-0.736-11.093-2.129-16.822-4.176
	c-5.733-2.045-11.339-4.91-16.822-8.595c-5.487-3.685-10.276-8.472-14.367-14.366c-1.312-1.965-2.579-4.133-3.806-6.509
	c-1.228-2.371-2.333-5.28-3.316-8.717c-0.982-3.438-1.761-7.528-2.333-12.279c-0.576-4.747-0.86-10.476-0.86-17.19V47.089H113.024z"
	/>
<path opacity="0.62" fill="#FFFFFF" enable-background="new    " d="M89.304,15.244l-0.051-2.993h4.851l0.051,4.18
	c0.138-0.275,0.37-0.671,0.697-1.188c0.325-0.515,0.808-1.031,1.445-1.548c0.636-0.515,1.453-0.972,2.45-1.367
	c0.998-0.395,2.236-0.594,3.717-0.594c0.584,0,1.4,0.086,2.451,0.259c1.049,0.172,2.09,0.559,3.123,1.16
	c1.031,0.603,1.926,1.489,2.683,2.658c0.756,1.171,1.136,2.754,1.136,4.749v17.599h-4.955V21.695c0-0.859-0.085-1.668-0.258-2.426
	c-0.172-0.756-0.551-1.427-1.135-2.013c-0.619-0.584-1.333-1.023-2.141-1.316c-0.81-0.293-1.626-0.438-2.453-0.438
	c-0.895,0-1.747,0.155-2.554,0.464c-0.809,0.31-1.522,0.792-2.142,1.445c-0.62,0.653-1.118,1.462-1.497,2.425
	c-0.379,0.964-0.568,2.099-0.568,3.406v14.916h-4.851L89.304,15.244L89.304,15.244z"/>
<path opacity="0.62" fill="#FFFFFF" enable-background="new    " d="M120.219,1h5.832v5.315h-5.832V1z M120.734,12.251h4.851v25.908
	h-4.851V12.251z"/>
<path opacity="0.62" fill="#FFFFFF" enable-background="new    " d="M132.14,12.251h5.418l8.258,20.54l8.051-20.54h5.367
	L147.88,38.159h-4.902L132.14,12.251z"/>
<path opacity="0.62" fill="#FFFFFF" enable-background="new    " d="M167.698,26.082c-0.036,1.341,0.085,2.581,0.358,3.715
	c0.276,1.136,0.715,2.126,1.318,2.968c0.602,0.844,1.374,1.497,2.322,1.96c0.943,0.465,2.09,0.697,3.431,0.697
	c1.583,0,2.94-0.43,4.077-1.29c1.137-0.86,1.807-2.219,2.012-4.077h4.854c-0.069,0.653-0.225,1.471-0.465,2.451
	s-0.826,1.969-1.754,2.968c-0.275,0.31-0.654,0.671-1.137,1.083c-0.482,0.414-1.083,0.792-1.806,1.136
	c-0.724,0.344-1.573,0.636-2.554,0.876c-0.981,0.24-2.127,0.361-3.435,0.361c-4.095,0-7.122-1.187-9.083-3.561
	c-1.961-2.373-2.941-5.607-2.941-9.703c0-2.545,0.344-4.859,1.031-6.941c0.688-2.081,2.049-3.827,4.077-5.238
	c0.619-0.446,1.265-0.791,1.937-1.031c0.672-0.241,1.324-0.431,1.961-0.568c0.638-0.137,1.229-0.224,1.781-0.258
	c0.551-0.035,1.014-0.053,1.394-0.053c1.928,0,3.554,0.258,4.878,0.775c1.322,0.516,2.398,1.195,3.225,2.039
	c0.825,0.843,1.463,1.789,1.909,2.838c0.446,1.05,0.767,2.116,0.955,3.2c0.188,1.083,0.285,2.125,0.285,3.122
	c0,0.999,0,1.842,0,2.529h-18.631V26.082z M181.374,22.676c0-0.619-0.052-1.367-0.156-2.245c-0.101-0.878-0.368-1.711-0.797-2.504
	c-0.433-0.79-1.075-1.47-1.938-2.038c-0.858-0.567-2.028-0.852-3.508-0.852c-0.793,0-1.602,0.129-2.426,0.387
	c-0.826,0.259-1.574,0.688-2.244,1.29c-0.673,0.604-1.23,1.386-1.68,2.349c-0.445,0.963-0.688,2.167-0.723,3.612L181.374,22.676
	L181.374,22.676z"/>
<path opacity="0.62" fill="#FFFFFF" enable-background="new    " d="M193.71,17.515c0-0.894-0.024-1.78-0.077-2.658
	c-0.052-0.878-0.113-1.746-0.181-2.606h4.901l0.104,5.006c0.238-0.895,0.594-1.652,1.059-2.271c0.465-0.619,0.989-1.126,1.574-1.522
	s1.188-0.697,1.807-0.903c0.621-0.206,1.203-0.344,1.754-0.413c0.723-0.104,1.359-0.154,1.91-0.154s1.032,0.018,1.444,0.051v4.749
	c-0.207-0.069-0.516-0.138-0.93-0.206c-0.171-0.034-0.378-0.053-0.617-0.053c-0.242,0-0.5,0-0.774,0
	c-1.444,0-2.623,0.199-3.535,0.595c-0.912,0.395-1.625,0.946-2.143,1.651c-0.516,0.706-0.877,1.541-1.084,2.503
	c-0.206,0.963-0.311,1.995-0.311,3.096v13.78h-4.901V17.515L193.71,17.515z"/>
<path opacity="0.62" fill="#FFFFFF" enable-background="new    " d="M217.346,30.469c0,0.482,0.069,0.999,0.207,1.547
	c0.137,0.551,0.42,1.059,0.852,1.523c0.431,0.465,1.017,0.852,1.756,1.161c0.74,0.31,1.693,0.465,2.863,0.465
	c0.996,0,1.875-0.111,2.633-0.335c0.757-0.224,1.394-0.662,1.908-1.316c0.551-0.723,0.826-1.53,0.826-2.426
	c0-0.619-0.111-1.135-0.336-1.548c-0.225-0.412-0.568-0.748-1.031-1.006c-0.465-0.258-1.058-0.49-1.779-0.697
	c-0.723-0.206-1.567-0.414-2.529-0.62c-1.343-0.309-2.625-0.636-3.846-0.98c-1.221-0.343-2.279-0.791-3.174-1.341
	c-0.896-0.551-1.608-1.256-2.143-2.116c-0.533-0.861-0.801-1.962-0.801-3.304c0-1.169,0.25-2.244,0.75-3.225
	c0.497-0.981,1.186-1.806,2.062-2.478c0.879-0.67,1.937-1.195,3.175-1.574c1.237-0.378,2.614-0.567,4.129-0.567
	c0.825,0,1.702,0.068,2.632,0.206c0.93,0.139,1.823,0.361,2.684,0.671c0.858,0.311,1.652,0.723,2.375,1.239
	c0.724,0.516,1.271,1.153,1.65,1.91c0.344,0.722,0.542,1.393,0.594,2.012c0.053,0.619,0.077,1.205,0.077,1.755h-4.954
	c0.034-0.963-0.121-1.729-0.465-2.296c-0.344-0.568-0.781-0.999-1.316-1.29c-0.533-0.293-1.092-0.474-1.678-0.542
	c-0.584-0.07-1.1-0.104-1.546-0.104c-0.173,0-0.544,0.017-1.11,0.051c-0.566,0.035-1.16,0.173-1.779,0.414
	c-0.619,0.241-1.172,0.611-1.652,1.109c-0.482,0.499-0.723,1.212-0.723,2.141c0,0.586,0.129,1.076,0.388,1.471
	c0.257,0.396,0.575,0.714,0.955,0.955c0.378,0.241,0.774,0.422,1.187,0.542c0.412,0.121,0.791,0.232,1.135,0.335
	c1.791,0.412,3.261,0.766,4.414,1.058c1.15,0.293,2.098,0.568,2.838,0.825c0.74,0.259,1.332,0.518,1.781,0.775
	c0.447,0.258,0.858,0.56,1.236,0.903c0.723,0.688,1.232,1.453,1.523,2.296c0.292,0.843,0.439,1.678,0.439,2.504
	c0,1.444-0.346,2.753-1.033,3.922c-0.688,1.17-1.514,2.047-2.477,2.631c-1.137,0.69-2.365,1.153-3.691,1.395
	c-1.326,0.24-2.656,0.361-3.998,0.361c-1.311,0-2.571-0.147-3.795-0.438c-1.222-0.293-2.306-0.766-3.25-1.42
	c-0.947-0.653-1.693-1.521-2.246-2.606c-0.551-1.084-0.824-2.4-0.824-3.948H217.346z"/>
</svg>
