<?xml version="1.0" encoding="utf-8"?>
<!-- Generator: Adobe Illustrator 16.0.0, SVG Export Plug-In . SVG Version: 6.00 Build 0)  -->
<!DOCTYPE svg PUBLIC "-//W3C//DTD SVG 1.1//EN" "http://www.w3.org/Graphics/SVG/1.1/DTD/svg11.dtd">
<svg version="1.1" id="图层_1" xmlns="http://www.w3.org/2000/svg" xmlns:xlink="http://www.w3.org/1999/xlink" x="0px" y="0px"
	 width="320px" height="188px" viewBox="0 0 320 188" enable-background="new 0 0 320 188" xml:space="preserve">
<path vector-effect="non-scaling-stroke" fill="#FFFFFF" d="M53.657,8.062h-18.91V2h72.729v6.062H82.749l35.878,122.426h0.485
	L154.023,8.062H130.75V2h78.061v6.062h-24.727l31.759,122.426h0.483L256.812,8.062H233.54V2h51.396v6.062H264.57l-57.695,170.185
	h-5.334L159.113,19.455h-0.483l-47.275,158.791h-5.333L53.657,8.062z"/>
<path vector-effect="non-scaling-stroke" opacity="0.62" fill="#FFFFFF" enable-background="new    " d="M286.798,29.095
	c-0.182,2.055-0.251,3.631-0.243,5.594l1.942,0.658c3.194,1.082,5.465,1.232,6.5-1.823c0.784-2.315,0.624-4.124-2.433-5.159
	c-1.806-0.611-2.17-1.509-1.623-3.129c0.408-1.204,1.045-2.02,2.435-1.549c4.442,1.505,4.081,6.387,2.825,10.09
	c-2.398,7.082-5.785,7.483-9.627,6.183l-11.758-3.983c-3.52-1.191-3.926-0.143-4.803,2.449l-1.158-0.392l1.192-3.519
	c0.878-2.593,1.72-4.319,4.749-4.119c-2.167-2.746-2.186-5.281-1.15-8.336c1.631-4.814,4.648-5.495,8.86-4.068
	c3.843,1.301,4.974,3.903,4.581,8.105L286.798,29.095z M285.453,28.95c0.105-3.061-0.613-4.285-4.688-5.665
	c-2.824-0.956-5.496-1.293-6.343,1.206c-1.364,4.027,3.242,7.188,6.39,8.253l4.443,1.505L285.453,28.95z"/>
<path vector-effect="non-scaling-stroke" opacity="0.62" fill="#FFFFFF" enable-background="new    " d="M301.248,51.327
	l-2.948,8.702l-31.94-10.819l-1.348,3.98l-1.156-0.392l4.297-12.682l1.154,0.392l-1.348,3.98l30.782,10.427l1.349-3.98
	L301.248,51.327z"/>
<path vector-effect="non-scaling-stroke" opacity="0.62" fill="#FFFFFF" enable-background="new    " d="M293.882,69.265
	l1.161-3.426l1.156,0.392l-2.76,8.147l-13.793-4.672l-0.033,0.092c2.447,2.377,2.697,4.99,1.662,8.045
	c-1.662,4.907-6.342,7.604-14.859,4.719c-6.295-2.132-10.986-6.715-8.822-13.103c0.971-2.87,3.254-4.883,6.006-5.086l0.031-0.093
	l-3.287-1.113l1.6-4.721L293.882,69.265z M270.109,66.321c-4.026-1.364-9.106-2.208-10.689,2.467
	c-1.271,3.75,2.071,6.532,8.689,8.774c5.926,2.007,10.759,2.665,12.231-1.688c0.706-2.083,0.416-5.947-6.434-8.268L270.109,66.321z"
	/>
<path vector-effect="non-scaling-stroke" opacity="0.62" fill="#FFFFFF" enable-background="new    " d="M263.829,96.904
	c-0.181,2.056-0.25,3.632-0.244,5.595l1.942,0.658c3.195,1.082,5.466,1.231,6.5-1.824c0.783-2.313,0.623-4.124-2.432-5.158
	c-1.806-0.61-2.171-1.509-1.621-3.13c0.406-1.203,1.043-2.019,2.432-1.549c4.443,1.505,4.08,6.387,2.826,10.09
	c-2.398,7.082-5.785,7.482-9.627,6.184l-11.758-3.983c-3.52-1.19-3.926-0.144-4.804,2.448l-1.155-0.392l1.19-3.518
	c0.878-2.595,1.72-4.32,4.75-4.12c-2.167-2.746-2.187-5.282-1.151-8.336c1.633-4.814,4.648-5.495,8.86-4.069
	c3.842,1.302,4.973,3.904,4.581,8.105L263.829,96.904z M262.482,96.76c0.107-3.061-0.611-4.284-4.686-5.664
	c-2.824-0.957-5.495-1.294-6.343,1.206c-1.364,4.027,3.241,7.188,6.389,8.253l4.444,1.506L262.482,96.76z"/>
<path vector-effect="non-scaling-stroke" opacity="0.62" fill="#FFFFFF" enable-background="new    " d="M243.199,128.102
	l0.031-0.094c-2.662-2.501-3.479-5.874-2.194-9.67c1.537-4.536,4.202-6.161,8.832-4.593l15.554,5.269l1.238-3.656l1.158,0.392
	l-2.838,8.378l-16.479-5.583c-2.546-0.862-5.249-1.261-6.347,1.979c-1.459,4.305,1.879,7.859,6.184,9.317l12.035,4.077l1.427-4.212
	l1.157,0.392l-3.025,8.935l-21.524-7.291l-1.349,3.979l-1.158-0.392l2.949-8.702L243.199,128.102z"/>
<path vector-effect="non-scaling-stroke" opacity="0.62" fill="#FFFFFF" enable-background="new    " d="M245.512,161.184
	c2.549,0.862,5.25,1.262,6.363-2.024c1.38-4.073-1.957-7.629-6.262-9.087l-12.035-4.077l-1.239,3.657l-1.157-0.393l4.188-12.359
	l1.156,0.392l-1.348,3.981l20.366,6.897l1.349-3.979l1.158,0.393l-2.947,8.703l-4.353-1.475l-0.032,0.093
	c2.662,2.501,3.48,5.874,2.195,9.67c-1.27,3.75-3.798,5.575-7.396,4.771l-0.029,0.094c3.062,2.533,3.646,6.291,2.503,9.67
	c-1.536,4.537-4.202,6.162-8.831,4.596l-15.555-5.27l-1.237,3.657l-1.157-0.392l4.076-12.036l1.158,0.392l-1.239,3.657l15.321,5.19
	c2.547,0.861,5.248,1.262,6.269-1.747c1.474-4.351-2.141-8-6.444-9.459l-11.758-3.982l-1.24,3.657l-1.155-0.393l4.075-12.035
	l1.156,0.392l-1.236,3.657L245.512,161.184z"/>
</svg>
