<?xml version="1.0" encoding="utf-8"?>
<!-- Generator: Adobe Illustrator 16.0.0, SVG Export Plug-In . SVG Version: 6.00 Build 0)  -->
<!DOCTYPE svg PUBLIC "-//W3C//DTD SVG 1.1//EN" "http://www.w3.org/Graphics/SVG/1.1/DTD/svg11.dtd">
<svg version="1.1" id="图层_1" xmlns="http://www.w3.org/2000/svg" xmlns:xlink="http://www.w3.org/1999/xlink" x="0px" y="0px"
	 width="320px" height="205px" viewBox="0 0 320 205" enable-background="new 0 0 320 205" xml:space="preserve">
<path vector-effect="non-scaling-stroke" fill="#FFFFFF" d="M286.896,142.818c-1.531,7.397-4.021,14.798-7.461,22.188
	c-3.443,7.396-7.725,14.026-12.818,19.896c-5.107,5.863-10.846,10.074-17.219,12.627c-6.379,2.549-13.396,3.824-21.045,3.824
	c-12.502,0-26.342-1.598-41.521-4.779c-15.183-3.191-31.06-6.696-47.638-10.521c-16.584-3.828-33.737-7.465-51.464-10.906
	c-17.732-3.44-35.394-5.422-52.995-5.934c-1.279-0.25-2.104-0.955-2.486-2.104c-0.384-1.148,0.441-1.725,2.486-1.725
	c6.63,0,12.496-2.162,17.601-6.506c4.077-3.312,10.008-8.285,17.792-14.924c7.779-6.629,16.646-14.217,26.593-22.77
	c9.948-8.545,20.472-17.66,31.568-27.354c11.097-9.691,21.809-19.323,32.14-28.888c10.333-9.566,19.958-18.75,28.884-27.55
	c8.93-8.801,16.07-16.512,21.433-23.15c2.038-2.545,3.062-4.334,3.062-5.355c0-2.04-2.557-3.061-7.649-3.061
	c-13.013,0-26.599,0.323-40.752,0.956c-14.157,0.64-26.466,1.596-36.924,2.87c-7.143,0.766-13.523,2.046-19.131,3.827
	c-5.613,1.787-9.948,4.083-13.008,6.888c-2.297,2.294-3.444,2.044-3.444-0.767c2.038-4.334,3.826-7.651,5.356-9.948
	c1.53-2.295,3.954-3.695,7.271-4.208c8.669-0.766,18.809-1.338,30.419-1.722c11.604-0.382,23.274-0.699,35.011-0.956
	c6.891,0,14.604-0.126,23.146-0.383c8.545-0.25,16.646-0.442,24.302-0.574c7.649-0.125,14.403-0.25,20.274-0.383
	c5.863-0.125,9.563-0.19,11.098-0.19c2.55,0,3.764,0.638,3.639,1.912c-0.133,1.28-1.089,2.046-2.87,2.297
	c-1.276,0.257-2.678,0.956-4.209,2.105c-1.526,1.148-2.938,2.36-4.21,3.634c-5.871,4.849-12.814,10.906-20.854,18.175
	c-8.035,7.269-16.836,15.18-26.399,23.723c-9.563,8.549-19.517,17.542-29.847,26.976c-10.333,9.441-20.47,18.94-30.417,28.503
	c-9.949,9.563-19.581,18.813-28.89,27.74c-9.315,8.937-17.666,17.219-25.063,24.871c-1.278,1.786-1.912,3.062-1.912,3.825
	c0,1.53,1.147,2.679,3.444,3.444c5.606,1.529,13.583,3.502,23.914,5.931c10.331,2.42,21.81,4.782,34.437,7.079
	c12.626,2.294,25.692,4.208,39.22,5.738c13.521,1.531,26.271,2.298,38.266,2.298c19.896,0,35.013-4.085,45.346-12.245
	c10.331-8.159,17.148-19.896,20.471-35.202c0.51-1.53,1.146-2.296,1.913-2.296C286.514,139.758,286.896,140.779,286.896,142.818z"/>
<path opacity="0.62" fill="#FFFFFF" enable-background="new    " d="M191.652,113.725c-1.207,1.467-2.527,2.946-3.967,4.438
	c-1.441,1.493-2.896,2.841-4.359,4.045c-1.467,1.206-2.92,2.174-4.359,2.907c-1.441,0.732-2.763,1.1-3.967,1.1
	c-1.048,0-1.781-0.263-2.199-0.785c-0.42-0.521-0.629-1.179-0.629-1.964c0-0.733,0.223-1.715,0.668-2.944
	c0.444-1.229,1.112-2.554,2.003-3.967c-0.682,0.891-1.467,1.834-2.356,2.827c-0.891,0.995-1.807,1.897-2.75,2.709
	c-0.938,0.812-1.885,1.493-2.821,2.042c-0.938,0.549-1.78,0.825-2.519,0.825c-1.101,0-1.646-0.55-1.646-1.649
	c0-1.203,0.474-2.722,1.414-4.556c0.938-1.833,2.212-3.601,3.812-5.302s3.418-3.167,5.459-4.399
	c2.043-1.229,4.162-1.846,6.359-1.846c0.266-0.522,0.498-0.89,0.707-1.101c0.209-0.209,0.419-0.365,0.629-0.476l2.199-0.628
	l0.152,0.078c-0.262,0.268-0.51,0.589-0.742,0.979c-0.235,0.396-0.484,0.803-0.745,1.223c0.261,0,0.649,0.023,1.178,0.074
	c0.521,0.057,0.915,0.104,1.181,0.156c0.264,0.104,0.396,0.235,0.396,0.396c0,0.158-0.078,0.23-0.233,0.23
	c-0.312-0.104-0.785-0.184-1.412-0.23c-0.629-0.057-1.103-0.079-1.414-0.079c-2.41,4.241-4.18,7.604-5.305,10.094
	c-1.127,2.487-1.688,4.333-1.688,5.538c0,0.477,0.119,0.864,0.354,1.184c0.235,0.312,0.721,0.471,1.453,0.471
	c0.837,0,1.833-0.303,2.982-0.903c1.147-0.601,2.384-1.438,3.688-2.513c1.312-1.073,2.657-2.317,4.048-3.731
	c1.389-1.413,2.709-2.907,3.969-4.477c0.104-0.157,0.209-0.196,0.312-0.119C191.6,113.451,191.652,113.568,191.652,113.725z
	 M179.398,107.756c-1.78,0-3.482,0.628-5.105,1.885c-1.624,1.258-3.062,2.737-4.32,4.438c-1.257,1.703-2.266,3.392-3.021,5.067
	c-0.763,1.677-1.142,2.9-1.142,3.688c0,0.419,0.154,0.628,0.475,0.628c0.312,0,0.798-0.209,1.449-0.628
	c0.654-0.418,1.398-0.979,2.238-1.688c0.838-0.707,1.688-1.53,2.553-2.479c0.865-0.939,1.662-1.964,2.396-3.062
	c0.838-1.256,1.649-2.592,2.437-4.006c0.789-1.414,1.492-2.67,2.121-3.771L179.398,107.756z"/>
<path opacity="0.62" fill="#FFFFFF" enable-background="new    " d="M209.875,112.154c-2.775,3.51-5.747,6.115-8.915,7.816
	c-3.169,1.696-6.479,2.939-9.937,3.729c-1.205,0.263-2.252,0.471-3.146,0.628c-0.895,0.155-1.777,0.312-2.671,0.472
	c-1.521,2.564-2.958,5.118-4.317,7.658c-1.359,2.539-2.726,5.064-4.084,7.58c-1.988,3.718-3.8,7.229-5.424,10.523
	c-1.617,3.299-3.378,6.567-5.263,9.814c-0.365,0.629-0.864,1.111-1.492,1.453c-0.629,0.34-1.356,0.645-2.194,0.9
	c-0.843,0.266-1.812,0.521-2.911,0.785c-1.1,0.262-2.305,0.629-3.613,1.104c-0.314,0.152-0.497,0.115-0.551-0.118
	c-0.051-0.231,0.079-0.403,0.394-0.51c1.362-0.523,2.514-1.035,3.456-1.532c0.942-0.498,1.795-1.088,2.557-1.771
	c0.76-0.68,1.479-1.488,2.156-2.438c0.686-0.939,1.471-2.117,2.354-3.531c0.896-1.47,1.979-3.287,3.265-5.459
	c1.28-2.177,2.71-4.57,4.276-7.188c1.57-2.619,3.225-5.407,4.949-8.365c1.729-2.959,3.481-5.932,5.264-8.915
	c-0.312-0.104-0.473-0.394-0.473-0.862c0-0.312,0.17-0.498,0.51-0.552c0.346-0.052,0.615-0.104,0.826-0.155l3.611-5.893
	c1.678-2.725,3.352-5.551,5.025-8.482c1.677-2.933,3.404-5.55,5.187-7.854c0.209-0.208,0.497-0.366,0.863-0.471
	c0.104-0.051,0.313-0.104,0.629-0.157c0.312-0.052,0.628-0.104,0.94-0.157c0.312-0.052,0.603-0.091,0.861-0.118
	c0.264-0.026,0.422-0.04,0.475-0.04c0.156,0,0.231,0.053,0.231,0.157c0,0.157-0.104,0.341-0.312,0.549
	c-1.101,0.996-2.068,1.952-2.905,2.868c-0.838,0.917-1.624,1.809-2.354,2.67c-0.73,0.864-1.429,1.742-2.082,2.635
	c-0.651,0.891-1.318,1.856-2.004,2.902c0.522-0.574,1.104-1.18,1.729-1.811c0.629-0.627,1.257-1.201,1.888-1.729
	c0.627-0.521,1.258-0.954,1.887-1.296c0.629-0.339,1.203-0.512,1.729-0.512c0.521,0,0.955,0.156,1.296,0.474
	c0.343,0.313,0.513,0.84,0.513,1.569c0,0.522-0.225,1.336-0.666,2.438c-0.447,1.103-1.207,2.329-2.279,3.688
	c-1.07,1.361-2.502,2.775-4.277,4.242c-1.781,1.467-4.006,2.826-6.68,4.084c1.414-0.156,2.996-0.404,4.756-0.746
	c1.753-0.342,3.57-0.916,5.459-1.729c1.885-0.812,3.771-1.911,5.652-3.301c1.888-1.389,3.664-3.184,5.342-5.381
	c0.055-0.104,0.146-0.146,0.273-0.118C209.809,111.75,209.875,111.893,209.875,112.154z M198.878,110.111
	c0-0.207-0.039-0.471-0.116-0.785c-0.08-0.314-0.354-0.471-0.826-0.471c-0.263,0-0.642,0.145-1.139,0.432
	c-0.499,0.289-1.061,0.681-1.688,1.178c-0.629,0.498-1.284,1.113-1.965,1.846c-0.687,0.734-1.336,1.545-1.963,2.438
	c-0.896,1.257-1.762,2.604-2.598,4.045c-0.839,1.438-1.677,2.92-2.516,4.438c1.729-0.475,3.359-1.256,4.906-2.354
	c1.543-1.101,2.906-2.306,4.084-3.614c1.184-1.309,2.106-2.617,2.789-3.927C198.537,112.023,198.878,110.95,198.878,110.111z"/>
<path opacity="0.62" fill="#FFFFFF" enable-background="new    " d="M253.393,68.324c0,0.21-0.039,0.577-0.119,1.1
	c-0.078,0.524-0.151,1.1-0.229,1.728c-0.079,0.628-0.155,1.257-0.229,1.885c-0.08,0.628-0.119,1.1-0.119,1.414
	c-0.104,0.105-0.234,0.157-0.396,0.157c-0.104,0-0.21-0.051-0.312-0.157c0.104-0.419,0.171-0.786,0.193-1.1
	c0.026-0.314,0.039-0.628,0.039-0.942c0-1.047-0.432-1.858-1.296-2.435c-0.86-0.575-2.081-0.864-3.649-0.864
	c-1.103,0-2.236,0.184-3.416,0.55c-1.182,0.367-2.387,1.021-3.611,1.964c-1.229,0.942-2.516,2.199-3.852,3.77
	s-2.711,3.562-4.123,5.97c-0.785,1.362-1.758,3.116-2.905,5.263c-1.151,2.147-2.386,4.438-3.691,6.873
	c-1.312,2.435-2.616,4.922-3.927,7.462c-1.312,2.541-2.516,4.909-3.613,7.108c0.473,0,1.26-0.012,2.354-0.039
	c1.103-0.025,2.228-0.04,3.378-0.04c1.147,0,2.2,0,3.146,0c0.993,0,1.647,0,1.965,0c0.262,0.157,0.34,0.42,0.233,0.786
	c-0.21,0-0.731,0-1.571,0c-0.838,0-1.832,0.014-2.982,0.039c-1.148,0.021-2.344,0.053-3.572,0.078
	c-1.229,0.022-2.346,0.041-3.34,0.041c-1.729,3.352-3.549,6.715-5.459,10.094c-1.91,3.377-3.819,6.637-5.73,9.779
	c-1.912,3.143-3.797,6.061-5.652,8.758s-3.572,5.062-5.146,7.104c-3.928,5.025-7.657,9.28-11.19,12.77
	c-3.534,3.479-6.896,6.31-10.094,8.479c-3.193,2.178-6.19,3.743-8.994,4.713c-2.802,0.973-5.458,1.453-7.974,1.453
	c-0.733,0-1.532-0.079-2.396-0.23c-0.864-0.158-1.701-0.477-2.514-0.941c-0.812-0.473-1.532-1.141-2.161-2.003
	c-0.628-0.864-1.1-2.004-1.413-3.418c0-0.421,0.053-0.603,0.156-0.55c0.105,0.053,0.211,0.209,0.314,0.472
	c0.053,0.364,0.263,0.853,0.629,1.453c0.367,0.602,0.903,1.188,1.61,1.768c0.707,0.576,1.584,1.062,2.631,1.453
	c1.048,0.394,2.305,0.589,3.771,0.589c2.356-0.053,4.908-0.482,7.658-1.296c2.748-0.812,5.646-2.237,8.683-4.278
	c3.035-2.043,6.219-4.781,9.543-8.209c3.324-3.432,6.771-7.766,10.328-13c1.887-2.772,3.76-5.748,5.614-8.916
	c1.856-3.168,3.666-6.312,5.42-9.427c1.757-3.114,3.403-6.112,4.948-8.993c1.546-2.88,2.943-5.394,4.203-7.541
	c-2.252,0.156-4.032,0.313-5.344,0.471c-1.312,0.158-2.354,0.406-3.144,0.746c-0.785,0.346-1.399,0.84-1.849,1.494
	c-0.442,0.653-0.957,1.562-1.529,2.709l-0.234-0.08c0.729-1.729,1.465-3.021,2.198-3.889c0.729-0.863,1.414-1.398,2.043-1.609
	c0.418-0.104,0.979-0.209,1.688-0.312s1.465-0.186,2.275-0.232c0.812-0.055,1.608-0.104,2.396-0.156
	c0.783-0.051,1.467-0.078,2.041-0.078c2.617-4.816,5.146-9.28,7.58-13.392c2.438-4.11,4.961-8.13,7.58-12.057
	c1.412-2.146,2.935-4.228,4.56-6.245c1.622-2.015,3.271-3.796,4.944-5.341c1.678-1.544,3.341-2.775,4.988-3.692
	c1.646-0.916,3.229-1.375,4.752-1.375c1.047,0,1.963,0.235,2.748,0.707C252.999,67.146,253.393,67.696,253.393,68.324z"/>
<path opacity="0.62" fill="#FFFFFF" enable-background="new    " d="M239.566,114.197c-1.258,1.623-2.698,3.168-4.32,4.634
	c-1.624,1.466-3.116,2.646-4.479,3.534c-1.047,0.682-2.119,1.205-3.225,1.57c-1.104,0.362-2.098,0.551-2.98,0.551
	c-0.313,0-0.686-0.025-1.104-0.079c-0.42-0.052-0.799-0.183-1.146-0.394c-0.34-0.209-0.627-0.484-0.858-0.824
	c-0.229-0.34-0.354-0.799-0.354-1.375c0-0.686,0.262-1.61,0.784-2.789c0.521-1.178,1.14-2.396,1.847-3.652s1.414-2.461,2.121-3.613
	c0.707-1.15,1.271-2.015,1.688-2.592c0.265-0.418,0.72-0.771,1.374-1.061c0.65-0.287,1.086-0.437,1.296-0.437
	c0.265,0,0.396,0.079,0.396,0.236c0,0.104-0.039,0.262-0.114,0.471c-0.079,0.21-0.173,0.367-0.275,0.476
	c-0.681,1.049-1.375,2.201-2.082,3.457c-0.704,1.258-1.349,2.475-1.924,3.647c-0.577,1.183-1.035,2.271-1.375,3.265
	c-0.341,0.99-0.51,1.776-0.51,2.354c0,0.628,0.169,1.088,0.51,1.375c0.34,0.289,0.798,0.435,1.375,0.435
	c1.047,0,2.199-0.354,3.456-1.062s2.5-1.559,3.729-2.555c1.229-0.994,2.369-2.041,3.416-3.146c1.049-1.104,1.857-2.042,2.438-2.828
	c0.265-0.261,0.403-0.321,0.435-0.192C239.71,113.739,239.67,113.936,239.566,114.197z M236.032,96.681
	c0,0.628-0.275,1.256-0.826,1.885c-0.549,0.628-1.165,0.943-1.845,0.943c-0.629,0-0.943-0.314-0.943-0.943
	c0-0.68,0.248-1.335,0.747-1.963c0.496-0.628,1.11-0.943,1.845-0.943C235.689,95.659,236.032,96,236.032,96.681z"/>
<path opacity="0.62" fill="#FFFFFF" enable-background="new    " d="M260.225,114.354c-0.938,1.312-2.029,2.633-3.259,3.967
	c-1.231,1.341-2.541,2.527-3.928,3.574c-1.39,1.049-2.802,1.912-4.242,2.592c-1.44,0.686-2.841,1.021-4.202,1.021
	c-0.629,0-1.205-0.092-1.728-0.275c-0.524-0.184-0.786-0.642-0.786-1.375c0-0.729,0.262-1.662,0.786-2.787
	c0.522-1.127,1.139-2.312,1.846-3.569s1.438-2.54,2.199-3.854c0.759-1.309,1.375-2.514,1.846-3.608
	c0.104-0.267,0.118-0.481,0.039-0.667c-0.078-0.188-0.249-0.197-0.51-0.04c-0.577,0.362-1.257,0.858-2.043,1.487
	c-0.785,0.634-1.584,1.302-2.396,2.009c-0.812,0.702-1.604,1.427-2.356,2.155c-0.761,0.733-1.375,1.394-1.847,1.963
	c-0.838,1.312-1.562,2.52-2.16,3.613c-0.604,1.104-1.348,2.332-2.237,3.691c-0.211,0.314-0.367,0.473-0.472,0.473
	c-0.264,0-0.485-0.289-0.668-0.865c-0.188-0.57-0.274-0.938-0.274-1.1c0-0.472,0.326-1.111,0.981-1.924
	c0.648-0.812,1.375-1.715,2.16-2.71c0.836-1.675,1.695-3.442,2.592-5.302c0.891-1.858,1.646-3.521,2.272-4.988
	c0.157-0.262,0.396-0.393,0.707-0.393s0.604,0.131,0.864,0.393c0.261,0.264,0.396,0.55,0.396,0.864c0,0.21-0.385,0.93-1.144,2.159
	c-0.763,1.229-1.507,2.66-2.236,4.281c0.991-0.895,2.082-1.832,3.261-2.826c1.18-0.996,2.306-1.912,3.379-2.75
	c1.072-0.838,2.017-1.533,2.828-2.082c0.812-0.551,1.373-0.826,1.688-0.826c0.208,0,0.402,0.119,0.589,0.354
	c0.185,0.236,0.272,0.459,0.272,0.668c0,0.21-0.131,0.524-0.393,0.942c-0.576,0.839-1.283,1.913-2.121,3.221
	c-0.838,1.312-1.641,2.658-2.396,4.045c-0.761,1.39-1.399,2.712-1.925,3.968c-0.523,1.256-0.785,2.252-0.785,2.984
	c0,0.628,0.13,1.061,0.395,1.296c0.262,0.236,0.682,0.354,1.258,0.354c0.893,0,1.938-0.34,3.146-1.021
	c1.204-0.68,2.444-1.531,3.729-2.553c1.281-1.021,2.5-2.16,3.649-3.417c1.149-1.259,2.097-2.461,2.828-3.614
	c0.104-0.156,0.263-0.195,0.472-0.115C260.514,113.844,260.486,114.04,260.225,114.354z"/>
<path opacity="0.62" fill="#FFFFFF" enable-background="new    " d="M282.141,111.133c-0.892,1.206-1.979,2.292-3.261,3.26
	c-1.284,0.976-2.737,1.453-4.358,1.453c-0.892,0-1.769-0.222-2.633-0.666c-0.863-0.445-1.559-1.113-2.08-2.004
	c-0.367,0.838-0.838,1.795-1.414,2.867c-0.576,1.074-1.258,2.148-2.043,3.221c-0.785,1.074-1.662,2.057-2.631,2.945
	c-0.971,0.891-2.004,1.625-3.104,2.2c-0.942,0.418-1.729,0.628-2.355,0.628c-1.886,0-2.828-0.837-2.828-2.514
	c0-0.943,0.17-1.912,0.512-2.906c0.345-0.994,0.771-1.965,1.3-2.906c0.521-0.943,1.087-1.833,1.688-2.671
	c0.604-0.836,1.161-1.519,1.688-2.042c1.1-1.204,2.354-2.225,3.771-3.062c1.411-0.838,2.932-1.336,4.555-1.492
	c0.104-0.418,0.266-0.898,0.476-1.448c0.208-0.556,0.575-0.876,1.103-0.979c0.264-0.055,0.521-0.104,0.783-0.154
	c0.264-0.057,0.496-0.131,0.707-0.236c0.156-0.104,0.312-0.118,0.476-0.039c0.157,0.078,0.184,0.223,0.077,0.432
	c-0.366,0.578-0.646,1.312-0.823,2.199c-0.188,0.891-0.274,1.859-0.274,2.906c0,1.466,0.274,2.671,0.825,3.613
	c0.55,0.938,1.505,1.414,2.865,1.414c1.358,0,2.594-0.445,3.688-1.336c1.103-0.895,2.019-1.857,2.748-2.906
	c0.104-0.26,0.275-0.34,0.514-0.235C282.336,110.768,282.35,110.925,282.141,111.133z M269.18,111.684
	c-0.104-0.472-0.185-1.021-0.236-1.646c-0.053-0.628-0.072-1.229-0.072-1.812c0-0.262-0.104-0.394-0.312-0.394
	c-0.574,0-1.181,0.194-1.81,0.589c-0.628,0.395-1.257,0.917-1.89,1.571c-0.629,0.653-1.256,1.399-1.885,2.237
	c-0.63,0.838-1.205,1.703-1.729,2.594c-0.683,1.15-1.296,2.396-1.847,3.73s-0.799,2.604-0.748,3.81c0,0.366,0.062,0.706,0.197,1.021
	c0.131,0.314,0.434,0.473,0.898,0.473c0.895,0,1.854-0.498,2.906-1.489c1.048-0.994,2.041-2.16,2.979-3.495
	c0.942-1.335,1.74-2.688,2.396-4.045C268.693,113.464,269.074,112.417,269.18,111.684z"/>
</svg>
