<?xml version="1.0" encoding="utf-8"?>
<!-- Generator: Adobe Illustrator 16.0.0, SVG Export Plug-In . SVG Version: 6.00 Build 0)  -->
<!DOCTYPE svg PUBLIC "-//W3C//DTD SVG 1.1//EN" "http://www.w3.org/Graphics/SVG/1.1/DTD/svg11.dtd">
<svg version="1.1" id="图层_1" xmlns="http://www.w3.org/2000/svg" xmlns:xlink="http://www.w3.org/1999/xlink" x="0px" y="0px"
	 width="100px" height="100px" viewBox="0 0 100 100" enable-background="new 0 0 100 100" xml:space="preserve">
<path fill="#063338" d="M99,79.892C99,90.445,90.445,99,79.892,99H19.108C8.555,99,0,90.445,0,79.892V19.108
	C0,8.555,8.555,0,19.108,0h60.783C90.445,0,99,8.555,99,19.108V79.892z"/>
<g>
	<path fill="#FFFFFF" d="M33.882,26.388c1.941,0,5.105,0.144,7.191,0.144c2.805,0,7.767-0.288,9.493-0.288
		c1.652,0,2.229,0.359,2.229,0.863c0,0.647-0.863,1.151-1.582,1.367c-3.883,0.935-4.458,2.013-4.53,2.876
		c-0.503,3.596-0.503,10.859-0.503,21.503c0,4.961,0.072,10.859,0.359,13.303c0.144,1.727,2.302,2.734,2.589,2.805
		c1.367,0.217,3.955,0.361,5.969,0.361c1.582,0,3.883-0.072,5.178-0.361c0.648-0.143,1.439-0.287,2.23-1.006
		c0.934-0.936,2.66-2.59,4.529-5.609c0.648-0.936,1.439-1.438,1.941-1.438c0.504,0,0.576,0.791,0.289,1.941
		c-0.791,2.516-1.871,6.473-2.303,8.486c-0.143,0.43-1.365,1.221-1.652,1.221c-1.08,0-7.48-0.502-22.079-0.502
		c-3.452,0-8.414,0.432-10.644,0.432c-1.294,0-2.157-0.289-2.157-0.936c0-0.504,0.647-1.15,1.798-1.367
		c3.956-0.719,4.603-2.014,4.962-5.178c0.144-1.797,0.36-9.348,0.36-19.704c0-6.976,0-9.781-0.072-12.154
		c-0.072-2.445-0.432-3.596-3.74-4.387c-1.366-0.36-2.014-0.863-2.014-1.367C31.724,26.676,32.587,26.388,33.882,26.388z"/>
</g>
</svg>
