<?xml version="1.0" encoding="utf-8"?>
<!-- Generator: Adobe Illustrator 16.0.0, SVG Export Plug-In . SVG Version: 6.00 Build 0)  -->
<!DOCTYPE svg PUBLIC "-//W3C//DTD SVG 1.1//EN" "http://www.w3.org/Graphics/SVG/1.1/DTD/svg11.dtd">
<svg version="1.1" id="图层_1" xmlns="http://www.w3.org/2000/svg" xmlns:xlink="http://www.w3.org/1999/xlink" x="0px" y="0px"
	 width="87.585px" height="87.585px" viewBox="0 0 87.585 87.585" enable-background="new 0 0 87.585 87.585" xml:space="preserve">
<g>
	<path fill="#FFFFFF" d="M43.792,0C19.607,0,0,19.605,0,43.792C0,67.98,19.607,87.585,43.792,87.585
		c24.187,0,43.793-19.604,43.793-43.793C87.585,19.605,67.979,0,43.792,0z M43.792,85.908c-23.259,0-42.116-18.854-42.116-42.116
		c0-23.26,18.857-42.116,42.116-42.116c23.261,0,42.116,18.855,42.116,42.116C85.91,67.054,67.053,85.908,43.792,85.908z"/>
	<path fill="#FFFFFF" d="M43.792,3.125c-22.459,0-40.667,18.207-40.667,40.667c0,22.461,18.208,40.668,40.667,40.668
		c22.461,0,40.668-18.207,40.668-40.668C84.46,21.332,66.253,3.125,43.792,3.125z M43.792,82.902
		c-21.6,0-39.111-17.509-39.111-39.11s17.511-39.11,39.111-39.11c21.601,0,39.11,17.51,39.11,39.11
		C82.903,65.394,65.393,82.902,43.792,82.902z"/>
	<path fill="#FFFFFF" d="M43.792,6.126c-20.802,0-37.667,16.863-37.667,37.666c0,20.804,16.864,37.667,37.667,37.667
		s37.667-16.861,37.667-37.667C81.458,22.989,64.595,6.126,43.792,6.126z M43.99,48.776h-0.216l-2.426,11.392
		c-0.132,0.527-0.22,1.013-0.22,1.494c0,0.924,0.352,1.627,1.583,1.627c0.308,0,0.791,0,1.143-0.131
		c-1.23,3.779-3.077,4.043-4.572,4.043c-3.121,0-4.484-2.066-4.484-4.836c0-0.703,0.088-1.449,0.264-2.197l3.025-13.821
		l2.657-12.961l6.49-0.877L46.4,36.429h0.003l-1.332,6.253l-0.95,4.472c4.386-0.352,7.675-6.14,7.675-10.788
		c0-3.245-1.58-5.964-5.438-5.964C39.253,30.401,35,34.392,35,41.058c0,2.236,0.57,2.588,0.614,2.982
		c-3.026,0-4.692-1.097-4.692-4.254c0-5.833,8.069-11.402,15.393-11.402c7.192,0,10.351,4.123,10.351,8.64
		C56.664,42.593,51.882,48.776,43.99,48.776z"/>
</g>
</svg>
