<?xml version="1.0" encoding="utf-8"?>
<!-- Generator: Adobe Illustrator 16.0.0, SVG Export Plug-In . SVG Version: 6.00 Build 0)  -->
<!DOCTYPE svg PUBLIC "-//W3C//DTD SVG 1.1//EN" "http://www.w3.org/Graphics/SVG/1.1/DTD/svg11.dtd">
<svg version="1.1" id="图层_1" xmlns="http://www.w3.org/2000/svg" xmlns:xlink="http://www.w3.org/1999/xlink" x="0px" y="0px"
	 width="201px" height="109.584px" viewBox="0 0 201 109.584" enable-background="new 0 0 201 109.584" xml:space="preserve">
<g opacity="0.62">
	<path fill="#FFFFFF" d="M16.689,7.701c0,0.049-0.098,0.049-0.073,0c0.883-2.847-0.123-5.768-3.756-5.768h-0.442
		c-0.123,0-0.171,0.024-0.196,0.074l-5.351,17.06c-0.025,0.049,0,0.074,0.122,0.074h2.209c0.05,0,0.025,0.097-0.048,0.097H1.079
		c-0.074,0-0.025-0.097,0.024-0.097h2.208c0.099,0,0.147-0.025,0.172-0.074l5.376-17.06c0.023-0.049-0.025-0.074-0.124-0.074H8.27
		c-3.46,0-6.309,2.822-7.167,5.547c-0.024,0.049-0.123,0.049-0.099,0l1.743-5.573c0.025-0.048,0.05-0.073,0.099-0.073h15.636
		c0.049,0,0.049,0.025,0.049,0.073L16.689,7.701z"/>
	<path fill="#FFFFFF" d="M23.439,10.205c-2.161,0.663-2.725,1.792-5.449,8.419c-2.185,5.376-3.658,8.371-6.431,8.371
		c-1.424,0-2.603-0.736-2.603-2.013c0-0.884,0.564-1.423,1.276-1.423c0.762,0,1.081,0.417,1.081,0.932
		c0,0.589-0.491,1.105-0.491,1.498c0,0.54,0.221,0.908,0.737,0.908c2.479,0,3.854-2.479,5.498-6.333l-1.129-6.554
		c-0.664-3.683-1.3-4.149-1.866-4.149c-0.441,0-0.785,0.222-1.325,1.179l-0.074-0.074c0.884-1.644,1.743-2.406,2.773-2.406
		c1.301,0,1.939,1.326,2.503,4.198l0.786,3.804c2.013-4.909,3.289-8.002,4.836-8.002c0.563,0,0.737,0.271,0.737,0.711
		C24.298,9.812,23.881,10.058,23.439,10.205z"/>
	<path fill="#FFFFFF" d="M28.225,19.458c-0.933,0-1.62-0.441-1.719-1.375l-2.725,8.69h-2.455l5.229-16.52
		C26.776,9.565,26.53,9.1,26.04,9.1c-0.466,0-1.154,0.491-1.768,1.743l-0.074-0.049c0.761-1.669,1.989-2.233,2.774-2.233
		c1.374,0,2.135,1.031,1.473,3.313c0.884-2.16,2.234-3.313,3.437-3.313c2.381,0,3.24,1.915,3.24,3.854
		C35.122,15.58,32.004,19.458,28.225,19.458z M31.709,8.781c-1.521,0-2.7,1.89-3.436,3.756l-1.62,5.129
		c-0.123,1.032,0.466,1.694,1.571,1.694c0.563,0,0.982-0.147,1.546-0.564c1.792-1.374,3.167-6.187,3.167-8.248
		C32.938,9.271,32.593,8.781,31.709,8.781z"/>
	<path fill="#FFFFFF" d="M40.594,13.69h-1.251c-0.441,1.546-0.736,2.945-0.736,3.632c0,1.179,0.368,2.038,1.693,2.038
		c2.013,0,2.921-0.859,3.854-1.939l0.073,0.049c-1.153,1.375-2.16,1.988-3.829,1.988c-2.209,0-3.854-1.694-3.854-4.125
		c0-3.51,2.97-6.775,6.259-6.775c2.062,0,3.068,1.13,3.068,2.013C45.873,12.537,43.417,13.69,40.594,13.69z M42.804,8.659
		c-2.038,0-2.676,2.209-3.437,4.934h0.688c2.995,0,3.804-2.037,3.804-3.584C43.858,9.026,43.466,8.659,42.804,8.659z"/>
	<path fill="#FFFFFF" d="M57.703,4.436c-0.786,0-1.081-0.393-1.081-0.908c0-0.589,0.466-1.153,0.466-1.571
		c0-0.589-0.245-0.86-0.834-0.86c-0.933,0-2.062,1.154-3.485,5.67c-0.196,0.614-0.393,1.301-0.589,2.038h2.871
		c0.049,0,0.024,0.073-0.024,0.073h-2.871c-1.056,3.903-2.333,9.057-3.215,11.758c-1.228,3.707-2.921,6.357-5.45,6.357
		c-1.423,0-2.603-0.711-2.603-2.012c0-0.884,0.565-1.399,1.252-1.399c0.786,0,1.105,0.393,1.105,0.908
		c0,0.589-0.491,1.104-0.491,1.522c0,0.539,0.221,0.884,0.736,0.884c1.228,0,1.645-1.399,2.897-5.302
		c1.055-3.363,2.258-8.96,3.313-12.715h-2.553c-0.049,0,0-0.073,0.048-0.073h2.53c0.171-0.614,0.319-1.154,0.491-1.62
		C51.394,3.528,53.897,1,56.254,1c1.792,0,2.701,0.859,2.701,2.037C58.955,3.92,58.39,4.436,57.703,4.436z"/>
	<path fill="#FFFFFF" d="M62.538,18.083c-0.147,0.443,0.025,0.762,0.491,0.762c0.736,0,1.546-0.517,2.38-1.989l0.074,0.049
		c-0.884,1.792-2.406,2.553-3.289,2.553c-1.499,0-2.161-1.448-1.474-3.363c-0.859,2.16-2.233,3.363-3.436,3.363
		c-2.382,0-3.241-1.964-3.241-3.903c0-3.167,3.118-6.972,6.898-6.972c0.933,0,1.62,0.417,1.718,1.35l0.344-1.154l2.503-0.122
		L62.538,18.083z M60.943,8.659c-0.564,0-0.957,0.147-1.547,0.589c-1.792,1.35-3.166,6.111-3.166,8.175
		c0,1.276,0.344,1.815,1.251,1.815c1.498,0,2.675-1.939,3.413-3.804l1.619-5.082C62.636,9.321,62.072,8.659,60.943,8.659z"/>
	<path fill="#FFFFFF" d="M74.638,12.07c-0.761,0-1.104-0.564-1.104-1.104c0-0.835,0.417-0.908,0.417-1.497
		c0-0.589-0.319-0.81-0.982-0.81c-1.104,0-1.841,0.539-2.454,1.595c-0.541,0.982-1.867,5.768-1.867,7.069
		c0,1.179,0.368,2.039,1.694,2.039c1.915,0,3.117-1.007,4.124-2.308l0.098,0.048c-1.129,1.497-2.454,2.357-4.124,2.357
		c-2.21,0-3.854-1.694-3.854-4.124c0-3.51,2.97-6.775,6.259-6.775c1.522,0,3.044,1.081,3.044,2.283
		C75.89,11.653,75.326,12.07,74.638,12.07z"/>
	<path fill="#FFFFFF" d="M80.773,13.69h-1.25c-0.442,1.546-0.737,2.945-0.737,3.632c0,1.179,0.368,2.038,1.693,2.038
		c2.013,0,2.922-0.859,3.854-1.939l0.074,0.049c-1.154,1.375-2.161,1.988-3.83,1.988c-2.209,0-3.854-1.694-3.854-4.125
		c0-3.51,2.971-6.775,6.26-6.775c2.061,0,3.068,1.13,3.068,2.013C86.051,12.537,83.597,13.69,80.773,13.69z M82.983,8.659
		c-2.037,0-2.676,2.209-3.436,4.934h0.687c2.995,0,3.805-2.037,3.805-3.584C84.039,9.026,83.646,8.659,82.983,8.659z"/>
	<path fill="#FFFFFF" d="M94.346,19.458c-1.325,0-2.136-0.736-2.136-1.743c0-1.964,2.529-5.67,2.529-7.903
		c0-0.516-0.123-0.712-0.59-0.712c-0.491,0-1.178,0.491-1.793,1.767l-0.073-0.074c0.761-1.669,2.013-2.233,2.797-2.233
		c1.301,0,1.842,0.761,1.842,1.767c0,2.431-2.503,6.014-2.503,7.584c0,0.565,0.221,0.934,0.737,0.934c0.76,0,1.571-0.516,2.38-1.989
		l0.074,0.049C96.728,18.698,95.207,19.458,94.346,19.458z M96.948,5.222c-0.785,0-1.399-0.614-1.399-1.375
		c0-0.786,0.614-1.399,1.399-1.399c0.762,0,1.375,0.614,1.375,1.399C98.323,4.608,97.709,5.222,96.948,5.222z"/>
	<path fill="#FFFFFF" d="M105.465,11.653c-0.711,0-1.031-0.516-1.031-1.031c0-0.564,0.392-0.687,0.392-1.129
		c0-0.49-0.245-0.834-0.858-0.834c-1.324,0-1.988,0.834-1.988,2.013c0,2.086,3.313,2.823,3.313,5.572
		c0,1.473-1.274,3.215-4.099,3.215c-2.186,0-3.314-1.595-3.314-2.478c0-0.761,0.515-1.473,1.251-1.473
		c0.736,0,1.105,0.589,1.105,1.031c0,1.227-0.982,0.884-0.982,1.62c0,0.564,0.491,1.203,1.938,1.203
		c1.547,0,2.111-0.933,2.111-2.185c0-2.381-3.117-2.651-3.117-5.278c0-1.276,1.546-3.338,3.78-3.338
		c1.521,0,2.675,0.835,2.675,1.938C106.645,11.26,106.104,11.653,105.465,11.653z"/>
	<path fill="#FFFFFF" d="M115.848,19.458c-3.291,0-4-1.743-3.191-4.32l4.32-13.771c0.025-0.074-0.024-0.099-0.123-0.099
		l-1.351,0.025c-0.073,0-0.024-0.098,0.024-0.098l3.904-0.074c0.049,0,0.049,0.024,0.049,0.074l-3.043,9.745
		c0.662-1.571,1.914-2.381,3.043-2.381c1.987,0,3.511,1.35,3.511,3.583C122.991,15.972,119.259,19.458,115.848,19.458z
		 M119.284,8.781c-1.302,0-2.333,1.007-3.093,3.02l-1.793,5.498c-0.394,1.448,0.246,2.063,1.35,2.063
		c1.375,0,2.014-0.467,2.822-1.571c0.836-1.154,2.285-5.425,2.285-7.045C120.855,9.542,120.609,8.781,119.284,8.781z"/>
	<path fill="#FFFFFF" d="M128.341,13.69h-1.252c-0.442,1.546-0.737,2.945-0.737,3.632c0,1.179,0.369,2.038,1.695,2.038
		c2.012,0,2.92-0.859,3.854-1.939l0.072,0.049c-1.152,1.375-2.16,1.988-3.828,1.988c-2.209,0-3.854-1.694-3.854-4.125
		c0-3.51,2.972-6.775,6.259-6.775c2.061,0,3.068,1.13,3.068,2.013C133.617,12.537,131.163,13.69,128.341,13.69z M130.549,8.659
		c-2.037,0-2.675,2.209-3.438,4.934h0.688c2.995,0,3.804-2.037,3.804-3.584C131.604,9.026,131.212,8.659,130.549,8.659z"/>
	<path fill="#FFFFFF" d="M143.043,18.083c-0.146,0.443,0.023,0.762,0.49,0.762c0.736,0,1.547-0.517,2.381-1.989l0.072,0.049
		c-0.883,1.792-2.405,2.553-3.289,2.553c-1.497,0-2.161-1.448-1.473-3.363c-0.859,2.16-2.233,3.363-3.437,3.363
		c-2.382,0-3.241-1.964-3.241-3.903c0-3.167,3.118-6.972,6.898-6.972c0.932,0,1.619,0.417,1.718,1.35l0.343-1.154l2.504-0.122
		L143.043,18.083z M141.447,8.659c-0.563,0-0.957,0.147-1.547,0.589c-1.791,1.35-3.166,6.111-3.166,8.175
		c0,1.276,0.345,1.815,1.252,1.815c1.496,0,2.676-1.939,3.412-3.804l1.619-5.082C143.141,9.321,142.576,8.659,141.447,8.659z"/>
	<path fill="#FFFFFF" d="M155.952,18.083c-0.146,0.443,0.024,0.762,0.467,0.762c0.761,0,1.571-0.517,2.404-1.989l0.073,0.074
		c-0.906,1.767-2.404,2.528-3.289,2.528c-1.498,0-2.308-1.252-1.275-4.05c-1.425,2.578-3.414,4.05-4.861,4.05
		c-1.178,0-1.938-0.86-1.938-2.283c0-2.061,2.404-5.768,2.404-7.363c0-0.541-0.172-0.712-0.588-0.712
		c-0.492,0-1.18,0.491-1.77,1.767l-0.098-0.074c0.762-1.669,2.013-2.233,2.799-2.233c1.25,0,1.742,0.835,1.742,1.743
		c0,1.988-2.209,4.885-2.209,7.12c0,0.589,0.492,1.03,1.104,1.03c0.982,0,1.939-0.736,3.561-3.46l1.938-6.21l2.479-0.123
		L155.952,18.083z"/>
	<path fill="#FFFFFF" d="M166.924,8.879h-1.84l-2.873,9.204c-0.146,0.443,0.025,0.762,0.467,0.762c0.762,0,1.57-0.517,2.406-1.989
		l0.072,0.049c-0.908,1.792-2.406,2.553-3.289,2.553c-1.547,0-2.209-1.031-1.596-3.019l2.381-7.561h-1.791
		c-0.051,0-0.025-0.098,0.022-0.098h1.791l1.154-3.682l2.479-0.124l-1.18,3.805h1.816C166.998,8.781,166.973,8.879,166.924,8.879z"
		/>
	<path fill="#FFFFFF" d="M169.084,19.458c-1.326,0-2.137-0.736-2.137-1.743c0-1.964,2.529-5.67,2.529-7.903
		c0-0.516-0.123-0.712-0.59-0.712c-0.49,0-1.181,0.491-1.794,1.767l-0.071-0.074c0.76-1.669,2.012-2.233,2.797-2.233
		c1.301,0,1.842,0.761,1.842,1.767c0,2.431-2.504,6.014-2.504,7.584c0,0.565,0.221,0.934,0.738,0.934
		c0.76,0,1.567-0.516,2.379-1.989l0.074,0.049C171.463,18.698,169.943,19.458,169.084,19.458z M171.686,5.222
		c-0.785,0-1.399-0.614-1.399-1.375c0-0.786,0.614-1.399,1.399-1.399c0.76,0,1.375,0.614,1.375,1.399
		C173.061,4.608,172.445,5.222,171.686,5.222z"/>
	<path fill="#FFFFFF" d="M184.229,4.436c-0.787,0-1.08-0.393-1.08-0.908c0-0.589,0.465-1.153,0.465-1.571
		c0-0.589-0.243-0.86-0.834-0.86c-0.932,0-2.062,1.154-3.485,5.67c-0.194,0.614-0.394,1.301-0.588,2.038h2.871
		c0.049,0,0.024,0.073-0.022,0.073h-2.873c-1.056,3.903-2.332,9.057-3.216,11.758c-1.227,3.707-2.922,6.357-5.448,6.357
		c-1.425,0-2.603-0.711-2.603-2.012c0-0.884,0.563-1.399,1.25-1.399c0.787,0,1.104,0.393,1.104,0.908c0,0.589-0.49,1.104-0.49,1.522
		c0,0.539,0.222,0.884,0.736,0.884c1.228,0,1.646-1.399,2.896-5.302c1.055-3.363,2.258-8.96,3.314-12.715h-2.554
		c-0.049,0,0-0.073,0.05-0.073h2.526c0.172-0.614,0.319-1.154,0.492-1.62C177.92,3.528,180.424,1,182.779,1
		c1.793,0,2.701,0.859,2.701,2.037C185.479,3.92,184.914,4.436,184.229,4.436z"/>
	<path fill="#FFFFFF" d="M189.432,18.083c-0.147,0.443,0.023,0.762,0.467,0.762c0.761,0,1.57-0.517,2.404-1.989l0.072,0.074
		c-0.906,1.767-2.404,2.528-3.289,2.528c-1.496,0-2.307-1.252-1.275-4.05c-1.424,2.578-3.412,4.05-4.86,4.05
		c-1.179,0-1.938-0.86-1.938-2.283c0-2.061,2.405-5.768,2.405-7.363c0-0.541-0.172-0.712-0.59-0.712
		c-0.49,0-1.179,0.491-1.769,1.767l-0.098-0.074c0.762-1.669,2.014-2.233,2.797-2.233c1.252,0,1.744,0.835,1.744,1.743
		c0,1.988-2.209,4.885-2.209,7.12c0,0.589,0.49,1.03,1.105,1.03c0.979,0,1.938-0.736,3.559-3.46l1.939-6.21l2.479-0.123
		L189.432,18.083z"/>
	<path fill="#FFFFFF" d="M195.664,18.06c-0.146,0.467,0.049,0.786,0.492,0.786c0.76,0,1.57-0.54,2.379-1.989l0.1,0.049
		c-0.908,1.768-2.406,2.553-3.289,2.553c-1.547,0-2.234-1.031-1.596-3.019l4.736-15.072c0.025-0.074-0.023-0.099-0.121-0.099
		l-1.352,0.025c-0.05,0-0.023-0.098,0.024-0.098l3.901-0.074c0.049,0,0.074,0.024,0.049,0.049L195.664,18.06z"/>
</g>
<polyline vector-effect="non-scaling-stroke" fill="none" stroke="#000000" stroke-miterlimit="10" points="421.725,-55.332 
	446.704,-40.049 471.725,-55.332 "/>
<path opacity="0.62" fill="#FFFFFF" enable-background="new    " d="M15.307,46.252l-2.408-1.979l-5.241,6.188h15.303l-5.242-6.249
	L15.307,46.252z M23.535,38.657H7.084l8.225,6.918L23.535,38.657z M18.081,43.902l5.495,6.555V39.249L18.081,43.902L18.081,43.902z
	 M7.021,39.249v11.208l5.495-6.555L7.021,39.249L7.021,39.249z"/>
<path opacity="0.62" fill="#FFFFFF" enable-background="new    " d="M168.914,36.645c1.016,0,1.986,0.197,2.914,0.596
	c0.926,0.396,1.723,0.93,2.393,1.599c0.668,0.668,1.2,1.466,1.598,2.394c0.396,0.926,0.597,1.896,0.597,2.912
	c0,1.106-0.229,2.152-0.685,3.139s-1.084,1.826-1.889,2.523c-0.803,0.696-1.714,1.2-2.734,1.514l0.41-0.404
	c0.234-0.238,0.418-0.516,0.547-0.832c0.123-0.295,0.185-0.617,0.185-0.965c0-0.086-0.003-0.146-0.008-0.182
	c0.772-0.537,1.385-1.228,1.833-2.067c0.449-0.841,0.675-1.748,0.675-2.726c0-0.789-0.153-1.545-0.463-2.266
	s-0.724-1.341-1.244-1.861c-0.521-0.521-1.142-0.937-1.86-1.244c-0.722-0.309-1.477-0.461-2.267-0.461
	c-0.722,0-1.414,0.129-2.08,0.387s-1.252,0.607-1.758,1.052c-0.507,0.442-0.929,0.972-1.271,1.588
	c-0.341,0.617-0.561,1.274-0.66,1.974h-1.731c-0.92,0-1.705,0.326-2.356,0.978c-0.65,0.649-0.978,1.437-0.978,2.356
	c0,0.502,0.101,0.97,0.297,1.398c0.197,0.43,0.457,0.783,0.778,1.059c0.32,0.274,0.678,0.489,1.07,0.645
	c0.394,0.154,0.789,0.23,1.188,0.23h0.978c0.151,0.383,0.348,0.694,0.586,0.938l0.735,0.73h-2.299c-0.907,0-1.744-0.226-2.511-0.672
	c-0.766-0.445-1.372-1.054-1.819-1.818c-0.446-0.768-0.67-1.604-0.67-2.51c0-0.907,0.224-1.744,0.67-2.51
	c0.447-0.767,1.056-1.373,1.819-1.82c0.767-0.446,1.604-0.67,2.511-0.67h0.431c0.342-0.969,0.858-1.828,1.549-2.582
	c0.69-0.752,1.517-1.345,2.479-1.773C166.832,36.857,167.846,36.645,168.914,36.645L168.914,36.645z M167.248,43.311
	c0.229,0,0.426,0.082,0.588,0.244c0.163,0.162,0.244,0.358,0.244,0.59v5.488l1.074-1.082c0.16-0.16,0.357-0.24,0.593-0.24
	c0.239,0,0.438,0.078,0.597,0.238c0.158,0.158,0.236,0.355,0.236,0.596c0,0.234-0.08,0.433-0.24,0.592l-2.5,2.5
	c-0.16,0.16-0.357,0.24-0.592,0.24s-0.434-0.08-0.594-0.24l-2.5-2.5c-0.16-0.17-0.24-0.366-0.24-0.592
	c0-0.229,0.082-0.428,0.244-0.59s0.359-0.244,0.59-0.244c0.234,0,0.432,0.08,0.592,0.24l1.074,1.082v-5.488
	c0-0.23,0.082-0.428,0.244-0.59S167.018,43.311,167.248,43.311L167.248,43.311z"/>
<path opacity="0.62" fill="#FFFFFF" enable-background="new    " d="M47.389,35.212c-2.095,0-3.792,1.698-3.792,3.792v2.275h-3.034
	v3.033h3.034V54.93h3.033V44.312h3.414l0.758-3.033H46.63v-2.275c0-0.419,0.34-0.758,0.759-0.758h3.792v-3.034H47.389z"/>
<path opacity="0.62" fill="#FFFFFF" enable-background="new    " d="M106.084,35.507c-5.171,0-7.778,3.708-7.778,6.8
	c0,1.873,0.71,3.537,2.228,4.156c0.25,0.104,0.474,0.005,0.546-0.271c0.05-0.19,0.168-0.676,0.222-0.875
	c0.075-0.271,0.046-0.366-0.153-0.604c-0.439-0.517-0.72-1.188-0.72-2.136c0-2.75,2.058-5.212,5.359-5.212
	c2.924,0,4.531,1.788,4.531,4.17c0,3.139-1.391,5.786-3.453,5.786c-1.139,0-1.991-0.94-1.717-2.096
	c0.326-1.382,0.961-2.869,0.961-3.863c0-0.892-0.48-1.633-1.467-1.633c-1.164,0-2.101,1.203-2.101,2.816
	c0,1.028,0.351,1.723,0.351,1.723s-1.193,5.047-1.401,5.932c-0.416,1.76-0.062,3.919-0.031,4.138
	c0.017,0.127,0.183,0.16,0.258,0.062c0.107-0.141,1.494-1.854,1.964-3.562c0.135-0.484,0.766-2.988,0.766-2.988
	c0.381,0.719,1.482,1.354,2.658,1.354c3.5,0,5.873-3.188,5.873-7.46C112.975,38.514,110.241,35.507,106.084,35.507L106.084,35.507z"
	/>
<path opacity="0.62" fill="#FFFFFF" enable-background="new    " d="M73.538,48.682c0.149-0.242,0.188-0.486,0.116-0.733
	c-0.07-0.248-0.229-0.425-0.478-0.531c-0.241-0.101-0.5-0.103-0.775-0.01c-0.276,0.092-0.489,0.254-0.637,0.487
	c-0.157,0.242-0.202,0.484-0.139,0.729c0.064,0.244,0.216,0.423,0.457,0.537c0.241,0.113,0.505,0.123,0.792,0.025
	C73.16,49.09,73.381,48.922,73.538,48.682L73.538,48.682z M74.536,47.395c0.057-0.09,0.069-0.186,0.038-0.28
	c-0.032-0.097-0.094-0.161-0.187-0.196c-0.099-0.036-0.2-0.034-0.303,0.005s-0.179,0.104-0.228,0.197
	c-0.121,0.219-0.074,0.379,0.138,0.478c0.099,0.035,0.202,0.033,0.309-0.006C74.409,47.553,74.486,47.486,74.536,47.395
	L74.536,47.395L74.536,47.395z M76.385,48.532c-0.319,0.722-0.879,1.254-1.679,1.594c-0.801,0.34-1.594,0.383-2.381,0.128
	c-0.758-0.24-1.28-0.689-1.567-1.345c-0.287-0.656-0.264-1.319,0.069-1.992c0.333-0.659,0.87-1.151,1.61-1.478
	c0.741-0.326,1.486-0.394,2.237-0.203c0.787,0.207,1.348,0.63,1.685,1.271C76.695,47.148,76.703,47.824,76.385,48.532z M79.7,46.832
	c-0.063-0.68-0.378-1.282-0.946-1.807c-0.566-0.523-1.305-0.909-2.216-1.157c-0.91-0.248-1.883-0.323-2.917-0.224
	c-1.579,0.164-2.889,0.664-3.926,1.504c-1.039,0.838-1.508,1.775-1.409,2.811c0.063,0.68,0.378,1.282,0.946,1.807
	c0.566,0.524,1.305,0.91,2.216,1.158c0.91,0.248,1.882,0.322,2.917,0.223c1.579-0.162,2.889-0.664,3.926-1.504
	C79.33,48.803,79.8,47.867,79.7,46.832L79.7,46.832z M82.974,46.875c0,0.48-0.132,0.977-0.394,1.48
	c-0.262,0.508-0.648,0.992-1.158,1.457c-0.51,0.463-1.107,0.879-1.791,1.248s-1.484,0.662-2.401,0.883
	c-0.917,0.219-1.876,0.328-2.874,0.328c-0.999,0-1.974-0.119-2.923-0.354c-0.949-0.237-1.801-0.567-2.555-0.989
	c-0.755-0.421-1.362-0.955-1.823-1.604c-0.46-0.648-0.69-1.355-0.69-2.119c0-0.814,0.246-1.684,0.738-2.604
	c0.492-0.922,1.192-1.836,2.099-2.742c1.198-1.197,2.407-2.033,3.629-2.508c1.222-0.476,2.095-0.451,2.619,0.074
	c0.46,0.453,0.531,1.193,0.213,2.221c-0.029,0.1-0.031,0.17-0.011,0.213c0.022,0.041,0.057,0.066,0.107,0.074
	c0.049,0.008,0.101,0.006,0.154-0.006c0.053-0.01,0.102-0.022,0.144-0.037l0.063-0.021c0.985-0.418,1.856-0.627,2.615-0.627
	c0.758,0,1.299,0.217,1.625,0.648c0.319,0.446,0.319,1.076,0,1.892c-0.014,0.092-0.031,0.163-0.049,0.213
	c-0.017,0.05,0,0.093,0.049,0.133c0.049,0.039,0.092,0.065,0.127,0.08c0.036,0.015,0.096,0.036,0.181,0.063
	c0.404,0.129,0.77,0.295,1.095,0.5c0.326,0.207,0.609,0.494,0.85,0.867C82.853,46.008,82.974,46.421,82.974,46.875L82.974,46.875z
	 M82.188,40.244c0.297,0.333,0.49,0.717,0.578,1.152c0.09,0.437,0.066,0.853-0.069,1.25c-0.056,0.162-0.161,0.283-0.313,0.359
	c-0.152,0.079-0.31,0.094-0.472,0.043c-0.164-0.057-0.283-0.162-0.362-0.312c-0.078-0.153-0.092-0.311-0.042-0.473
	c0.142-0.447,0.057-0.841-0.255-1.181c-0.311-0.34-0.69-0.464-1.136-0.371c-0.17,0.035-0.329,0.007-0.478-0.085
	s-0.238-0.225-0.266-0.395c-0.035-0.17-0.008-0.327,0.084-0.473c0.092-0.145,0.224-0.234,0.394-0.271
	c0.425-0.093,0.847-0.073,1.265,0.058C81.531,39.678,81.89,39.911,82.188,40.244L82.188,40.244z M84.111,38.511
	c0.616,0.681,1.015,1.47,1.195,2.365c0.18,0.896,0.133,1.751-0.145,2.567c-0.063,0.19-0.184,0.332-0.36,0.425
	c-0.177,0.092-0.361,0.104-0.553,0.042c-0.192-0.064-0.333-0.184-0.425-0.362c-0.092-0.177-0.11-0.36-0.053-0.552
	c0.198-0.581,0.233-1.189,0.106-1.828c-0.127-0.637-0.411-1.197-0.851-1.679c-0.438-0.489-0.963-0.827-1.572-1.015
	c-0.609-0.188-1.222-0.219-1.838-0.092c-0.199,0.043-0.383,0.01-0.552-0.101c-0.17-0.11-0.277-0.265-0.319-0.462
	c-0.043-0.198-0.009-0.381,0.1-0.547c0.11-0.168,0.264-0.272,0.462-0.314c0.872-0.184,1.737-0.145,2.593,0.122
	C82.757,37.348,83.494,37.824,84.111,38.511L84.111,38.511z"/>
<g opacity="0.62">
	<path fill="#FFFFFF" d="M135.372,49.389c5.038,0,9.127-4.129,9.127-9.222v-3.249h-3.222c-5.039,0-9.127,4.13-9.127,9.221v3.25
		H135.372L135.372,49.389z"/>
	<path fill="#FFFFFF" d="M135.372,49.803h-3.019c2.1,1.973,4.908,3.18,7.998,3.18h4.147v-4.185c0-1.438-0.253-2.815-0.717-4.09
		C142.173,47.736,139.007,49.803,135.372,49.803"/>
	<path fill="#FFFFFF" d="M131.738,46.137c0-3.674,2.045-6.873,5.046-8.498c-1.259-0.467-2.621-0.722-4.041-0.722h-4.146v4.187
		c0,3.121,1.192,5.957,3.141,8.078V46.137L131.738,46.137z"/>
</g>
<polyline vector-effect="non-scaling-stroke" opacity="0.62" fill="none" stroke="#FFFFFF" stroke-miterlimit="10" points="52.236,60 26.268,85.969 0.299,60 "/>
</svg>
